<svg xmlns="http://www.w3.org/2000/svg" fill="none" viewBox="0 0 500 500">
  <path fill="#000" d="M340.501 177.688c-48.344 0-80.902-27.77-84.985-72.48a59.412 59.412 0 0115.144-46.693C286.05 41.664 311.505 32 340.501 32c28.995 0 54.45 9.664 69.84 26.515a59.412 59.412 0 0115.144 46.693c-4.083 44.71-36.64 72.48-84.984 72.48zm0-137.594c-26.338 0-50.21 8.927-63.864 23.876a50.847 50.847 0 00-13.027 40.51c3.691 40.772 32.444 65.114 76.891 65.114 44.446 0 73.199-24.342 76.89-65.114a50.84 50.84 0 00-13.027-40.51c-13.654-14.949-37.526-23.876-63.863-23.876z"/>
  <path fill="#000" d="M421.438 153.406h-20.235v-8.094h20.235a40.465 40.465 0 0040.468-40.468 40.466 40.466 0 00-40.468-40.469H405.25v-8.094h16.188a48.561 48.561 0 010 97.125z"/>
  <path fill="#000" d="M421.438 133.172h-8.094v-8.094h8.094a20.228 20.228 0 0014.877-6.547 20.243 20.243 0 005.261-15.381 20.234 20.234 0 00-23.514-18.261l-1.343-7.969c1.559-.264 3.137-.4 4.719-.404a28.33 28.33 0 010 56.656zM279.797 153.406h-20.235a48.561 48.561 0 110-97.125h16.188v8.094h-16.188a40.468 40.468 0 000 80.937h20.235v8.094z"/>
  <path fill="#000" d="M267.656 133.172h-8.094a28.331 28.331 0 01-28.328-28.328 28.33 28.33 0 0128.328-28.328c1.582.004 3.16.14 4.719.404l-1.343 7.98a20.235 20.235 0 10-3.376 40.178h8.094v8.094zM340.5 165.547c-31.161 0-68.797-27.078-68.797-60.703 0-27.875 15.127-44.516 40.469-44.516A31.06 31.06 0 01340.5 76.39a31.062 31.062 0 0128.328-16.062c25.342 0 40.469 16.64 40.469 44.516 0 33.625-37.636 60.703-68.797 60.703zm-28.328-97.125c-20.574 0-32.375 13.273-32.375 36.422 0 23.828 27.078 52.609 60.703 52.609s60.703-28.781 60.703-52.609c0-23.149-11.801-36.422-32.375-36.422-9.429 0-17.24 3.06-24.686 17.996a4.216 4.216 0 01-7.244 0c-7.486-14.937-15.297-17.996-24.726-17.996z"/>
  <path fill="#000" d="M340.499 134.519a8.012 8.012 0 01-6.475-3.237l-4.047-5.39a8.1 8.1 0 01-.768-8.479 8.094 8.094 0 017.243-4.475h8.094a8.093 8.093 0 016.475 12.95l-4.047 5.394a8.003 8.003 0 01-6.475 3.237zm-4.047-13.488h-.028l4.075 5.395 4.047-5.395h-8.094zM370.423 116.984a5.57 5.57 0 01-4.047-1.618 6.105 6.105 0 01-1.214-6.475 12.128 12.128 0 013.007-4.67c3.751-3.756 8.446-4.52 11.153-1.809a6.095 6.095 0 011.214 6.475 12.143 12.143 0 01-3.007 4.67 10.484 10.484 0 01-7.106 3.427zM310.577 116.985a10.488 10.488 0 01-7.122-3.42 12.133 12.133 0 01-3.019-4.674 6.1 6.1 0 011.214-6.475c2.699-2.695 7.394-1.943 11.149 1.809a12.175 12.175 0 013.015 4.666 6.105 6.105 0 01-1.214 6.475 5.569 5.569 0 01-4.023 1.619z"/>
  <path fill="#000" d="M348.594 145.312a12.086 12.086 0 01-8.094-3.099 12.136 12.136 0 01-13.046 2.035 12.141 12.141 0 01-7.188-11.076h8.093a4.047 4.047 0 108.094 0 4.048 4.048 0 118.094 0 4.044 4.044 0 004.047 4.047 4.047 4.047 0 004.047-4.047h8.093a12.14 12.14 0 01-12.14 12.14zM328.359 291h-40.468c-3.707 0-8.094-6.58-8.094-12.141a12.14 12.14 0 0112.141-12.14 4.047 4.047 0 004.046-4.047v-24.281c0-20.085 14.525-36.422 32.375-36.422a35.218 35.218 0 0126.132 10.29 35.218 35.218 0 0110.29 26.132h-8.093a27.12 27.12 0 00-28.329-28.329c-13.391 0-24.281 12.712-24.281 28.329v24.281a12.14 12.14 0 01-12.14 12.14 4.047 4.047 0 00-4.047 4.047 7.219 7.219 0 001.578 4.047h38.89c6.581 0 12.141-9.267 12.141-20.234h8.094c0 15.884-8.903 28.328-20.235 28.328z"/>
  <path fill="#000" d="M388.209 291h-39.615c-3.557 0-9.878-5.079-11.906-10.785l7.625-2.712a11.64 11.64 0 004.856 5.403h39.04c16.54 0 33.229-8.757 33.229-28.328v-4.047a36.076 36.076 0 00-5.581-19.287l-42.301-63.451 6.734-4.492 42.301 63.455a43.804 43.804 0 016.941 23.775v4.047c0 21.448-16.997 36.422-41.323 36.422z"/>
  <path fill="#000" d="M441.672 291h-12.141c-11.537 0-20.234-5.22-20.234-12.141h8.094c0 1.008 4.306 4.047 12.14 4.047h12.141a20.26 20.26 0 0020.234-20.234v-89.031a4.046 4.046 0 10-8.094 0v84.984a16.185 16.185 0 01-16.187 16.187h-4.047a18.262 18.262 0 01-15.002-5.232l5.723-5.722a10.548 10.548 0 009.279 2.861h4.047a8.093 8.093 0 008.094-8.094v-84.984a12.14 12.14 0 1124.281 0v89.031A28.363 28.363 0 01441.672 291zM287.891 291h-24.282a12.14 12.14 0 010-24.281 13.271 13.271 0 0012.449-8.745l32.31-89.752 7.608 2.744-32.306 89.751a21.377 21.377 0 01-20.061 14.096 4.046 4.046 0 100 8.093h24.282V291zM166.216 430.392h-3.281v-13.124c0-3.965-1.725-8.203-6.562-8.203v-3.281c5.887 0 9.843 4.615 9.843 11.484v13.124z"/>
  <path fill="#000" d="M164.575 445.157c-2.686 0-4.922-7.146-4.922-9.843 0-4.07 3.186-6.562 4.922-6.562 1.736 0 4.921 2.492 4.921 6.562 0 2.697-2.236 9.843-4.921 9.843zm0-13.041a3.773 3.773 0 00-1.641 3.198 14.32 14.32 0 001.641 5.578 14.302 14.302 0 001.64-5.578 3.768 3.768 0 00-1.64-3.198zM112.079 402.503H75.987a11.784 11.784 0 01-11.484-11.483v-4.922c0-5.102 2.625-10.563 8.34-11.38l.508-5.486a14.327 14.327 0 0114.712-12.663h11.94a14.329 14.329 0 0114.712 12.668l.508 5.481c5.714.817 8.339 6.278 8.339 11.38v4.922a11.784 11.784 0 01-11.483 11.483zM88.063 359.85a11.203 11.203 0 00-11.444 9.679l-.632 6.878a1.64 1.64 0 01-1.64 1.488c-4.533 0-6.563 4.12-6.563 8.203v4.922a8.415 8.415 0 008.203 8.202h36.092a8.412 8.412 0 005.739-2.463 8.412 8.412 0 002.463-5.739v-4.922c0-4.083-2.029-8.203-6.562-8.203a1.639 1.639 0 01-1.64-1.488l-.63-6.878a11.208 11.208 0 00-11.446-9.679h-11.94z"/>
  <path fill="#000" d="M113.719 374.615H74.347v3.281h39.372v-3.281zM106.173 395.941a2.261 2.261 0 01-1.641-.656c-1.096-1.096-.787-2.997.733-4.52a4.946 4.946 0 011.892-1.222 2.48 2.48 0 012.625.492c1.096 1.096.787 2.998-.733 4.52a4.927 4.927 0 01-1.892 1.222 3.11 3.11 0 01-.984.164zM81.901 395.941c-.337 0-.672-.056-.992-.164a4.917 4.917 0 01-1.893-1.219c-1.523-1.527-1.831-3.428-.732-4.523a2.476 2.476 0 012.625-.492 4.929 4.929 0 011.893 1.219c1.523 1.522 1.831 3.424.733 4.521a2.253 2.253 0 01-1.633.658zM104.868 372.974a3.126 3.126 0 01-.992-.164 4.934 4.934 0 01-1.894-1.219c-1.522-1.523-1.83-3.424-.733-4.521a2.483 2.483 0 012.627-.494 4.927 4.927 0 011.893 1.219c1.521 1.522 1.829 3.424.731 4.521a2.262 2.262 0 01-1.632.658zM83.205 372.974a2.263 2.263 0 01-1.64-.656c-1.096-1.096-.788-2.997.733-4.52a4.926 4.926 0 011.892-1.222 2.482 2.482 0 012.625.492c1.095 1.096.787 2.997-.734 4.52a4.929 4.929 0 01-1.891 1.222c-.317.107-.65.163-.985.164z"/>
  <path fill="#000" d="M113.719 376.255v-3.281c6.28 0 6.562-6.497 6.562-6.562a3.413 3.413 0 00-.023-.452 8.385 8.385 0 00-1.119-.328l-10.722-2.546a1.628 1.628 0 01-.728-.386 1.652 1.652 0 01-.449-.692l-2.667-8.004a1.09 1.09 0 00-1.741-.403l-2.382 5.282-2.992-1.348 2.48-5.488c.05-.11.111-.214.184-.31a4.327 4.327 0 017.568 1.229l2.38 7.139 9.843 2.343c2.061.496 3.649 1.101 3.649 3.964a9.841 9.841 0 01-2.88 6.963 9.837 9.837 0 01-6.963 2.88zM74.347 376.255a9.843 9.843 0 01-6.964-2.88 9.827 9.827 0 01-2.88-6.963c0-2.863 1.588-3.468 3.662-3.964l9.843-2.342 2.372-7.146a4.325 4.325 0 015.724-2.646c.732.295 1.37.785 1.844 1.417.073.096.135.2.184.31l2.475 5.487-2.992 1.349-2.382-5.283a1.094 1.094 0 00-1.438-.018 1.094 1.094 0 00-.302.422l-2.668 8.011a1.635 1.635 0 01-1.176 1.078l-10.716 2.552c-.38.083-.754.193-1.119.328-.02.148-.03.296-.03.445 0 .065.283 6.562 6.563 6.562v3.281zM89.111 445.157H74.347v3.281H89.11v-3.281zM110.438 445.157H95.673v3.281h14.765v-3.281z"/>
  <path fill="#000" d="M154.732 455h-13.124a1.64 1.64 0 01-1.627-1.437l-1.282-10.252a1.64 1.64 0 00-1.629-1.435h-22.094a1.639 1.639 0 00-1.629 1.435l-1.282 10.252a1.633 1.633 0 01-.542 1.026 1.635 1.635 0 01-1.085.411H97.314a1.638 1.638 0 01-1.627-1.437l-1.338-10.695a1.129 1.129 0 00-1.136-.992 1.146 1.146 0 00-1.139 1.004l-1.335 10.683A1.638 1.638 0 0189.11 455H75.987a1.64 1.64 0 01-1.64-1.549l-1.562-28.166a50.542 50.542 0 01-.079-2.821v-21.601h3.281v21.601c0 .88.025 1.759.074 2.638l1.478 26.617h10.124l1.148-9.246a4.43 4.43 0 018.785-.011l1.166 9.257h10.227l1.103-8.815a4.923 4.923 0 014.884-4.309h22.094a4.923 4.923 0 014.884 4.309l1.103 8.815h10.227l1.359-10.877c.06-.473.089-.95.089-1.427v-28.709a21.352 21.352 0 00-21.327-21.327h-11.483v-3.281h11.483a24.639 24.639 0 0124.608 24.608v28.709a14.4 14.4 0 01-.115 1.833l-1.539 12.312a1.638 1.638 0 01-1.627 1.44z"/>
  <path fill="#000" d="M154.732 445.157h-14.765v3.281h14.765v-3.281zM135.374 455h-10.5a1.639 1.639 0 01-1.632-1.476L121.93 440.4a1.641 1.641 0 011.632-1.805h13.124a1.633 1.633 0 011.222.537 1.635 1.635 0 01.419 1.268l-1.313 13.124a1.638 1.638 0 01-1.64 1.476zm-9.023-3.281h7.546l.985-9.843h-9.516l.985 9.843z"/>
  <path fill="#000" d="M136.686 445.157h-13.124v3.281h13.124v-3.281zM100.595 412.347H87.471a1.64 1.64 0 01-1.64-1.641v-3.281a8.203 8.203 0 0116.404 0v3.281a1.644 1.644 0 01-1.64 1.641zm-11.484-3.281h9.843v-1.641a4.922 4.922 0 00-9.843 0v1.641z"/>
  <path fill="#000" d="M94.033 417.268a6.56 6.56 0 01-6.562-6.562h3.28a3.28 3.28 0 106.563 0h3.281a6.562 6.562 0 01-6.562 6.562zM153.516 415.628a11.539 11.539 0 01-1.45-.107 8.663 8.663 0 01-3.129-.915 10.076 10.076 0 01-2.155-1.759l-.253-.249a25.35 25.35 0 00-6.106-4.43c-.328-.164-.656-.336-.996-.492a19.739 19.739 0 01-3.223-1.859 12.125 12.125 0 01-4.61-8.859c-.029-.761.002-1.525.093-2.282.077-.614.103-1.233.077-1.852a9.04 9.04 0 00-.853-2.746 22.95 22.95 0 01-.713-1.839l3.117-1.01c.174.539.393 1.056.612 1.568a11.883 11.883 0 011.102 3.773c.042.8.014 1.603-.084 2.398-.072.585-.1 1.174-.083 1.762a8.81 8.81 0 003.305 6.458 17.244 17.244 0 002.702 1.537c.355.174.709.347 1.06.53a28.715 28.715 0 016.89 5.008l.264.261c.424.467.906.876 1.436 1.217a5.63 5.63 0 001.954.527 5.192 5.192 0 001.776 0c.438-.108.555-.286.629-.442l2.963 1.413a4.083 4.083 0 01-2.804 2.215 6.49 6.49 0 01-1.521.174zM156.373 438.595a21.191 21.191 0 01-4.452-.84c-.635-.164-1.505-.384-1.743-.406h-.096a16.51 16.51 0 01-8.766-3.199 16.738 16.738 0 01-4.518-3.983 8.22 8.22 0 01-1.607-6.455 11.633 11.633 0 011.396-3.281c.137-.25.277-.492.41-.748l.177-.343a7.147 7.147 0 012.088-2.75 5.911 5.911 0 013.311-.961 22.37 22.37 0 019.121 2.246 26.005 26.005 0 015.647 2.982l-1.936 2.651a22.978 22.978 0 00-4.946-2.592 19.878 19.878 0 00-7.779-2.008 2.854 2.854 0 00-1.523.365 4.538 4.538 0 00-1.065 1.568l-.193.371c-.145.275-.297.548-.448.82a8.941 8.941 0 00-1.05 2.351 5.027 5.027 0 001.047 3.845 13.83 13.83 0 003.663 3.17 12.823 12.823 0 007.09 2.667c.863.062 1.714.232 2.533.507 1.189.353 2.407.601 3.639.742v3.281zM74.975 417.143l-1.257-3.031c.445-.184.891-.356 1.336-.527.849-.309 1.68-.664 2.492-1.063a7.98 7.98 0 001.476-.899 6.436 6.436 0 001.887-4.526 8.203 8.203 0 00-2.79-5.073l2.32-2.319c.93.928 3.95 4.224 3.752 7.584a9.575 9.575 0 01-3.064 6.854c-.638.509-1.33.944-2.066 1.297-.916.454-1.856.857-2.816 1.208-.422.161-.852.321-1.27.495zM84.682 435.314c-1.103 0-2.204-.029-3.306-.085a5.477 5.477 0 01-1.93-.373 5.425 5.425 0 01-2.01-1.675 63.559 63.559 0 01-2.263-2.897 3.386 3.386 0 01-.792-2.535c.096-.515.318-.998.647-1.407.155-.215.328-.428.492-.638.39-.434.708-.929.94-1.465.082-.323.134-.652.156-.985.029-.308.062-.618.116-.922a5.962 5.962 0 016.145-5.031c.932.14 1.83.45 2.65.915.226.115.479.24.75.373 1.835.899 4.35 2.132 5.25 4.073a15.008 15.008 0 01.82 6.807l-.02.533a5.924 5.924 0 01-.38 2.192 4.886 4.886 0 01-3.075 2.601 12.906 12.906 0 01-4.19.519zm-6.957-7.099c.026.036.055.081.093.132a60.051 60.051 0 002.142 2.742c.213.297.477.552.78.755.26.072.529.108.799.107 1.045.052 2.091.082 3.138.082a10.216 10.216 0 003.151-.348 1.782 1.782 0 001.096-.768c.094-.333.135-.679.123-1.025l.022-.545c.21-1.786.03-3.597-.527-5.307-.408-.886-2.556-1.939-3.71-2.503-.291-.143-.565-.276-.806-.402a4.824 4.824 0 00-1.521-.574 2.692 2.692 0 00-2.543 2.346c-.04.223-.06.451-.084.679a7.9 7.9 0 01-.293 1.648 7.877 7.877 0 01-1.493 2.509c-.123.156-.248.313-.367.472zM123 415.627c-.32 0-.633 0-.945-.008a22.297 22.297 0 01-7.532-1.069 21.17 21.17 0 01-3.824-1.969 10.905 10.905 0 01-4.429-4.36 12.393 12.393 0 01-.3-7.567l3.228.588a9.527 9.527 0 00.038 5.578 8.066 8.066 0 003.202 2.975 18.028 18.028 0 003.224 1.682 19.53 19.53 0 006.444.868c1.367.059 2.738-.02 4.09-.235a5.453 5.453 0 001.924-.695 4.96 4.96 0 001.405-1.636 4.958 4.958 0 00.575-2.079 9.89 9.89 0 00-1.006-4.9c-.275-.612-.587-1.206-.897-1.804-.422-.806-.858-1.641-1.224-2.535a30.74 30.74 0 01-.261-.666 7.97 7.97 0 00-.705-1.537 7.62 7.62 0 00-1.908-1.713 6.782 6.782 0 00-2.177-.244v-3.281a7.285 7.285 0 014.093.864 10.342 10.342 0 012.717 2.551c.43.688.78 1.423 1.043 2.19l.233.594c.307.753.689 1.477 1.093 2.254.339.656.679 1.301.984 1.969a13.099 13.099 0 011.283 6.544 8.154 8.154 0 01-3.47 6.175 8.6 8.6 0 01-3.086 1.161 19.964 19.964 0 01-3.812.305zM121.297 435.314a20.118 20.118 0 01-11.061-3.336 7.042 7.042 0 01-2.436-2.419 6.167 6.167 0 01.153-5.76 11.753 11.753 0 013.305-3.663 12.633 12.633 0 014.838-2.637 12.766 12.766 0 015.433.164 9.894 9.894 0 014.705 1.969c.272.244.523.509.752.794.117.151.246.292.387.422.184.104.378.189.581.251.379.127.745.292 1.092.492a5.524 5.524 0 012.105 2.885 6.2 6.2 0 01.609 2.789 6.108 6.108 0 01-.522 1.925 10.907 10.907 0 01-2.169 3.729 8.624 8.624 0 01-5.085 2.214c-.891.122-1.789.182-2.687.181zm-3.117-14.765a5.806 5.806 0 00-1.334.143 9.792 9.792 0 00-3.552 2.009 8.904 8.904 0 00-2.438 2.625 2.964 2.964 0 00-.183 2.651c.353.52.82.952 1.366 1.263a17.018 17.018 0 0011.484 2.642 5.404 5.404 0 003.204-1.275 8.325 8.325 0 001.455-2.653 3.66 3.66 0 00.302-.912 3.716 3.716 0 00-.374-1.332 3.502 3.502 0 00-.744-1.301 2.922 2.922 0 00-.533-.221 5.254 5.254 0 01-1.435-.716 5.55 5.55 0 01-.935-.941 3.23 3.23 0 00-.364-.402 7.102 7.102 0 00-3.209-1.247 14.363 14.363 0 00-2.709-.333h-.001z"/>
</svg>
