<svg xmlns="http://www.w3.org/2000/svg" fill="none" viewBox="0 0 500 500">
  <path fill="#000" d="M196.4 123.7h-5.9c0-1.475 0-5.9-11.8-5.9v-5.9c14.629 0 17.7 6.416 17.7 11.8z"/>
  <path fill="#000" d="M116.75 218.1c-28.099 0-49.681-14.228-62.404-41.144A126.439 126.439 0 0143 129.6c0-15.402 9.242-17.7 14.75-17.7h4.401a5.716 5.716 0 005.511-3.806C72.255 93.522 89.409 76.5 122.65 76.5c28.37 0 61.95 25.585 61.95 47.2h-5.9c0-17.06-28.987-41.3-56.05-41.3-30.046 0-45.368 14.797-49.357 27.47a11.67 11.67 0 01-11.142 7.93H57.75c-3.8 0-8.85 1.224-8.85 11.8a121.832 121.832 0 0010.78 44.84c11.846 25.051 31.048 37.76 57.07 37.76a61.14 61.14 0 0017.405-1.699c1.631-.39 3.369-.806 5.691-1.207l1.008 5.812c-2.174.377-3.802.767-5.327 1.133a66.723 66.723 0 01-18.777 1.861zM214.1 126.65a8.03 8.03 0 01-6.549-2.301 8.024 8.024 0 01-2.301-6.549h5.9c0 2.602.59 2.95 2.95 2.95v5.9z"/>
  <path fill="#000" d="M99.05 165c-11.384 0-20.65-7.938-20.65-17.7s-9.266-17.7-20.65-17.7c-5.711 0-8.85 2.215-8.85 2.95H43c0-5.045 6.34-8.85 14.75-8.85 14.64 0 26.55 10.588 26.55 23.6 0 6.508 6.617 11.8 14.75 11.8 7.994 0 14.75-4.053 14.75-8.85h5.9c0 8.26-9.071 14.75-20.65 14.75z"/>
  <path fill="#000" d="M161.929 224H161c-26.367 0-31.565-25.175-34.686-40.22a42.985 42.985 0 00-3.169-11.243C119.033 166.372 104.36 165 99.05 165v-5.9c2.274 0 22.42.295 29.004 10.163a42 42 0 014.036 13.322c3.103 14.989 7.348 35.515 28.91 35.515h.929a14.736 14.736 0 0014.31-11.172l2.549-10.192a2.947 2.947 0 011.133-1.678c20.429-14.783 31.229-38.442 31.229-68.408v-2.95a2.951 2.951 0 012.95-2.95c9.331 0 11.331-6.522 11.717-15.706-1.018.273-2.056.47-3.103.59a18.048 18.048 0 01-14.122-4.425 18.586 18.586 0 01-6.248-12.708 16.15 16.15 0 00-12.154 9.953 5.6 5.6 0 00.059 5.552A3.867 3.867 0 00193.45 106a2.949 2.949 0 012.085 5.036l-5.9 5.9-4.171-4.172 2.602-2.602a10.415 10.415 0 01-2.835-3.038 11.543 11.543 0 01-.321-11.293c4.457-8.912 11.301-13.431 20.34-13.431a2.95 2.95 0 012.95 2.95v1.97a12.69 12.69 0 004.292 9.478 12.02 12.02 0 009.505 2.983 7.734 7.734 0 004.764-1.77 2.953 2.953 0 013.218-.641 2.948 2.948 0 011.821 2.73c0 8.732 0 24.541-14.75 26.373v.177c0 31.515-11.337 56.572-32.795 72.549l-2.295 9.145A20.616 20.616 0 01161.929 224zM91.363 129.6a4.069 4.069 0 01-2.95-1.18c-1.974-1.974-1.416-5.396 1.321-8.13 2.738-2.735 6.157-3.295 8.13-1.322 1.974 1.974 1.416 5.396-1.321 8.13a7.635 7.635 0 01-5.18 2.502z"/>
  <path fill="#000" d="M124.715 210.389a65.434 65.434 0 01-42.863-15.677C63.355 179.19 51.85 153.109 51.85 126.65h5.9c0 24.762 10.688 49.109 27.892 63.543a60.88 60.88 0 0051.245 13.204l1.026 5.806a75.75 75.75 0 01-13.198 1.186z"/>
  <path fill="#000" d="M134.45 200.4a70.212 70.212 0 01-49.265-19.638C71.099 167.08 63.65 148.368 63.65 126.65h5.9c0 44.545 32.648 67.85 64.9 67.85v5.9z"/>
  <path fill="#000" d="M131.5 188.6c-18.14 0-41.3-14.889-41.3-26.55h5.9c0 6.322 18.139 20.65 35.4 20.65v5.9zM116.75 70.6c-6.089 0-8.85-11.316-8.85-14.75a8.849 8.849 0 0115.108-6.258 8.853 8.853 0 012.592 6.258c0 3.434-2.761 14.75-8.85 14.75zm0-17.7a2.95 2.95 0 00-2.95 2.95 18.27 18.27 0 002.95 8.6 18.27 18.27 0 002.95-8.6 2.951 2.951 0 00-2.95-2.95zM133.61 67.65a4.962 4.962 0 01-3.664-1.404c-1.738-1.735-1.859-4.478-.36-8.148a19.787 19.787 0 013.661-5.92 7.799 7.799 0 0110.773 0 7.625 7.625 0 011.652 2.47 7.63 7.63 0 010 5.83 7.624 7.624 0 01-1.652 2.47 19.794 19.794 0 01-5.921 3.66c-1.416.632-2.94.986-4.489 1.042zm5.015-11.8a1.718 1.718 0 00-1.216.505 15.21 15.21 0 00-2.817 5.245 15.214 15.214 0 005.245-2.818 1.704 1.704 0 00.007-2.426 1.728 1.728 0 00-1.211-.506h-.008zM99.893 67.65a12.095 12.095 0 01-4.49-1.041 19.8 19.8 0 01-5.92-3.661 7.614 7.614 0 010-10.774 7.8 7.8 0 0110.77 0 19.786 19.786 0 013.661 5.921c1.499 3.67 1.378 6.413-.363 8.15a4.94 4.94 0 01-3.658 1.404v.001zm-5.014-11.8a1.729 1.729 0 00-1.73 1.717 1.712 1.712 0 00.505 1.215A15.259 15.259 0 0098.9 61.6a15.213 15.213 0 00-2.817-5.245 1.71 1.71 0 00-1.215-.505h.011zM361.688 164.5c-.344 0-.662 0-.98-.027-10.157-.487-17.582-8.918-17.582-20.041v-3.135a5.482 5.482 0 015.259-5.672h.268a5.295 5.295 0 014.874 3.552c.649 1.67 1.371 2.635 1.974 2.635v4.126c-2.502 0-4.462-1.774-5.821-5.276a1.248 1.248 0 00-1.027-.912h-.268a1.417 1.417 0 00-1.134 1.547v3.135c0 8.988 5.638 15.539 13.711 15.924.274.021.493.021.726.019v4.125zM448.312 164.5v-4.125c.236 0 .454 0 .671-.014 8.128-.398 13.767-6.941 13.767-15.929v-3.135a1.417 1.417 0 00-1.134-1.547h-.269a1.247 1.247 0 00-1.031.903c-1.355 3.511-3.314 5.285-5.816 5.285v-4.126c.602 0 1.324-.965 1.976-2.644a5.296 5.296 0 014.871-3.543h.269a5.48 5.48 0 015.259 5.672v3.135c0 11.123-7.425 19.554-17.638 20.045-.262.023-.58.023-.925.023z"/>
  <path fill="#000" d="M438 214h-4.125c-14.751 0-23.871-5.156-28.875-16.552C399.996 208.844 390.876 214 376.125 214H372a20.645 20.645 0 01-14.577-6.048 20.645 20.645 0 01-6.048-14.577v-2.722a5.536 5.536 0 015.528-5.528h.288a5.551 5.551 0 015.093 3.395c.971 2.205 2.739 4.855 5.591 4.855 4.488 0 6.233-6.627 6.249-6.693.224-.943.381-1.901.471-2.867.027-.247.056-.497.086-.748a25.951 25.951 0 01-10.931 2.058h-6.188A18.58 18.58 0 01339 166.562v-4.784a5.536 5.536 0 015.528-5.528h.288a5.551 5.551 0 015.093 3.395c.971 2.205 2.739 4.855 5.591 4.855a4.663 4.663 0 003.345-1.444 41.611 41.611 0 01-5.362-19.082v-.027a60.161 60.161 0 01-.045-2.135C353.438 114.152 375.96 82 405 82s51.562 32.152 51.562 59.812c0 .724-.02 1.424-.043 2.127a41.67 41.67 0 01-5.362 19.109 4.667 4.667 0 003.343 1.452c2.852 0 4.62-2.65 5.6-4.874a5.542 5.542 0 015.084-3.376h.288a5.536 5.536 0 015.528 5.528v4.784a18.581 18.581 0 01-18.562 18.563h-6.188a25.94 25.94 0 01-10.931-2.063c.031.252.06.502.086.749.09.966.248 1.925.471 2.869.016.068 1.761 6.695 6.249 6.695 2.852 0 4.62-2.65 5.6-4.874a5.542 5.542 0 015.084-3.376h.288a5.536 5.536 0 015.528 5.528v2.722a20.645 20.645 0 01-6.048 14.577A20.645 20.645 0 01438 214zm-33-24.75a2.064 2.064 0 011.982 1.497c3.832 13.409 11.874 19.128 26.893 19.128H438a16.52 16.52 0 0016.5-16.5v-2.722a1.408 1.408 0 00-.411-.992 1.408 1.408 0 00-.992-.411h-.288a1.417 1.417 0 00-1.302.895c-2.093 4.75-5.422 7.355-9.382 7.355-7.71 0-10.15-9.411-10.251-9.813a24.948 24.948 0 01-.567-3.404 8.738 8.738 0 00-1.237-4.236 2.065 2.065 0 01.257-2.529 2.062 2.062 0 012.517-.358A23.211 23.211 0 00446.25 181h6.188a14.456 14.456 0 0014.437-14.438v-4.784a1.408 1.408 0 00-.411-.992 1.408 1.408 0 00-.992-.411h-.288a1.417 1.417 0 00-1.302.895c-2.093 4.75-5.422 7.355-9.382 7.355a9.263 9.263 0 01-7.534-4.125 2.058 2.058 0 01-.103-2.304l.162-.266c.11-.173.221-.353.322-.53a37.514 37.514 0 005.051-17.608c.019-.633.04-1.293.04-1.971 0-31.371-25.501-55.696-47.438-55.696s-47.438 24.325-47.438 55.687c0 .675.019 1.331.042 1.985a37.48 37.48 0 005.036 17.574c.114.206.225.378.334.551l.163.266a2.066 2.066 0 01-.103 2.312 9.265 9.265 0 01-7.534 4.125c-3.96 0-7.289-2.605-9.374-7.336a1.421 1.421 0 00-1.31-.914h-.288a1.408 1.408 0 00-.992.411c-.263.263-.41.62-.411.992v4.784A14.456 14.456 0 00357.562 181h6.188a23.215 23.215 0 0013.406-3.844c.4-.231.864-.32 1.32-.255a2.066 2.066 0 011.762 1.833c.046.458-.062.919-.308 1.309a8.738 8.738 0 00-1.237 4.236c-.11 1.148-.3 2.286-.567 3.408-.101.402-2.541 9.813-10.251 9.813-3.96 0-7.289-2.605-9.374-7.336a1.421 1.421 0 00-1.31-.914h-.288a1.408 1.408 0 00-.992.411c-.263.263-.41.62-.411.992v2.722a16.52 16.52 0 0016.5 16.5h4.125c15.019 0 23.061-5.719 26.893-19.128A2.065 2.065 0 01405 189.25z"/>
  <path fill="#000" d="M420.263 129.438h-.05a2.861 2.861 0 01-2.04-.854 2.802 2.802 0 01-.798-1.984 5.361 5.361 0 011.718-3.659 4.958 4.958 0 013.69-1.753 2.853 2.853 0 012.04.853c.517.528.803 1.239.798 1.978a5.361 5.361 0 01-1.718 3.659l-.031.029a5.4 5.4 0 01-3.609 1.731zM389.738 129.438a5.396 5.396 0 01-3.606-1.721l-.031-.028a5.367 5.367 0 01-1.726-3.663 2.856 2.856 0 01.858-2.038 2.797 2.797 0 011.98-.794h.049a6.034 6.034 0 015.363 5.406 2.855 2.855 0 01-.858 2.037 2.797 2.797 0 01-1.98.794l-.049.007zM405 145.938c-6.825 0-12.375-4.627-12.375-10.313h4.125c0 3.411 3.7 6.187 8.25 6.187s8.25-2.776 8.25-6.187h4.125c0 5.686-5.55 10.313-12.375 10.313zM431.416 112.938a7.718 7.718 0 01-2.427-.429 14.753 14.753 0 01-5.524-3.597 14.76 14.76 0 01-3.597-5.524c-.421-.927-.567-1.955-.421-2.963a5.318 5.318 0 011.246-2.721 5.316 5.316 0 015.685-.825 14.742 14.742 0 015.523 3.597 14.75 14.75 0 013.597 5.523c.421.927.567 1.956.421 2.963a5.319 5.319 0 01-1.246 2.722 4.455 4.455 0 01-3.257 1.254zm-7.458-12.375a.684.684 0 00-.348.066c-.231.371.128 2.724 2.772 5.362 2.644 2.638 4.96 2.999 5.375 2.762.233-.413-.143-2.75-2.764-5.363a8.377 8.377 0 00-5.035-2.827zM439.031 123.25a5.166 5.166 0 01-4.764-3.183 5.157 5.157 0 114.764 3.183zm0-6.187a1.034 1.034 0 00-.953.636 1.03 1.03 0 10.953-.636zM362.453 454.344a21.953 21.953 0 01-14.956-5.597 28.917 28.917 0 00-37.312 0 22.763 22.763 0 01-29.913 0 28.885 28.885 0 00-37.312 0 21.926 21.926 0 01-14.925 5.597 21.77 21.77 0 01-14.832-5.597 27.98 27.98 0 00-18.656-6.841 3.11 3.11 0 000 6.219 21.765 21.765 0 0114.956 5.597 27.986 27.986 0 0018.656 6.84 27.985 27.985 0 0018.656-6.84 22.727 22.727 0 0129.913 0 28.917 28.917 0 0037.312 0 22.759 22.759 0 0129.943 0 27.982 27.982 0 0018.47 6.84 3.11 3.11 0 100-6.218zM362.453 426.359a21.953 21.953 0 01-14.956-5.597 28.917 28.917 0 00-37.312 0 22.758 22.758 0 01-29.913 0 28.889 28.889 0 00-37.312 0 21.916 21.916 0 01-14.925 5.597 21.766 21.766 0 01-14.832-5.597 27.985 27.985 0 00-18.656-6.84 3.11 3.11 0 100 6.219 21.764 21.764 0 0114.956 5.596 27.982 27.982 0 0018.656 6.841 27.98 27.98 0 0018.656-6.841 22.732 22.732 0 0129.913 0 28.918 28.918 0 0037.312 0 22.764 22.764 0 0129.943 0 27.988 27.988 0 0018.47 6.841 3.11 3.11 0 000-6.219zM362.453 398.375a21.953 21.953 0 01-14.956-5.597 28.917 28.917 0 00-37.312 0 22.764 22.764 0 01-29.913 0 28.885 28.885 0 00-37.312 0 21.926 21.926 0 01-14.925 5.597 21.766 21.766 0 01-14.832-5.597 27.985 27.985 0 00-18.656-6.841 3.11 3.11 0 000 6.219 21.77 21.77 0 0114.956 5.597 27.987 27.987 0 0018.656 6.841 27.985 27.985 0 0018.656-6.841 22.733 22.733 0 0129.913 0 28.917 28.917 0 0037.312 0 22.759 22.759 0 0129.943 0 27.988 27.988 0 0018.47 6.841 3.11 3.11 0 000-6.219zM246.256 342.624l-31.094 12.438a3.105 3.105 0 00-1.961 2.848 3.11 3.11 0 004.262 2.935l29.943-11.909 11.691 5.908h-8.582a3.11 3.11 0 000 6.219h31.094a3.11 3.11 0 000-6.219h-8.582l11.909-5.939 32.96 11.971a3.115 3.115 0 002.419-.059 3.105 3.105 0 001.645-1.776 3.106 3.106 0 00-.878-3.398 3.115 3.115 0 00-1.072-.613l-34.203-12.437a3.107 3.107 0 00-2.457 0l-17.288 8.768-17.257-8.644a3.106 3.106 0 00-2.549-.093zM358.286 304.907a3.105 3.105 0 004.064-1.835 3.11 3.11 0 00-1.949-4.01l-34.203-12.438a3.108 3.108 0 00-2.457 0l-17.257 8.769-17.257-8.613a3.113 3.113 0 00-2.549 0l-31.094 12.437a3.114 3.114 0 00-1.741 4.042 3.11 3.11 0 004.042 1.742l29.943-12.034 11.691 5.908h-8.582a3.11 3.11 0 000 6.219h31.094a3.11 3.11 0 000-6.219h-8.582l11.909-5.939 32.928 11.971z"/>
</svg>
