<svg xmlns="http://www.w3.org/2000/svg" fill="none" viewBox="0 0 500 500">
  <g fill="#000" clip-path="url(#clip0)">
    <path d="M109.5 153.5a5.921 5.921 0 01-4.863-2.538l-4.032-5.643a6.385 6.385 0 01-.469-6.652 6.002 6.002 0 015.333-3.308h8.063a6.006 6.006 0 015.333 3.31 6.376 6.376 0 01-.47 6.652l-4.031 5.643a5.922 5.922 0 01-4.864 2.536zm-4.031-14.109a1.97 1.97 0 00-1.749 1.122 2.36 2.36 0 00.167 2.463l4.031 5.644a1.96 1.96 0 003.165 0l4.031-5.644a2.36 2.36 0 00.167-2.463 1.964 1.964 0 00-.715-.81 1.958 1.958 0 00-1.034-.312h-8.063z"/>
    <path d="M114.429 161.224l-4.928-3.29-4.929 3.286-2.237-3.354 6.047-4.031a2.014 2.014 0 012.237 0l6.047 4.031-2.237 3.358zM122.4 137.375a2.778 2.778 0 01-2.015-.806c-1.347-1.347-.968-3.683.901-5.553a6.063 6.063 0 012.324-1.502 3.052 3.052 0 013.225.605c1.346 1.346.967 3.682-.901 5.553a6.056 6.056 0 01-2.324 1.501c-.39.132-.798.2-1.21.202zM96.61 137.375a3.831 3.831 0 01-1.22-.202 6.04 6.04 0 01-2.326-1.497c-1.868-1.871-2.247-4.207-.898-5.555a3.044 3.044 0 013.225-.607c.88.313 1.676.825 2.326 1.498 1.87 1.87 2.249 4.206.9 5.555a2.766 2.766 0 01-.921.607 2.765 2.765 0 01-1.086.201z"/>
    <path d="M111.516 151.484h-4.032v4.032h4.032v-4.032zM129.656 218h-12.093a6.121 6.121 0 01-4.519-1.842 5.75 5.75 0 01-1.524-4.32c.004-.072.012-.144.024-.216l4.031-24.187 3.975.661-4.003 24.059a1.693 1.693 0 00.433 1.227 2.167 2.167 0 001.583.587h12.093c1.073 0 1.889-1.181 2.032-2.276l8.087-38.452 3.947.83-8.063 38.297a6.332 6.332 0 01-6.003 5.632z"/>
    <path d="M151.828 218h-22.172v-4.031h22.172a2.015 2.015 0 000-4.031h-4.801a4.034 4.034 0 01-4.034-3.858 4.038 4.038 0 01.428-1.988l5.68-11.358a5.875 5.875 0 00.633-3.07c-.605-7.891-4.521-7.937-5.993-7.955h-4.007v-4.021h4.032c3.412.042 9.211 1.612 9.989 11.676a9.94 9.94 0 01-1.046 5.18l-5.682 11.362h4.801a6.047 6.047 0 110 12.094zM101.437 218H89.344a6.398 6.398 0 01-6.031-5.787l-8.036-38.142 3.946-.83 8.063 38.297c.167 1.25.983 2.431 2.058 2.431h12.093a2.157 2.157 0 001.589-.581 1.695 1.695 0 00.427-1.233l-4.003-24.059 3.975-.661 4.031 24.187c.012.072.02.144.024.216a5.743 5.743 0 01-1.524 4.32 6.116 6.116 0 01-4.519 1.842z"/>
    <path d="M89.344 218H67.172a6.047 6.047 0 110-12.094h4.801l-5.682-11.36a9.949 9.949 0 01-1.046-5.182c.778-10.064 6.577-11.634 9.965-11.676h4.056v4.031h-4.032c-1.447.018-5.36.064-5.968 7.955a5.89 5.89 0 00.633 3.072l5.68 11.356a4.034 4.034 0 01-1.642 5.325 4.03 4.03 0 01-1.964.511h-4.801a2.015 2.015 0 100 4.031h22.172V218zM109.5 167.609c-21.198 0-34.705-7.47-36.128-19.983-.1-.725-.151-1.456-.153-2.189a17.818 17.818 0 014.82-11.69 10.211 10.211 0 002.54-5.261l.993-5.559c1.023-7.041 8.13-15.339 15.197-17.693a1.989 1.989 0 011.814.274 2.01 2.01 0 01.839 1.632c0 5.803.738 8.399 2.016 9.45v-5.418a2.016 2.016 0 013.783-.968c.056.099 5.182 9.288 12.341 10.828v-5.829c0-.423.134-.835.381-1.179a2.014 2.014 0 013.248-.03 16.082 16.082 0 0012.497 5.24c.41 0 .812.126 1.148.361 2.635 1.826 2.798 2.955 2.861 3.378l.737 5.602a10.136 10.136 0 002.528 5.172 17.832 17.832 0 014.819 11.69 16.598 16.598 0 01-.157 2.217c-1.419 12.485-14.926 19.955-36.124 19.955zm-14.05-57.352c-4.754 2.797-9.212 8.576-9.9 13.303l-1.007 5.623a14.061 14.061 0 01-3.604 7.347 13.785 13.785 0 00-3.689 8.907c.003.568.044 1.135.123 1.697 1.173 10.31 13.18 16.444 32.127 16.444 18.947 0 30.954-6.134 32.123-16.409.081-.574.123-1.152.127-1.732a13.797 13.797 0 00-3.695-8.903 14.049 14.049 0 01-3.604-7.345l-.697-5.285a8.084 8.084 0 00-.744-.639 21.069 21.069 0 01-11.416-3.591v3.591a2.017 2.017 0 01-2.016 2.016c-6.083 0-10.983-4.156-14.109-7.798v1.751a2.015 2.015 0 01-2.016 2.016c-6.5 0-7.76-6.194-8.004-10.993z"/>
    <path d="M109.5 189.781a2.016 2.016 0 01-1.425-.59l-8.34-8.341-2.667 4.003a1.995 1.995 0 01-2.072.857c-8.31-1.661-17.603-9.474-21.426-12.977l-2.705 4.057a2.013 2.013 0 01-2.42.754c-8.715-3.485-8.517-15.2-7.822-21.079l-2.892.961a2.016 2.016 0 01-2.653-1.91 58.404 58.404 0 012.905-20.157h-2.905a2.018 2.018 0 01-1.955-2.503c3.066-12.267 8.405-18.969 11.134-21.747l-2.541-2.543a2.017 2.017 0 01-.15-2.685 29.573 29.573 0 0119.01-10.606l-1.21-3.629A2.014 2.014 0 0181.282 89c9.456-.06 18.899.711 28.219 2.304A161.501 161.501 0 01137.719 89a2.014 2.014 0 011.913 2.653l-1.21 3.628a29.575 29.575 0 0119.01 10.606 2.014 2.014 0 01-.149 2.685l-2.542 2.543c2.731 2.778 8.062 9.474 11.134 21.747a2.014 2.014 0 01-1.953 2.497h-2.904a58.403 58.403 0 012.904 20.157c0 .319-.076.633-.222.917a2.023 2.023 0 01-1.49 1.074c-.315.048-.638.02-.941-.081l-2.892-.961c.695 5.879.893 17.594-7.815 21.079a2.014 2.014 0 01-2.418-.754l-2.705-4.057c-3.83 3.497-13.116 11.316-21.426 12.977a2.004 2.004 0 01-2.072-.857l-2.667-4.003-8.341 8.341a2.007 2.007 0 01-1.433.59zm-10.078-14.109c.535 0 1.047.212 1.425.59l8.653 8.653 8.653-8.653a2.02 2.02 0 012.463-.303c.255.154.474.362.639.61l3.249 4.874c9.103-2.587 19.742-13.132 19.852-13.243a2.057 2.057 0 011.625-.581 2.028 2.028 0 011.477.887l3.024 4.533c6.53-4.543 3.447-18.946 3.41-19.104a2.02 2.02 0 01.62-1.932 2.022 2.022 0 011.987-.414l3.351 1.115c-.415-13.043-3.628-18.203-3.66-18.258a2.02 2.02 0 01.654-2.833 2.014 2.014 0 011.031-.285h3.409c-3.931-13.269-10.601-18.495-10.683-18.544a2.009 2.009 0 01-.202-3.023l2.707-2.709a26.082 26.082 0 00-17.403-7.974 2.013 2.013 0 01-1.993-1.711 2.03 2.03 0 01.08-.942l1.125-3.374c-8.4.075-16.779.838-25.054 2.284a2.065 2.065 0 01-.722 0 153.44 153.44 0 00-25.054-2.284l1.125 3.374a2.015 2.015 0 01-1.913 2.653 26.32 26.32 0 00-17.407 7.96l2.707 2.709a2.017 2.017 0 01-.216 3.037c-.064.049-6.734 5.275-10.664 18.544h3.408a2.012 2.012 0 011.778 1.065 2.014 2.014 0 01-.1 2.069c-.027.039-3.236 5.199-3.651 18.242l3.352-1.115a2.01 2.01 0 011.986.414 2.017 2.017 0 01.62 1.932c-.036.155-3.12 14.561 3.41 19.104l3.024-4.533a2.009 2.009 0 012.354-.777c.28.101.536.261.748.471.11.111 10.75 10.656 19.852 13.243l3.25-4.874a2.014 2.014 0 011.477-.887c.066-.01.13-.01.197-.01z"/>
    <path d="M126.835 149.066l-2.419-3.225a35.443 35.443 0 0119.35-6.45v4.031a31.663 31.663 0 00-16.931 5.644zM126.373 155.372l-1.498-3.745a65.874 65.874 0 0118.79-4.122l.202 4.032a62.673 62.673 0 00-17.494 3.835zM92.166 149.066a31.842 31.842 0 00-16.932-5.644v-4.031a35.444 35.444 0 0119.35 6.45l-2.418 3.225zM92.627 155.372a62.707 62.707 0 00-17.493-3.839l.201-4.032a65.867 65.867 0 0118.79 4.122l-1.498 3.749zM143.766 123.266a2.018 2.018 0 01-1.411-.587l-12.094-12.023a2.018 2.018 0 01-.048-2.806 15.386 15.386 0 0110.507-4.741 8.953 8.953 0 016.652 2.558c4.456 4.535 2.344 12.358-2.167 16.994a2.03 2.03 0 01-1.429.605h-.01zm-9.131-13.951l8.987 8.948c2.242-3.225 3.115-7.502.885-9.774a4.904 4.904 0 00-3.741-1.348 11.168 11.168 0 00-6.137 2.174h.006z"/>
    <path d="M138.309 118.644c-1.955-1.956-1.136-5.543.783-7.886a7.025 7.025 0 019.824-1.263l-2.238 3.354a3.009 3.009 0 00-1.901-.772 3.01 3.01 0 00-1.953.629 3.983 3.983 0 00-1.171 1.424 3.981 3.981 0 00-.401 1.801l-2.943 2.713zM149.812 129.312h-4.031a7.274 7.274 0 00-2.941-6.143l-.5-.494 2.85-2.85.474.468a11.185 11.185 0 014.148 9.019zM75.267 123.266h-.016a2.024 2.024 0 01-1.43-.605c-4.51-4.636-6.627-12.453-2.174-16.988a8.893 8.893 0 016.66-2.564c3.983.16 7.75 1.86 10.505 4.741a2.016 2.016 0 01-.048 2.806l-12.076 12.023a2.014 2.014 0 01-1.421.587zm2.902-16.125a4.896 4.896 0 00-3.646 1.348c-2.227 2.272-1.354 6.557.887 9.774l8.986-8.947a11.163 11.163 0 00-6.138-2.175h-.089z"/>
    <path d="M80.717 118.644l-2.85-2.85a.416.416 0 00-.093.127 3.977 3.977 0 00-1.572-3.225 2.992 2.992 0 00-1.954-.63 2.997 2.997 0 00-1.902.773l-2.235-3.354a7.023 7.023 0 019.824 1.264c1.919 2.352 2.735 5.94.782 7.895zM73.245 129.312h-4.031a11.194 11.194 0 014.146-9.019l.476-.468 2.85 2.85-.5.494a7.254 7.254 0 00-2.941 6.143zM153.844 218h-2.016v-4.031h2.016a10.089 10.089 0 0010.078-10.078v-16.125h4.031v16.125A14.125 14.125 0 01153.844 218z"/>
    <path d="M165.938 189.781c-2.341 0-8.063-2.822-8.063-8.062 0-4.165 4.819-12.094 8.063-12.094 3.243 0 8.062 7.929 8.062 12.094 0 5.24-5.722 8.062-8.062 8.062zm0-15.861a14.782 14.782 0 00-4.032 7.799c0 2.533 3.36 3.995 4.044 4.031.659-.036 4.019-1.498 4.019-4.031a14.788 14.788 0 00-4.031-7.799zM115.547 215.984a8.865 8.865 0 01-6.047-3.197 8.866 8.866 0 01-6.047 3.197v-4.031c1.21 0 2.62-1.433 4.132-2.949l.49-.492a2.016 2.016 0 012.85 0l.49.492c1.512 1.516 2.922 2.949 4.132 2.949v4.031z"/>
  </g>
  <mask id="a" fill="#fff">
    <path d="M427.561 464.457a61.58 61.58 0 00-38.304-20.028c-9.789-1.174-19.914.402-30.089 4.686-11.035 4.645-20.392 12.643-31.978 16.096-11.907 3.547-23.685-.581-31.503-11.042a33.966 33.966 0 01-2.63-4.102c-5.787-10.558-5.696-23.09-5.618-34.145l.012-1.428a3.737 3.737 0 011.099-2.65 3.74 3.74 0 012.652-1.095l31.955.05a14.89 14.89 0 01-2-7.465v-12.666l-17.05 8.525-3.35-6.699 22.47-11.235a3.739 3.739 0 013.644.164 3.738 3.738 0 011.776 3.185v18.726a7.503 7.503 0 007.491 7.49 3.746 3.746 0 013.745 3.745v7.923a10.24 10.24 0 003.745-7.923 3.742 3.742 0 013.745-3.745 3.746 3.746 0 013.745 3.745v7.923a10.24 10.24 0 003.745-7.923 3.746 3.746 0 017.49 0v7.923a10.234 10.234 0 003.746-7.923v-3.745a7.498 7.498 0 00-7.491-7.49h-18.725a3.746 3.746 0 01-3.745-3.745v-21.587a8.378 8.378 0 00-7.998-8.366 8.383 8.383 0 00-4.122.876l-27.402 13.701-3.35-6.699 27.402-13.701a15.855 15.855 0 017.808-1.659 15.854 15.854 0 0113.144 8.123 15.862 15.862 0 012.008 7.725v17.842h12.196l17.765-15.351v-22.1h7.49v28.575l16.694 19.477a12.54 12.54 0 009.522 4.379 3.746 3.746 0 013.745 3.745v7.923a10.24 10.24 0 003.745-7.923 3.746 3.746 0 017.49 0v7.923a10.216 10.216 0 003.745-7.923 3.746 3.746 0 017.491 0v7.923a10.24 10.24 0 003.745-7.923v-3.745a7.5 7.5 0 00-7.49-7.49h-22.471a3.745 3.745 0 01-2.925-1.404l-14.98-18.726a3.744 3.744 0 01-.821-2.341v-29.961h7.491v10.175l23.446-20.259 39.593-53.963-1.644-3.287-25.041 25.041-5.297-5.296 26.805-26.806-.253-.507h-35.551a3.75 3.75 0 00-2.784 1.239l-21.323 23.681a51.095 51.095 0 01-26.625 15.769c-34.139 7.832-63.667 24.975-83.147 48.272-12.236 14.631-19.254 32.521-19.254 49.084v.524c.019 9.472.448 21.751 3.624 32.66 3.675 12.653 10.659 22.2 21.35 29.188 18.153 11.857 40.735 12.109 56.193.629 7.788-5.787 14.908-12.546 23.638-16.956 16.775-8.473 38.217-5.45 53.354 7.522l8.819 7.55a1.922 1.922 0 002.668-.155 2.037 2.037 0 00-.099-2.708l-6.971-7.842zm-3.413-180.967a5.62 5.62 0 015.51 6.714 5.613 5.613 0 01-1.538 2.876 5.613 5.613 0 01-6.122 1.218 5.616 5.616 0 01-1.821-9.161 5.63 5.63 0 013.971-1.647zm-16.853 22.471a7.49 7.49 0 11-7.49 7.49 7.5 7.5 0 017.49-7.49zm-16.839 15.474l3.716 6.503-52.431 29.961-3.716-6.503 52.431-29.961zm46.8 107.604v4.256h-63.667v-7.49h29.961v-7.491h-30.367a17.696 17.696 0 01-7.494 11.016l-5.003 3.336a3.741 3.741 0 01-5.823-3.116v-.501c-.135.094-.271.188-.409.281l-5.003 3.336a3.741 3.741 0 01-5.823-3.116v-.501a32.67 32.67 0 01-.41.281l-5.003 3.336a3.736 3.736 0 01-1.896.624 3.74 3.74 0 01-3.394-1.816 3.744 3.744 0 01-.532-1.924v-11.236h-37.476c-.044 9.129.182 18.389 3.749 26.216h52.672a70.703 70.703 0 014.924-2.319c11.388-4.794 22.79-6.551 33.886-5.22a68.086 68.086 0 0123.931 7.539h45.648v-11.235h-14.981v-7.49h14.981v-7.491H444.34a17.686 17.686 0 01-7.084 10.725zm-112.354 4.256h-22.47v-7.49h22.47v7.49zm119.844-29.961a7.498 7.498 0 017.49 7.49h-7.49a14.884 14.884 0 00-2.015-7.49h2.015zm-187.22 14.98c.122 7.929.664 17.238 2.669 26.216H250v-26.216h7.526zm46.114 33.706h34.546c-4.33 2.471-8.59 4.657-13.136 6.013-7.968 2.373-15.624.18-21.41-6.013zm70.85-61.229l17.172 20.033h-18.073a15 15 0 00-8.196-13.349l8.601-7.433c.135.268.302.52.496.749zm29.06-26.287v12.614c0 .876.307 1.724.868 2.397l13.607 16.329h-8.93l-13.035-16.295v-8.573l7.49-6.472z"/>
  </mask>
  <path stroke="#000" stroke-width="6" d="M427.561 464.457a61.58 61.58 0 00-38.304-20.028c-9.789-1.174-19.914.402-30.089 4.686-11.035 4.645-20.392 12.643-31.978 16.096-11.907 3.547-23.685-.581-31.503-11.042a33.966 33.966 0 01-2.63-4.102c-5.787-10.558-5.696-23.09-5.618-34.145l.012-1.428a3.737 3.737 0 011.099-2.65 3.74 3.74 0 012.652-1.095l31.955.05a14.89 14.89 0 01-2-7.465v-12.666l-17.05 8.525-3.35-6.699 22.47-11.235a3.739 3.739 0 013.644.164 3.738 3.738 0 011.776 3.185v18.726a7.503 7.503 0 007.491 7.49 3.746 3.746 0 013.745 3.745v7.923a10.24 10.24 0 003.745-7.923 3.742 3.742 0 013.745-3.745 3.746 3.746 0 013.745 3.745v7.923a10.24 10.24 0 003.745-7.923 3.746 3.746 0 017.49 0v7.923a10.234 10.234 0 003.746-7.923v-3.745a7.498 7.498 0 00-7.491-7.49h-18.725a3.746 3.746 0 01-3.745-3.745v-21.587a8.378 8.378 0 00-7.998-8.366 8.383 8.383 0 00-4.122.876l-27.402 13.701-3.35-6.699 27.402-13.701a15.855 15.855 0 017.808-1.659 15.854 15.854 0 0113.144 8.123 15.862 15.862 0 012.008 7.725v17.842h12.196l17.765-15.351v-22.1h7.49v28.575l16.694 19.477a12.54 12.54 0 009.522 4.379 3.746 3.746 0 013.745 3.745v7.923a10.24 10.24 0 003.745-7.923 3.746 3.746 0 017.49 0v7.923a10.216 10.216 0 003.745-7.923 3.746 3.746 0 017.491 0v7.923a10.24 10.24 0 003.745-7.923v-3.745a7.5 7.5 0 00-7.49-7.49h-22.471a3.745 3.745 0 01-2.925-1.404l-14.98-18.726a3.744 3.744 0 01-.821-2.341v-29.961h7.491v10.175l23.446-20.259 39.593-53.963-1.644-3.287-25.041 25.041-5.297-5.296 26.805-26.806-.253-.507h-35.551a3.75 3.75 0 00-2.784 1.239l-21.323 23.681a51.095 51.095 0 01-26.625 15.769c-34.139 7.832-63.667 24.975-83.147 48.272-12.236 14.631-19.254 32.521-19.254 49.084v.524c.019 9.472.448 21.751 3.624 32.66 3.675 12.653 10.659 22.2 21.35 29.188 18.153 11.857 40.735 12.109 56.193.629 7.788-5.787 14.908-12.546 23.638-16.956 16.775-8.473 38.217-5.45 53.354 7.522l8.819 7.55a1.922 1.922 0 002.668-.155 2.037 2.037 0 00-.099-2.708l-6.971-7.842zm-3.413-180.967a5.62 5.62 0 015.51 6.714 5.613 5.613 0 01-1.538 2.876 5.613 5.613 0 01-6.122 1.218 5.616 5.616 0 01-1.821-9.161 5.63 5.63 0 013.971-1.647zm-16.853 22.471a7.49 7.49 0 11-7.49 7.49 7.5 7.5 0 017.49-7.49v0zm-16.839 15.474l3.716 6.503-52.431 29.961-3.716-6.503 52.431-29.961zm46.8 107.604v4.256h-63.667v-7.49h29.961v-7.491h-30.367a17.696 17.696 0 01-7.494 11.016l-5.003 3.336a3.741 3.741 0 01-5.823-3.116v-.501c-.135.094-.271.188-.409.281l-5.003 3.336a3.741 3.741 0 01-5.823-3.116v-.501a32.67 32.67 0 01-.41.281l-5.003 3.336a3.736 3.736 0 01-1.896.624 3.74 3.74 0 01-3.394-1.816 3.744 3.744 0 01-.532-1.924v-11.236h-37.476c-.044 9.129.182 18.389 3.749 26.216h52.672a70.703 70.703 0 014.924-2.319c11.388-4.794 22.79-6.551 33.886-5.22a68.086 68.086 0 0123.931 7.539h45.648v-11.235h-14.981v-7.49h14.981v-7.491H444.34a17.686 17.686 0 01-7.084 10.725zm-112.354 4.256h-22.47v-7.49h22.47v7.49zm119.844-29.961a7.498 7.498 0 017.49 7.49h-7.49a14.884 14.884 0 00-2.015-7.49h2.015zm-187.22 14.98c.122 7.929.664 17.238 2.669 26.216H250v-26.216h7.526zm46.114 33.706h34.546c-4.33 2.471-8.59 4.657-13.136 6.013-7.968 2.373-15.624.18-21.41-6.013zm70.85-61.229l17.172 20.033h-18.073a15 15 0 00-8.196-13.349l8.601-7.433c.135.268.302.52.496.749zm29.06-26.287v12.614c0 .876.307 1.724.868 2.397l13.607 16.329h-8.93l-13.035-16.295v-8.573l7.49-6.472z" mask="url(#a)"/>
  <defs>
    <clipPath id="clip0">
      <path fill="#fff" d="M0 0h129v161.25H0z" transform="translate(45 89)"/>
    </clipPath>
  </defs>
</svg>
