<svg xmlns="http://www.w3.org/2000/svg" fill="none" viewBox="0 0 500 500">
  <g fill="#000" clip-path="url(#clip0)">
    <path d="M57.976 124a8.122 8.122 0 01-7.975-8.25c0-27.89 35.651-57.75 88.723-57.75 12.455 0 15.777 6.913 15.777 11h-5.5c0-1.903-2.148-5.5-10.277-5.5-39.363 0-83.223 21.45-83.223 52.25a2.794 2.794 0 001.375 2.475c7.497-7.425 39.14-18.975 78.375-18.975v5.5c-44.468 0-72.974 14.185-74.8 17.683A2.9 2.9 0 0157.976 124z"/>
    <path d="M65.822 129.5H63.17a8.12 8.12 0 01-7.944-8.25h5.5a2.621 2.621 0 002.458 2.75h2.651a2.156 2.156 0 001.637-.696 14.652 14.652 0 0111.332-4.804c6.325 0 45.394-4.023 57.709-8.492a2.204 2.204 0 001.314-1.323 2.146 2.146 0 00-.129-1.828c-.866-1.535-1.961-2.107-2.447-2.107v-5.5a8.775 8.775 0 017.238 4.906 7.728 7.728 0 01.491 6.455 7.723 7.723 0 01-4.589 4.567C125.296 119.93 85.503 124 78.804 124a9.136 9.136 0 00-7.21 2.926 7.658 7.658 0 01-5.772 2.574z"/>
    <path d="M190.251 234c-19.203 0-41.25-4.999-41.25-44 0-.101.006-.202.017-.303 2.332-20.966 14.041-36.071 31.771-58.937 3.962-5.11 8.219-10.61 12.762-16.66l4.4 3.3c-4.562 6.083-8.846 11.611-12.815 16.731-17.116 22.069-28.435 36.671-30.635 56.023.047 31.82 14.325 38.346 35.75 38.346 22.996 0 28.702-29.1 29.942-38.522a13.891 13.891 0 01-9.212-4.848c-15.257-17.287-2.64-78.02-1.48-83.421-.115-22.21-13.475-35.459-35.75-35.459-22.387 0-35.75 13.365-35.75 35.75h-5.5c0-25.443 15.807-41.25 41.25-41.25 25.443 0 41.25 15.807 41.25 41.25 0 .198-.021.395-.063.589-3.836 17.545-11.275 65.928.168 78.902a8.827 8.827 0 007.895 3.009 2.746 2.746 0 012.824 1.753c.143.372.203.77.176 1.168-.035.467-3.3 46.579-35.75 46.579z"/>
    <path d="M182.001 129.5c0-3.039-.99-9.798-3.979-11.292a4.336 4.336 0 01-2.599-3.225c-.385-2.492 1.568-4.4 4.037-6.795 3.397-3.301 8.041-7.822 8.041-14.438 0-11.132-2.75-22-35.75-22v-5.5c36.35 0 41.25 13.901 41.25 27.5 0 8.94-6.074 14.85-9.702 18.384a49.788 49.788 0 00-1.779 1.782c5.808 4.086 5.981 14.36 5.981 15.584h-5.5zM140.751 234c-21.043 0-46.75-19.035-46.75-41.25 0-32.59 23.147-52.25 46.75-70.702a11.49 11.49 0 01-5.5-9.048h5.5c0 2.964 4.191 5.5 5.5 5.5a2.747 2.747 0 012.604 1.858 2.75 2.75 0 01-.915 3.065c-24.91 19.371-48.439 37.672-48.439 69.327 0 14.396 17.325 35.75 41.25 35.75 15.244 0 23.818-2.351 25.025-3.608a1.353 1.353 0 00-.275.858h5.5c0 7.447-21.153 8.25-30.25 8.25z"/>
    <path d="M127.001 209.25c-17.71 0-31.9-19.569-32.485-20.402l4.471-3.199c.13.182 13.145 18.101 28.014 18.101 15.035 0 22.74-7.381 22.825-7.453l3.878 3.897c-.38.371-9.265 9.056-26.703 9.056zM160.001 96.5a11 11 0 110-22.001 11 11 0 010 22.001zm0-16.5a5.5 5.5 0 100 10.998 5.5 5.5 0 000-10.998z"/>
    <path d="M155.584 91a3.782 3.782 0 01-2.75-1.1 4.145 4.145 0 01-.825-4.4 8.255 8.255 0 012.043-3.173c2.552-2.552 5.739-3.07 7.579-1.23a4.146 4.146 0 01.825 4.4 8.255 8.255 0 01-2.043 3.174 7.128 7.128 0 01-4.829 2.33zM140.751 110.25v-5.5c28.963 0 46.75-8.008 46.75-13.75h5.5c0 12.504-26.919 19.25-52.25 19.25zM337.921 108.247a8.121 8.121 0 01-2.025-11.294c15.543-23.159 61.784-28.086 105.852 1.49 10.342 6.94 9.248 14.531 6.971 17.925l-4.567-3.065c1.06-1.58 1.281-5.764-5.468-10.294-32.686-21.936-81.057-28.566-98.221-2.991a2.796 2.796 0 00-.237 2.821c10.362-1.988 43.074 6.056 75.652 27.919l-3.065 4.567c-36.923-24.78-68.498-28.887-71.963-27a2.902 2.902 0 01-2.929-.078z"/>
    <path d="M341.371 117.186l-2.202-1.477a8.122 8.122 0 01-1.999-11.278l4.567 3.065a2.62 2.62 0 00.509 3.654l2.201 1.477c.251.176.536.297.837.355.301.057.611.05.909-.021a14.636 14.636 0 0112.088 2.326c5.252 3.525 39.934 21.956 52.65 25.107a2.198 2.198 0 001.828-.365 2.16 2.16 0 00.912-1.591c.136-1.757-.454-2.842-.858-3.113l3.065-4.567a8.775 8.775 0 013.276 8.107 7.73 7.73 0 01-6.232 6.949 7.73 7.73 0 01-3.313-.08c-13.522-3.352-48.831-22.147-54.393-25.88a9.14 9.14 0 00-7.618-1.589 7.653 7.653 0 01-6.227-1.079z"/>
    <path d="M386.456 273.296c-15.945-10.701-31.465-27.138-9.732-59.522.056-.084.117-.165.182-.242 13.62-16.109 31.761-22.127 59.224-31.234 6.138-2.034 12.738-4.229 19.881-6.721l1.815 5.192c-7.178 2.509-13.816 4.711-19.964 6.751-26.51 8.787-44.046 14.604-56.657 29.447-17.693 26.448-9.474 39.823 8.316 51.762 19.094 12.814 40.049-8.169 46.329-15.301a13.892 13.892 0 01-4.948-9.159c-3.035-22.856 41.285-66.255 45.259-70.093 12.28-18.505 8.57-36.951-9.926-49.364-18.589-12.476-37.132-8.825-49.606 9.762l-4.567-3.065c14.178-21.126 36.112-25.443 57.238-11.264 21.127 14.178 25.443 36.112 11.265 57.238-.11.164-.238.316-.38.454-12.963 12.43-46.102 48.46-43.83 65.609a8.828 8.828 0 004.879 6.898 2.75 2.75 0 01.864 4.097c-.291.368-28.697 36.838-55.642 18.755z"/>
    <path d="M437.839 181.928c1.693-2.523 4.638-8.688 2.988-11.593a4.331 4.331 0 01-.36-4.127c1.069-2.283 3.753-2.78 7.139-3.393 4.659-.847 11.035-2.013 14.722-7.507 6.203-9.243 9.976-19.8-17.425-38.189l3.065-4.567c30.182 20.256 26.505 34.53 18.927 45.821-4.982 7.424-13.32 8.946-18.301 9.858-.779.14-1.73.313-2.47.489 2.545 6.629-3.036 15.257-3.718 16.273l-4.567-3.065zM345.354 245.712c-17.473-11.727-28.211-41.858-15.831-60.304 18.161-27.061 48.336-30.486 78.217-32.655a11.497 11.497 0 01.475-10.577l4.567 3.064c-1.652 2.462.415 6.903 1.502 7.632a2.75 2.75 0 01-1.341 5.029c-31.478 2.203-61.213 4.288-78.853 30.572-8.023 11.954-5.537 39.339 14.329 52.672 12.657 8.494 21.087 11.32 22.79 10.949a1.35 1.35 0 00-.707.559l4.567 3.065c-4.15 6.184-22.161-4.937-29.715-10.006z"/>
    <path d="M347.729 217.498c-14.705-9.869-15.582-34.025-15.605-35.043l5.496-.164c.006.223.828 22.355 13.174 30.641 12.484 8.377 22.995 6.543 23.106 6.531l1.048 5.396c-.522.097-12.739 2.357-27.219-7.361zM437.961 142.267a11.002 11.002 0 01-1.632-16.928 11 11 0 111.632 16.928zm9.195-13.701a5.507 5.507 0 00-3.054-.933 5.507 5.507 0 00-5.088 3.385 5.503 5.503 0 003.993 7.507 5.498 5.498 0 004.149-9.959z"/>
    <path d="M437.358 135.239a3.767 3.767 0 01-1.67-2.446 4.149 4.149 0 011.767-4.113 8.248 8.248 0 013.465-1.497c3.541-.697 6.475.65 6.978 3.203a4.146 4.146 0 01-1.767 4.113 8.259 8.259 0 01-3.465 1.497 7.13 7.13 0 01-5.308-.757zM414.315 142.957l3.065-4.567c24.049 16.14 43.281 19.403 46.48 14.635l4.567 3.065c-6.968 10.382-33.079.983-54.112-13.133zM148.897 389.218a8.12 8.12 0 01-10.868-3.68c-12.777-24.792 5.233-67.666 52.408-91.98 11.071-5.706 17.191-1.082 19.063 2.55l-4.889 2.52c-.871-1.692-4.428-3.905-11.654-.181-34.99 18.034-64.149 57.193-50.039 84.571a2.79 2.79 0 002.356 1.57c3.262-10.034 26.099-34.798 60.974-52.772l2.519 4.889c-39.526 20.372-58.367 46.04-58.388 49.985a2.902 2.902 0 01-1.482 2.528z"/>
    <path d="M158.391 390.512l-2.356 1.215a8.12 8.12 0 01-10.842-3.694l4.889-2.52a2.62 2.62 0 003.445 1.319l2.357-1.215a2.161 2.161 0 001.135-1.368 14.642 14.642 0 017.873-9.462c5.622-2.898 38.507-24.373 47.406-33.987a2.2 2.2 0 00.562-1.778 2.158 2.158 0 00-.952-1.566c-1.473-.967-2.708-.974-3.141-.751l-2.519-4.889a8.777 8.777 0 018.681 1.045 7.736 7.736 0 013.394 5.513 7.73 7.73 0 01-1.987 6.162c-9.463 10.223-42.97 32.071-48.925 35.14a9.127 9.127 0 00-5.068 5.904 7.649 7.649 0 01-3.952 4.932z"/>
    <path d="M316.869 426.397c-17.07 8.797-38.957 14.453-56.824-20.214a2.617 2.617 0 01-.124-.276c-7.532-19.705-4.044-38.497 1.24-66.944 1.181-6.358 2.446-13.197 3.712-20.656l5.423.918c-1.269 7.497-2.545 14.373-3.726 20.743-5.104 27.457-8.476 45.623-1.566 63.832 14.619 28.264 30.301 27.523 49.345 17.708 20.441-10.535 12.181-39.016 8.967-47.959a13.89 13.89 0 01-10.41-.089c-21.481-8.376-38.089-68.142-39.532-73.475-10.277-19.688-28.222-25.345-48.022-15.14-19.9 10.256-25.655 28.258-15.4 48.155l-4.889 2.52c-11.656-22.616-4.847-43.908 17.769-55.564 22.616-11.656 43.908-4.847 55.564 17.769.091.176.162.361.214.552 4.628 17.353 20.181 63.768 36.296 70.059a8.842 8.842 0 004.319.598 8.844 8.844 0 004.078-1.541 2.753 2.753 0 013.313.265c.297.265.533.591.691.957.183.432 18.406 42.915-10.438 57.782z"/>
    <path d="M261.662 337.287c-1.392-2.701-5.369-8.256-8.71-8.213a4.342 4.342 0 01-3.788-1.677c-1.484-2.038-.623-4.629.475-7.89 1.507-4.489 3.565-10.636.534-16.517-5.1-9.895-12.524-18.296-41.857-3.178l-2.52-4.888c32.311-16.653 43.036-6.541 49.265 5.546 4.096 7.947 1.404 15.983-.201 20.786-.255.75-.562 1.666-.766 2.399 7.035.972 11.896 10.025 12.457 11.113l-4.889 2.519zM272.869 449.074c-18.705 9.64-50.276 4.497-60.453-15.249-14.931-28.969-3.362-57.049 9.165-84.264a11.493 11.493 0 01-9.034-5.523l4.889-2.52c1.358 2.636 6.245 2.969 7.408 2.37a2.748 2.748 0 013.756 3.602c-13.267 28.63-25.797 55.677-11.295 83.815 6.595 12.797 31.778 23.841 53.044 12.88 13.55-6.983 20.094-13.002 20.592-14.672-.054.305-.002.619.148.889l4.889-2.52c3.412 6.62-15.023 17.024-23.109 21.192z"/>
    <path d="M249.308 433.373c-15.742 8.113-37.32-2.78-38.223-3.253l2.51-4.891c.198.102 19.977 10.067 33.194 3.255 13.363-6.887 16.831-16.978 16.874-17.081l5.232 1.687c-.167.504-4.087 12.294-19.587 20.283zM226.988 318.033a10.996 10.996 0 01-12.144-1.38 11.007 11.007 0 01-3.469-5.363 11.006 11.006 0 013.723-11.642 11.008 11.008 0 0112.181-1.015 11 11 0 01-.291 19.4zm-7.559-14.667a5.496 5.496 0 00-2.961 5.346 5.499 5.499 0 102.961-5.346z"/>
    <path d="M220.542 315.168a3.774 3.774 0 01-2.949.282 4.147 4.147 0 01-2.749-3.533 8.244 8.244 0 01.363-3.757c1.099-3.438 3.695-5.357 6.173-4.565a4.15 4.15 0 012.75 3.533 8.244 8.244 0 01-.363 3.757 7.132 7.132 0 01-3.225 4.283zM216.176 339.074l-2.52-4.889c25.745-13.269 37.887-28.535 35.256-33.639l4.889-2.52c5.729 11.115-15.109 29.444-37.625 41.048z"/>
  </g>
  <defs>
    <clipPath id="clip0">
      <path fill="#fff" d="M0 0h500v500H0z"/>
    </clipPath>
  </defs>
</svg>
