<svg xmlns="http://www.w3.org/2000/svg" fill="none" viewBox="0 0 500 500">
  <path fill="#000" d="M168.43 85.49l-.85-1.83c-2.18-4.75-7.83-6.84-12.59-4.65-8.96 4.13-14.75 13.17-14.75 23.041v24.88c0 6.47-1.71 12.72-4.96 18.24-2.28-.54-4.69-.52-7 .12-.05-6.25-1.56-12.49-4.4-18.05l-6.02-11.79c-.08-.17-.19-.31-.29-.46 7.49-4.61 11-13.85 8.06-22.49l-1.82-5.33c6.38-1.94 9.53-10.14 10.29-17.28.41-3.9-.96-7.69-3.77-10.41-2.74-2.66-6.47-3.89-10.23-3.36-6.23.86-11.21 4.13-13.41 7.37-1.58-.41-3.21-.64-4.9-.64H89.31c-1.93 0-3.79.29-5.57.83-2.14-3.3-7.19-6.68-13.54-7.56-3.76-.53-7.49.7-10.23 3.36-2.81 2.72-4.18 6.51-3.77 10.41.79 7.41 4.16 15.93 11.03 17.45l-1.76 5.16c-2.98 8.77.69 18.15 8.41 22.69-.05.09-.12.17-.16.26l-6.02 11.79a40.603 40.603 0 00-4.41 18.19c-5.24-1.64-11.13-.09-14.84 4.19a14.1 14.1 0 00-3.45 9.23v2.58c0 3.76 1.05 7.44 3.02 10.64l5.83 9.42c-4.63 1.75-7.94 6.21-7.94 11.44v5.87c0 1.94 1.57 3.5 3.5 3.5h92.47c1.94 0 3.5-1.56 3.5-3.5v-5.87c0-5.29-3.38-9.79-8.09-11.5l5.79-9.36c1.19-1.93 2.04-4.04 2.53-6.22l4.86-5.52a42.93 42.93 0 0010.77-28.46v-29.82c0-1.7 1-3.25 2.54-3.96 4.75-2.19 6.84-7.84 4.65-12.6zm-47.37-22.44c1.64-.23 3.2.29 4.4 1.46a5.6 5.6 0 011.68 4.63c-.56 5.23-2.76 10.61-5.6 11.36l-1.58-4.65c-1.3-3.8-3.71-6.98-6.78-9.25 1.34-1.26 4.15-3.03 7.88-3.55zM69.53 80.61c-.04 0-.07-.01-.1-.01-3.16 0-5.67-5.83-6.27-11.46a5.6 5.6 0 011.68-4.63c1.2-1.17 2.77-1.68 4.4-1.46 4.09.57 7.08 2.64 8.23 3.9a19.11 19.11 0 00-6.32 8.9l-1.62 4.76zm2.57 14.15l5.67-16.66a12.2 12.2 0 0111.54-8.25h12.48c5.22 0 9.86 3.32 11.54 8.25L119 94.76c1.82 5.331-.25 11.041-4.74 14.041v-.71c0-5.12-2.98-9.85-7.6-12.07l-2.38-1.14a2.766 2.766 0 01-1.55-2.48 2.5 2.5 0 00-5 0c0 2.96 1.72 5.71 4.39 6.99l2.38 1.14c2.89 1.39 4.76 4.36 4.76 7.56v.95c0 2.08-.94 4-2.58 5.28a6.69 6.69 0 01-5.76 1.22l-2.75-.7v-1.59c2.7-1.3 5.27-4.26 6.18-6.04.68-1.35.62-2.98-.17-4.26-.68-1.11-1.81-1.77-3.04-1.77H90.21c-1.23 0-2.37.66-3.05 1.77a4.366 4.366 0 00-.16 4.26c.88 1.73 3.32 4.57 5.93 5.92v1.71l-2.75.7c-2.02.51-4.12.06-5.76-1.22a6.65 6.65 0 01-2.58-5.28v-.95c0-3.2 1.87-6.17 4.76-7.56l2.38-1.14a7.8 7.8 0 004.4-6.99 2.5 2.5 0 00-5 0c0 1.05-.62 2.03-1.56 2.48l-2.38 1.14c-4.62 2.22-7.6 6.95-7.6 12.07v.71c-4.49-3-6.56-8.7-4.74-14.04zm23.45 24.581l4.15 1.05c.96.24 1.93.35 2.89.35h.04a4.34 4.34 0 01-4.12 2.99h-5.68c-1.93 0-3.55-1.26-4.13-3 .9-.01 1.8-.12 2.7-.35l4.15-1.04zm-3.25-13.16h6.74c-1.09 1.29-2.67 2.53-3.37 2.71-.7-.18-2.28-1.42-3.37-2.71zm-23.26 89.12H52.91v-2.37a5.24 5.24 0 015.23-5.23h5.67a5.24 5.24 0 015.23 5.23v2.37zm3.5-10.92a12.173 12.173 0 00-8.73-3.68h-2.22l-7.61-12.32c-1.3-2.09-1.98-4.49-1.98-6.95v-2.58a7.093 7.093 0 0110.58-6.16l1.5.86c.58 2.91 1.48 5.75 2.71 8.5l8.91 20c-1.18.61-2.24 1.39-3.16 2.33zm19.58 8.55v2.37H76.04v-2.37a5.24 5.24 0 015.23-5.23h5.67c2.78 0 5.03 2.18 5.2 4.92 0 .1-.02.21-.02.31zm-11.02-38.56c2.18 2.72 6.31 5.59 11.07 6.6v20.92c-1.59-.76-3.36-1.19-5.23-1.19h-4.18l-9.58-21.5a33.19 33.19 0 01-2.89-13.6c0-5.25 1.26-10.5 3.65-15.18l6.01-11.79c.21-.41.32-.84.36-1.27.33.32.67.62 1.04.91.67.52 1.38.95 2.12 1.31.12 5.06 4.26 9.15 9.36 9.15h5.68c5.14 0 9.31-4.15 9.36-9.27.66-.34 1.29-.73 1.88-1.19.56-.44 1.05-.92 1.51-1.44-.03.61.07 1.22.37 1.8l6.01 11.79a33.53 33.53 0 013.65 15.18c0 4.72-.97 9.29-2.89 13.6l-9.58 21.5h-4.46c-1.86 0-3.61.43-5.19 1.17v-20.91c4.74-1.02 8.85-3.88 11.02-6.59 1.21-1.5.96-3.71-.55-4.92-1.5-1.21-3.71-.96-4.92.55-1.67 2.09-5.61 4.34-9.07 4.35-3.47-.01-7.41-2.26-9.08-4.35a3.508 3.508 0 00-4.92-.55 3.508 3.508 0 00-.55 4.92zm34.15 40.93H99.17v-2.84c.24-2.66 2.46-4.76 5.19-4.76h5.66a5.24 5.24 0 015.23 5.23v2.37zm23.13-2.37v2.37h-16.13v-2.37c0-2.88 2.35-5.23 5.24-5.23h5.66c2.89 0 5.23 2.35 5.23 5.23zm.72-31.5c0 2.46-.68 4.86-1.98 6.96l-7.6 12.31h-2.03c-3.42 0-6.52 1.41-8.74 3.68-.85-.87-1.84-1.62-2.92-2.21l8.96-20.12c1.27-2.85 2.19-5.79 2.77-8.81l.96-.55a7.106 7.106 0 018.85 1.52 7.09 7.09 0 011.73 4.64v2.58zm21.75-69.7c-4.01 1.85-6.61 5.9-6.61 10.32v29.82c0 8.58-3.06 16.84-8.62 23.36-.55-2.06-1.55-3.98-2.97-5.61-.37-.43-.76-.81-1.17-1.18 3.78-6.53 5.76-13.9 5.76-21.51v-24.88c0-7.15 4.19-13.69 10.68-16.68.61-.28 1.28-.3 1.91-.07.62.23 1.12.69 1.4 1.29l.84 1.83c.58 1.25.03 2.73-1.22 3.31z"/>
  <path fill="#000" d="M84.54 90.76c0 1.67-1.36 3.04-3.04 3.04-1.67 0-3.04-1.37-3.04-3.04 0-1.68 1.37-3.04 3.04-3.04 1.68 0 3.04 1.36 3.04 3.04zM112.64 90.76c0 1.67-1.36 3.04-3.04 3.04s-3.04-1.37-3.04-3.04c0-1.68 1.36-3.04 3.04-3.04s3.04 1.36 3.04 3.04zM85.963 82.407h.756a6.665 6.665 0 006.657-6.657 2.5 2.5 0 10-5 0c0 .914-.743 1.657-1.657 1.657h-.756a2.5 2.5 0 100 5zM104.383 82.407h.756a2.5 2.5 0 100-5h-.756a1.658 1.658 0 01-1.657-1.657 2.5 2.5 0 10-5 0 6.664 6.664 0 006.657 6.657z"/>
  <path fill="#000" fill-rule="evenodd" d="M301.552 365.5c-13.918 0-25.242 11.324-25.242 25.241 0 13.918 11.324 25.242 25.242 25.242 13.917 0 25.241-11.324 25.241-25.242 0-13.917-11.324-25.241-25.241-25.241zm0 56.793c-17.398 0-31.552-14.154-31.552-31.552 0-17.397 14.154-31.551 31.552-31.551 17.397 0 31.551 14.154 31.551 31.551 0 17.398-14.154 31.552-31.551 31.552z" clip-rule="evenodd"/>
  <path fill="#000" fill-rule="evenodd" d="M301.551 412.828a3.15 3.15 0 01-2.231-.925l-9.465-9.465a3.152 3.152 0 010-4.462 3.152 3.152 0 014.461 0l9.466 9.466a3.15 3.15 0 010 4.461 3.148 3.148 0 01-2.231.925z" clip-rule="evenodd"/>
  <path fill="#000" fill-rule="evenodd" d="M301.551 412.828a3.15 3.15 0 01-2.231-.925 3.152 3.152 0 010-4.461l9.466-9.466a3.152 3.152 0 014.461 0 3.152 3.152 0 010 4.462l-9.465 9.465a3.15 3.15 0 01-2.231.925z" clip-rule="evenodd"/>
  <path fill="#000" fill-rule="evenodd" d="M301.552 457a3.156 3.156 0 01-3.156-3.155v-44.172a3.157 3.157 0 013.156-3.156 3.157 3.157 0 013.155 3.156v44.172a3.156 3.156 0 01-3.155 3.155zM342.568 412.828c-.807 0-1.615-.31-2.23-.925l-6.311-6.31a3.154 3.154 0 010-4.462 3.154 3.154 0 014.462 0l6.31 6.311a3.15 3.15 0 010 4.461 3.148 3.148 0 01-2.231.925z" clip-rule="evenodd"/>
  <path fill="#000" fill-rule="evenodd" d="M342.568 412.828a3.15 3.15 0 01-2.231-.925 3.152 3.152 0 010-4.461l6.311-6.311a3.152 3.152 0 014.461 0 3.152 3.152 0 010 4.462l-6.31 6.31a3.148 3.148 0 01-2.231.925z" clip-rule="evenodd"/>
  <path fill="#000" fill-rule="evenodd" d="M342.569 457a3.156 3.156 0 01-3.155-3.155v-44.172a3.156 3.156 0 013.155-3.156 3.157 3.157 0 013.155 3.156v44.172a3.156 3.156 0 01-3.155 3.155z" clip-rule="evenodd"/>
  <path fill="#000" fill-rule="evenodd" d="M381.67 422.293h-76.965a3.156 3.156 0 010-6.31h72.166l-37.664-87.184-19.057 38.112a3.157 3.157 0 01-4.234 1.413 3.157 3.157 0 01-1.411-4.234l22.087-44.173c.549-1.098 1.662-1.801 2.909-1.744a3.156 3.156 0 012.808 1.905l42.257 97.811c.42.975.325 2.095-.262 2.981a3.144 3.144 0 01-2.634 1.423zM399.362 340.259a3.144 3.144 0 01-2.231-.925l-4.08-4.079-4.079 4.079a3.152 3.152 0 01-4.462 0l-4.08-4.079-4.079 4.079a3.152 3.152 0 01-4.462 0l-9.071-9.071a3.152 3.152 0 010-4.461 3.152 3.152 0 014.462 0l6.84 6.84 4.08-4.08a3.152 3.152 0 014.461 0l4.08 4.08 4.079-4.08a3.154 3.154 0 014.462 0l4.08 4.08 6.84-6.84a3.15 3.15 0 014.461 0 3.15 3.15 0 010 4.461l-9.071 9.071a3.143 3.143 0 01-2.23.925z" clip-rule="evenodd"/>
  <path fill="#000" fill-rule="evenodd" d="M381.672 422.295a3.152 3.152 0 01-2.897-1.906l-29.084-67.316a3.155 3.155 0 01.101-2.713l34.154-65.202c1.089-2.082 4.503-2.082 5.591 0l69.414 132.518a3.153 3.153 0 01-1.331 4.256 3.157 3.157 0 01-4.26-1.332l-66.618-127.178-30.659 58.531 28.482 65.934a3.15 3.15 0 01-1.644 4.146 3.15 3.15 0 01-1.249.262zM453 302.397a3.156 3.156 0 01-3.155-3.156c0-3.48-2.83-6.31-6.31-6.31h-25.242c-5.219 0-9.465-4.247-9.465-9.465 0-5.219 4.246-9.466 9.465-9.466h12.621a3.156 3.156 0 010 6.31h-12.621a3.16 3.16 0 00-3.155 3.156 3.16 3.16 0 003.155 3.155h25.242c6.96 0 12.62 5.66 12.62 12.62a3.156 3.156 0 01-3.155 3.156zM456.155 457a3.157 3.157 0 01-3.155-3.155v-3.155a3.157 3.157 0 013.155-3.156 3.156 3.156 0 013.155 3.156v3.155a3.156 3.156 0 01-3.155 3.155zM443.535 457a3.157 3.157 0 01-3.156-3.155v-3.155a3.157 3.157 0 013.156-3.156 3.157 3.157 0 013.155 3.156v3.155a3.157 3.157 0 01-3.155 3.155zM430.914 457a3.156 3.156 0 01-3.155-3.155v-3.155a3.156 3.156 0 013.155-3.156 3.156 3.156 0 013.155 3.156v3.155a3.156 3.156 0 01-3.155 3.155zM418.293 457a3.156 3.156 0 01-3.155-3.155v-3.155a3.156 3.156 0 013.155-3.156 3.156 3.156 0 013.155 3.156v3.155a3.156 3.156 0 01-3.155 3.155zM405.672 457a3.157 3.157 0 01-3.155-3.155v-3.155a3.157 3.157 0 013.155-3.156 3.156 3.156 0 013.155 3.156v3.155a3.156 3.156 0 01-3.155 3.155zM393.052 457a3.157 3.157 0 01-3.156-3.155v-3.155a3.157 3.157 0 013.156-3.156 3.157 3.157 0 013.155 3.156v3.155a3.157 3.157 0 01-3.155 3.155zM380.431 457a3.156 3.156 0 01-3.155-3.155v-3.155a3.156 3.156 0 013.155-3.156 3.156 3.156 0 013.155 3.156v3.155a3.156 3.156 0 01-3.155 3.155zM367.81 457a3.157 3.157 0 01-3.155-3.155v-3.155a3.157 3.157 0 013.155-3.156 3.157 3.157 0 013.156 3.156v3.155A3.157 3.157 0 01367.81 457zM355.19 457a3.156 3.156 0 01-3.155-3.155v-3.155a3.156 3.156 0 013.155-3.156 3.157 3.157 0 013.155 3.156v3.155A3.157 3.157 0 01355.19 457zM329.948 457a3.156 3.156 0 01-3.155-3.155v-3.155a3.156 3.156 0 013.155-3.156 3.156 3.156 0 013.155 3.156v3.155a3.156 3.156 0 01-3.155 3.155zM314.172 457a3.157 3.157 0 01-3.155-3.155v-3.155a3.157 3.157 0 013.155-3.156 3.156 3.156 0 013.155 3.156v3.155a3.156 3.156 0 01-3.155 3.155zM285.776 457a3.156 3.156 0 01-3.155-3.155v-3.155a3.156 3.156 0 013.155-3.156 3.157 3.157 0 013.155 3.156v3.155a3.157 3.157 0 01-3.155 3.155zM273.155 457a3.157 3.157 0 01-3.155-3.155v-3.155a3.157 3.157 0 013.155-3.156 3.156 3.156 0 013.155 3.156v3.155a3.156 3.156 0 01-3.155 3.155zM303.918 283.465c-11.289 0-15.956 8.346-16.151 8.702a3.182 3.182 0 01-2.78 1.666c-4.786 0-8.677 4.399-8.677 9.804 0 3.145.947 8.424 7.298 8.424h36.676c2.704 0 6.509-1.407 6.509-4.537 0-3.263-2.3-5.916-5.127-5.916h-1.183a3.156 3.156 0 01-3.155-3.155c0-13.041-8.403-14.988-13.41-14.988zm16.366 34.906h-36.676c-8.266 0-13.608-5.786-13.608-14.734 0-8.229 5.768-15.041 13.185-16 2.304-3.272 8.737-10.482 20.733-10.482 8.901 0 18.37 4.875 19.587 18.3 5.437.944 9.598 5.998 9.598 12.069 0 6.79-6.515 10.847-12.819 10.847z" clip-rule="evenodd"/>
  <path fill="#000" d="M380.311 132.583h-10.686c-13.267 0-28.496-2.03-28.496-17.867a17.178 17.178 0 015.165-12.588c2.092-2.436 3.74-4.362 3.74-8.33 0-.448.017-.89.05-1.312.612-7.855 9.852-13.333 17.76-13.333h14.248c7.907 0 17.147 5.478 17.76 13.338.032.426.05.864.05 1.313 0 3.968 1.654 5.893 3.74 8.329a17.192 17.192 0 015.165 12.583c0 15.837-15.229 17.867-28.496 17.867zm-12.467-49.868c-6.339 0-13.76 4.3-14.209 10.054a13.86 13.86 0 00-.039 1.035 14.988 14.988 0 01-4.61 10.652 13.829 13.829 0 00-4.295 10.26c0 10.161 7.223 14.305 24.934 14.305h10.686c17.71 0 24.934-4.144 24.934-14.305a13.842 13.842 0 00-4.296-10.26 14.985 14.985 0 01-4.609-10.652c0-.357-.014-.7-.039-1.035-.449-5.755-7.871-10.054-14.209-10.054h-14.248z"/>
  <path fill="#000" d="M374.968 113.585a3.522 3.522 0 01-2.849-1.425l-1.781-2.372a3.555 3.555 0 01.976-5.169 3.563 3.563 0 011.873-.532h3.562a3.56 3.56 0 012.85 5.699l-1.781 2.374a3.52 3.52 0 01-2.85 1.425zm-1.781-5.936h-.012l1.793 2.374 1.781-2.374h-3.562zM388.137 105.868a2.443 2.443 0 01-1.781-.712 2.692 2.692 0 01-.534-2.85 5.341 5.341 0 011.323-2.055c1.653-1.653 3.717-1.99 4.909-.796a2.681 2.681 0 01.534 2.849 5.337 5.337 0 01-1.323 2.056 4.618 4.618 0 01-3.128 1.508zM361.799 105.868a4.614 4.614 0 01-3.134-1.505 5.347 5.347 0 01-1.329-2.057 2.682 2.682 0 01.534-2.85c1.188-1.187 3.254-.854 4.907.797a5.347 5.347 0 011.327 2.053 2.682 2.682 0 01-.534 2.85 2.453 2.453 0 01-1.771.712z"/>
  <path fill="#000" d="M378.53 118.335a5.323 5.323 0 01-3.562-1.364 5.35 5.35 0 01-2.738 1.297 5.346 5.346 0 01-6.167-5.276h3.562a1.782 1.782 0 003.562 0 1.781 1.781 0 013.562 0 1.782 1.782 0 003.562 0h3.562a5.343 5.343 0 01-5.343 5.343zM399.902 93.401h-3.562V64.905a5.343 5.343 0 00-10.686 0v16.03h-3.562v-16.03a8.905 8.905 0 1117.81 0v28.496z"/>
  <path fill="#000" d="M392.778 64.905h-3.562v17.81h3.562v-17.81zM353.596 93.401h-3.562V64.905a8.905 8.905 0 1117.81 0v16.03h-3.562v-16.03a5.343 5.343 0 00-10.686 0v28.496z"/>
  <path fill="#000" d="M360.72 64.905h-3.562v17.81h3.562v-17.81zM385.972 162.861a7.134 7.134 0 01-5.328-2.428 8.608 8.608 0 010-11.267l9.234-9.373 2.536 2.493-9.177 9.315a5.012 5.012 0 00.055 6.44 3.566 3.566 0 002.68 1.21 3.57 3.57 0 002.679-1.21l7.446-8.805a15.68 15.68 0 003.27-14.204c-1.059-3.731-2.839-4.141-3.424-4.274l.801-3.473c2.928.675 4.965 2.953 6.055 6.768a19.3 19.3 0 01-3.971 17.486l-7.48 8.846a7.152 7.152 0 01-5.376 2.476zM363.963 162.86a7.125 7.125 0 01-5.325-2.427l-7.521-8.889a19.3 19.3 0 01-3.972-17.486c1.085-3.82 3.123-6.098 6.056-6.768l.801 3.473c-.586.134-2.365.534-3.425 4.274a15.68 15.68 0 003.267 14.211l7.48 8.846c.34.369.753.662 1.213.861a3.578 3.578 0 002.91-.022 3.59 3.59 0 001.199-.88 5.022 5.022 0 000-6.497l-9.123-9.261 2.537-2.493 9.177 9.316a8.619 8.619 0 01.055 11.324 7.13 7.13 0 01-5.329 2.418z"/>
  <path fill="#000" d="M398.627 169.999a9.417 9.417 0 01-6.542-2.884c-3.28-3.282-3.841-8.084-1.275-10.932l24.231-26.66c3.421-3.426 9.439-2.885 13.48 1.151s4.579 10.056 1.211 13.422l-26.715 24.289a6.48 6.48 0 01-4.39 1.614zm-4.023-5.402c1.877 1.875 4.641 2.399 6.03 1.147l26.646-24.222c1.916-1.92 1.375-5.681-1.272-8.328-2.646-2.647-6.411-3.188-8.385-1.211l-24.172 26.59c-1.246 1.386-.723 4.147 1.153 6.024z"/>
  <path fill="#000" d="M423.682 138.039l-2.52-2.519 1.261 1.259-1.27-1.246a3.163 3.163 0 00.795-3.688 3.155 3.155 0 00-.795-1.075l2.52-2.518a6.72 6.72 0 011.567 7.556 6.73 6.73 0 01-1.558 2.231zM398.382 164.601a3.78 3.78 0 01-2.663-1.119 3.608 3.608 0 01-.265-4.933l17.293-19.443a4.637 4.637 0 013.372-1.548 5.285 5.285 0 013.93 1.603 5.378 5.378 0 011.603 3.93 4.641 4.641 0 01-1.546 3.374l-19.452 17.286a3.41 3.41 0 01-2.272.85zm17.883-23.487h-.045a1.112 1.112 0 00-.814.357l-18.428 20.75 1.259-1.259a.247.247 0 00.145.078l19.348-17.236a1.115 1.115 0 00.357-.814 1.911 1.911 0 00-1.821-1.867l-.001-.009zM351.307 169.999a6.465 6.465 0 01-4.388-1.603l-26.66-24.236c-3.428-3.425-2.883-9.44 1.151-13.481s10.055-4.579 13.421-1.211l24.292 26.715c2.57 2.85 2.009 7.659-1.272 10.938a9.428 9.428 0 01-6.544 2.878zm-22.061-39.222a7.79 7.79 0 00-5.318 2.415c-2.647 2.647-3.188 6.412-1.211 8.385l26.592 24.174c1.386 1.247 4.145.721 6.024-1.154 1.879-1.876 2.4-4.631 1.147-6.029l-24.226-26.649a4.173 4.173 0 00-3.008-1.142z"/>
  <path fill="#000" d="M326.254 138.039a6.729 6.729 0 010-9.796l2.518 2.518a3.175 3.175 0 00-1.073 2.376 3.17 3.17 0 001.073 2.376l-2.518 2.526zM351.554 164.601a3.401 3.401 0 01-2.269-.85l-19.447-17.294a4.632 4.632 0 01-1.546-3.366 5.46 5.46 0 013.398-5.119 5.46 5.46 0 012.123-.402 4.633 4.633 0 013.371 1.548l17.303 19.431a3.608 3.608 0 01-.265 4.931 3.786 3.786 0 01-2.668 1.121zm-17.882-23.487a1.91 1.91 0 00-1.82 1.867 1.112 1.112 0 00.356.814l20.751 18.426-1.261-1.257a.227.227 0 00.078-.144l-17.236-19.349a1.1 1.1 0 00-.814-.357h-.054zM342.91 139.707h-3.562a11.417 11.417 0 0110.686-10.686v3.562a7.84 7.84 0 00-7.124 7.124zM410.588 139.707h-3.562a7.839 7.839 0 00-7.124-7.124v-3.562a11.427 11.427 0 017.363 3.323 11.427 11.427 0 013.323 7.363zM374.968 166.422c-12.526 0-16.422-1.766-16.825-1.959l1.592-3.188s3.612 1.585 15.233 1.585 15.226-1.59 15.26-1.603l1.565 3.206c-.402.193-4.299 1.959-16.825 1.959z"/>
</svg>
