<svg xmlns="http://www.w3.org/2000/svg" fill="none" viewBox="0 0 451 490">
  <path fill="#BFA2FF" d="M48 0h403v490H48z"/>
  <path fill="#E7FFA2" d="M0 68h403v383H0z"/>
  <path fill="#7D7BFA" d="M59.664 149.632c-3.264 4.42-7.548 6.664-12.92 6.664-4.148 0-7.616-1.36-10.404-4.08-2.788-2.72-4.216-6.46-4.216-11.152 0-4.624 1.428-8.296 4.216-10.948 2.856-2.72 6.12-4.08 9.86-4.08 5.236 0 9.86 2.448 12.648 6.46l6.8-6.936c-4.828-5.984-11.152-8.976-18.972-8.976-7.14 0-13.056 2.244-17.816 6.8-4.76 4.488-7.14 10.472-7.14 17.884 0 7.344 2.38 13.26 7.14 17.748 4.828 4.488 10.88 6.732 18.156 6.732 8.024 0 14.484-2.992 19.38-8.976l-6.732-7.14zM82.678 165v-47.668h-9.656V165h9.656zm19.334 0v-33.32h-9.724V165h9.724zM91.54 122.228c0 3.06 2.516 5.576 5.576 5.576 3.06 0 5.644-2.516 5.644-5.576 0-3.196-2.448-5.644-5.644-5.644-3.06 0-5.576 2.448-5.576 5.644zm43.132 30.124c-2.244 2.924-4.828 4.352-7.752 4.352-4.624 0-8.092-3.468-8.092-8.364 0-4.896 3.468-8.364 8.092-8.364 2.584 0 4.964 1.292 7.072 3.876l6.528-6.324c-4.012-4.42-8.636-6.664-13.94-6.664-4.964 0-9.18 1.7-12.58 5.032-3.332 3.332-5.032 7.48-5.032 12.444s1.7 9.112 5.032 12.444c3.332 3.332 7.548 4.964 12.58 4.964 6.188 0 11.016-2.38 14.62-7.072l-6.528-6.324zM157.12 165v-10.2l2.244-2.448L167.32 165h11.764l-12.852-19.584 12.308-13.736h-12.172l-9.248 10.54v-24.888h-9.656V165h9.656zm55.979.748c3.4 0 6.188-.952 8.432-2.924V165h9.588v-20.808c0-4.148-1.36-7.344-4.148-9.724-2.788-2.38-6.256-3.604-10.472-3.604-5.644 0-10.268 2.176-13.94 6.596l6.12 5.848c1.7-2.584 4.08-3.876 7.14-3.876 3.468 0 5.576 2.244 5.576 5.44v.544c-2.176-.612-4.42-.952-6.664-.952-3.74 0-6.868.952-9.384 2.788-2.516 1.836-3.808 4.488-3.808 7.956 0 6.188 4.488 10.54 11.56 10.54zm-1.836-11.152c0-2.108 2.04-3.468 5.644-3.468 1.292 0 2.788.204 4.488.612v3.808c-1.836 1.36-3.808 2.04-5.984 2.04-2.448 0-4.148-1.292-4.148-2.992zM249.69 165v-47.668h-9.656V165h9.656zm18.926 0v-47.668h-9.656V165h9.656zm11.667-4.216c3.332 3.332 7.548 4.964 12.58 4.964s9.248-1.632 12.58-4.964c3.332-3.332 5.032-7.48 5.032-12.444s-1.7-9.112-5.1-12.444c-3.332-3.332-7.548-5.032-12.512-5.032s-9.18 1.7-12.58 5.032c-3.332 3.332-5.032 7.48-5.032 12.444s1.7 9.112 5.032 12.444zm7.004-18.496c1.428-1.564 3.332-2.38 5.576-2.38 2.244 0 4.148.816 5.576 2.38s2.176 3.604 2.176 6.052c0 2.448-.748 4.488-2.176 6.052-1.428 1.564-3.332 2.38-5.576 2.38-2.244 0-4.148-.816-5.576-2.38s-2.176-3.604-2.176-6.052c0-2.448.748-4.488 2.176-6.052zm45.716-10.608l-5.44 19.924-4.76-19.924h-10.336l9.384 33.32h10.54l5.984-20.536L344.359 165h10.54l9.384-33.32h-10.336l-4.692 19.924-5.508-19.924h-10.744zM36.136 240.136c1.768 0 3.536-.068 5.236-.136v-8.84h-2.856c-2.992 0-4.42-.884-4.42-4.08v-11.492h7.412v-8.908h-7.412v-9.316h-9.588v9.316h-4.352v8.908h4.352v12.648c0 7.956 3.876 11.9 11.628 11.9zm15.444-4.352c3.332 3.332 7.548 4.964 12.58 4.964s9.248-1.632 12.58-4.964c3.332-3.332 5.032-7.48 5.032-12.444s-1.7-9.112-5.1-12.444c-3.332-3.332-7.548-5.032-12.512-5.032s-9.18 1.7-12.58 5.032c-3.332 3.332-5.032 7.48-5.032 12.444s1.7 9.112 5.032 12.444zm7.004-18.496c1.428-1.564 3.332-2.38 5.576-2.38 2.244 0 4.148.816 5.576 2.38s2.176 3.604 2.176 6.052c0 2.448-.748 4.488-2.176 6.052-1.428 1.564-3.332 2.38-5.576 2.38-2.244 0-4.148-.816-5.576-2.38s-2.176-3.604-2.176-6.052c0-2.448.748-4.488 2.176-6.052zm83.721 6.052c0-5.168-1.632-9.384-4.828-12.58-3.196-3.264-7.14-4.896-11.832-4.896-3.468 0-6.324.952-8.568 2.924v-16.456h-9.656V240h9.52v-2.38c2.176 2.108 5.1 3.128 8.704 3.128 4.692 0 8.636-1.564 11.832-4.76 3.196-3.196 4.828-7.412 4.828-12.648zm-23.188-6.256c1.496-1.632 3.332-2.448 5.576-2.448 2.244 0 4.08.816 5.508 2.448 1.496 1.632 2.244 3.74 2.244 6.256s-.748 4.624-2.244 6.256c-1.428 1.632-3.264 2.448-5.508 2.448s-4.08-.816-5.576-2.448c-1.428-1.632-2.176-3.74-2.176-6.256s.748-4.624 2.176-6.256zm60.804 5.848c0-4.556-1.428-8.568-4.216-11.968-2.788-3.4-6.732-5.1-11.832-5.1-4.828 0-8.772 1.7-11.832 5.032-3.06 3.332-4.556 7.548-4.556 12.648 0 5.168 1.632 9.316 4.964 12.512 3.332 3.128 7.48 4.692 12.58 4.692 5.916 0 10.676-2.244 14.28-6.732l-6.392-5.984c-2.04 2.584-4.76 3.876-8.16 3.876-4.148 0-6.936-2.516-7.48-6.12h22.576l.068-2.856zm-15.844-8.568c3.196 0 5.44 2.176 5.644 4.964h-11.968c.612-2.924 2.856-4.964 6.324-4.964zm45.338 23.256c0 4.42-3.264 7.412-8.364 7.412-3.604 0-6.392-1.428-8.364-4.284l-6.732 6.46c3.604 4.488 8.636 6.732 15.164 6.732 5.644 0 9.996-1.632 13.192-4.828 3.196-3.196 4.828-7.412 4.828-12.58V206.68h-9.52v2.38c-2.312-2.108-5.1-3.196-8.296-3.196-4.556 0-8.364 1.496-11.56 4.488-3.196 2.992-4.76 7.072-4.76 12.24 0 5.1 1.496 9.18 4.556 12.172 3.06 2.992 7.004 4.488 11.764 4.488 3.468 0 6.188-.816 8.092-2.516v.884zm.204-15.028c0 4.624-3.264 7.888-7.412 7.888-4.08 0-7.344-3.264-7.344-7.888 0-4.692 3.264-7.956 7.344-7.956 4.148 0 7.412 3.264 7.412 7.956zM238.411 240v-33.32h-9.724V240h9.724zm-10.472-42.772c0 3.06 2.516 5.576 5.576 5.576 3.06 0 5.644-2.516 5.644-5.576 0-3.196-2.448-5.644-5.644-5.644-3.06 0-5.576 2.448-5.576 5.644zm29.786 26.112c0-5.644 2.04-8.5 6.12-8.5 3.74 0 5.508 2.72 5.508 6.528V240h9.724v-19.38c0-9.316-5.372-14.756-13.6-14.756-3.06 0-5.712 1.02-7.888 3.128v-2.312h-9.52V240h9.656v-16.66zM55.72 281.68H45.384l-7.752 20.604-7.48-20.604H19.408L32.396 315l-5.44 13.192h10.2L55.72 281.68zm5.887 29.104c3.332 3.332 7.548 4.964 12.58 4.964s9.248-1.632 12.58-4.964c3.332-3.332 5.032-7.48 5.032-12.444s-1.7-9.112-5.1-12.444c-3.332-3.332-7.548-5.032-12.512-5.032s-9.18 1.7-12.58 5.032c-3.332 3.332-5.032 7.48-5.032 12.444s1.7 9.112 5.032 12.444zm7.004-18.496c1.428-1.564 3.332-2.38 5.576-2.38 2.244 0 4.148.816 5.576 2.38s2.176 3.604 2.176 6.052c0 2.448-.748 4.488-2.176 6.052-1.428 1.564-3.332 2.38-5.576 2.38-2.244 0-4.148-.816-5.576-2.38s-2.176-3.604-2.176-6.052c0-2.448.748-4.488 2.176-6.052zm49.565 6.46c0 5.372-1.904 8.092-5.712 8.092-3.332 0-5.1-2.448-5.1-6.188V281.68H97.64v19.38c0 9.316 4.624 14.688 12.444 14.688 3.536 0 6.324-1.02 8.296-3.06V315h9.52v-33.32h-9.724v17.068zm39.395-17.476c-.612-.068-1.496-.068-2.584-.068-3.604 0-6.324 1.156-8.296 3.468v-2.992h-9.52V315h9.656v-13.94c0-6.8 3.604-10.472 9.248-10.472h1.496v-9.316zM217.823 315v-9.316h-25.024V295.28h23.868v-9.18h-23.868v-9.452h25.024v-9.316h-35.156V315h35.156zm18.186.748c3.4 0 6.188-.952 8.432-2.924V315h9.588v-20.808c0-4.148-1.36-7.344-4.148-9.724-2.788-2.38-6.256-3.604-10.472-3.604-5.644 0-10.268 2.176-13.94 6.596l6.12 5.848c1.7-2.584 4.08-3.876 7.14-3.876 3.468 0 5.576 2.244 5.576 5.44v.544c-2.176-.612-4.42-.952-6.664-.952-3.74 0-6.868.952-9.384 2.788-2.516 1.836-3.808 4.488-3.808 7.956 0 6.188 4.488 10.54 11.56 10.54zm-1.836-11.152c0-2.108 2.04-3.468 5.644-3.468 1.292 0 2.788.204 4.488.612v3.808c-1.836 1.36-3.808 2.04-5.984 2.04-2.448 0-4.148-1.292-4.148-2.992zm42.253-1.224c1.972.476 2.992 1.224 2.992 2.108 0 1.292-1.768 2.176-3.74 2.176-3.332 0-6.528-1.496-9.52-4.42l-5.916 6.052c2.788 3.536 8.432 6.46 14.62 6.46 8.5 0 13.94-4.42 13.94-10.744 0-5.644-3.672-9.316-10.948-11.016l-4.964-1.156c-1.564-.34-2.38-.952-2.38-1.768 0-1.088 1.224-1.972 3.128-1.972 2.652 0 5.236 1.088 7.888 3.264l5.916-6.256c-3.876-3.468-8.364-5.236-13.396-5.236-3.604 0-6.664.952-9.18 2.924-2.516 1.904-3.74 4.42-3.74 7.616 0 5.44 3.604 9.044 10.88 10.88l4.42 1.088zm49.124-5.44c0-4.556-1.428-8.568-4.216-11.968-2.788-3.4-6.732-5.1-11.832-5.1-4.828 0-8.772 1.7-11.832 5.032-3.06 3.332-4.556 7.548-4.556 12.648 0 5.168 1.632 9.316 4.964 12.512 3.332 3.128 7.48 4.692 12.58 4.692 5.916 0 10.676-2.244 14.28-6.732l-6.392-5.984c-2.04 2.584-4.76 3.876-8.16 3.876-4.148 0-6.936-2.516-7.48-6.12h22.576l.068-2.856zm-15.844-8.568c3.196 0 5.44 2.176 5.644 4.964h-11.968c.612-2.924 2.856-4.964 6.324-4.964zM341.862 315v-47.668h-9.656V315h9.656zM53.816 372.932c0-4.556-1.428-8.568-4.216-11.968-2.788-3.4-6.732-5.1-11.832-5.1-4.828 0-8.772 1.7-11.832 5.032-3.06 3.332-4.556 7.548-4.556 12.648 0 5.168 1.632 9.316 4.964 12.512 3.332 3.128 7.48 4.692 12.58 4.692 5.916 0 10.676-2.244 14.28-6.732l-6.392-5.984c-2.04 2.584-4.76 3.876-8.16 3.876-4.148 0-6.936-2.516-7.48-6.12h22.576l.068-2.856zm-15.844-8.568c3.196 0 5.44 2.176 5.644 4.964H31.648c.612-2.924 2.856-4.964 6.324-4.964zm17.795-7.684l10.472 16.184L55.02 390H65.9l5.78-9.452L77.527 390H88.34l-11.22-17.136 10.472-16.184h-10.88l-5.032 8.5-5.032-8.5h-10.88zm72.924 16.66c0-5.236-1.632-9.452-4.828-12.648-3.196-3.196-7.14-4.828-11.832-4.828-3.604 0-6.46 1.088-8.704 3.196v-2.38h-9.52v46.512h9.656v-15.3c2.176 1.904 5.032 2.856 8.568 2.856 4.692 0 8.636-1.632 11.832-4.828 3.196-3.196 4.828-7.412 4.828-12.58zm-23.188-6.256c1.496-1.632 3.332-2.448 5.576-2.448 2.244 0 4.08.816 5.508 2.448 1.496 1.632 2.244 3.74 2.244 6.256s-.748 4.624-2.244 6.256c-1.428 1.632-3.264 2.448-5.508 2.448s-4.08-.816-5.576-2.448c-1.428-1.632-2.176-3.74-2.176-6.256s.748-4.624 2.176-6.256zm60.739 5.848c0-4.556-1.428-8.568-4.216-11.968-2.788-3.4-6.732-5.1-11.832-5.1-4.828 0-8.772 1.7-11.832 5.032-3.06 3.332-4.556 7.548-4.556 12.648 0 5.168 1.632 9.316 4.964 12.512 3.332 3.128 7.48 4.692 12.58 4.692 5.916 0 10.676-2.244 14.28-6.732l-6.392-5.984c-2.04 2.584-4.76 3.876-8.16 3.876-4.148 0-6.936-2.516-7.48-6.12h22.576l.068-2.856zm-15.844-8.568c3.196 0 5.44 2.176 5.644 4.964h-11.968c.612-2.924 2.856-4.964 6.324-4.964zm42.899-8.092c-.612-.068-1.496-.068-2.584-.068-3.604 0-6.324 1.156-8.296 3.468v-2.992h-9.52V390h9.656v-13.94c0-6.8 3.604-10.472 9.248-10.472h1.496v-9.316zM209.125 390v-33.32h-9.724V390h9.724zm-10.472-42.772c0 3.06 2.516 5.576 5.576 5.576 3.06 0 5.644-2.516 5.644-5.576 0-3.196-2.448-5.644-5.644-5.644-3.06 0-5.576 2.448-5.576 5.644zm49.933 25.704c0-4.556-1.428-8.568-4.216-11.968-2.788-3.4-6.732-5.1-11.832-5.1-4.828 0-8.772 1.7-11.832 5.032-3.06 3.332-4.556 7.548-4.556 12.648 0 5.168 1.632 9.316 4.964 12.512 3.332 3.128 7.48 4.692 12.58 4.692 5.916 0 10.676-2.244 14.28-6.732l-6.392-5.984c-2.04 2.584-4.76 3.876-8.16 3.876-4.148 0-6.936-2.516-7.48-6.12h22.576l.068-2.856zm-15.844-8.568c3.196 0 5.44 2.176 5.644 4.964h-11.968c.612-2.924 2.856-4.964 6.324-4.964zm32.155 8.976c0-5.644 2.04-8.5 6.12-8.5 3.74 0 5.508 2.72 5.508 6.528V390h9.724v-19.38c0-9.316-5.372-14.756-13.6-14.756-3.06 0-5.712 1.02-7.888 3.128v-2.312h-9.52V390h9.656v-16.66zm52.857 4.012c-2.244 2.924-4.828 4.352-7.752 4.352-4.624 0-8.092-3.468-8.092-8.364 0-4.896 3.468-8.364 8.092-8.364 2.584 0 4.964 1.292 7.072 3.876l6.528-6.324c-4.012-4.42-8.636-6.664-13.94-6.664-4.964 0-9.18 1.7-12.58 5.032-3.332 3.332-5.032 7.48-5.032 12.444s1.7 9.112 5.032 12.444c3.332 3.332 7.548 4.964 12.58 4.964 6.188 0 11.016-2.38 14.62-7.072l-6.528-6.324zm42.195-4.42c0-4.556-1.428-8.568-4.216-11.968-2.788-3.4-6.732-5.1-11.832-5.1-4.828 0-8.772 1.7-11.832 5.032-3.06 3.332-4.556 7.548-4.556 12.648 0 5.168 1.632 9.316 4.964 12.512 3.332 3.128 7.48 4.692 12.58 4.692 5.916 0 10.676-2.244 14.28-6.732l-6.392-5.984c-2.04 2.584-4.76 3.876-8.16 3.876-4.148 0-6.936-2.516-7.48-6.12h22.576l.068-2.856zm-15.844-8.568c3.196 0 5.44 2.176 5.644 4.964h-11.968c.612-2.924 2.856-4.964 6.324-4.964zm23.694 24.616c2.244 2.244 6.052 2.244 8.296 0 2.38-2.244 2.38-6.052 0-8.296-2.244-2.244-6.052-2.244-8.296 0-2.176 2.244-2.176 6.052 0 8.296z"/>
</svg>
