<svg xmlns="http://www.w3.org/2000/svg" fill="none" viewBox="0 0 350 127">
  <path fill="#fff" d="M0 0h350v127H0z"/>
  <path fill="#322EF2" d="M21.53 26v-2.466h-6.624V20.78h6.318v-2.43h-6.318v-2.502h6.624v-2.466h-9.306V26h9.306zm4.814.198c.9 0 1.638-.252 2.232-.774V26h2.538v-5.508c0-1.098-.36-1.944-1.098-2.574-.738-.63-1.656-.954-2.772-.954-1.494 0-2.718.576-3.69 1.746l1.62 1.548c.45-.684 1.08-1.026 1.89-1.026.918 0 1.476.594 1.476 1.44v.144a6.527 6.527 0 00-1.764-.252c-.99 0-1.818.252-2.484.738-.666.486-1.008 1.188-1.008 2.106 0 1.638 1.188 2.79 3.06 2.79zm-.486-2.952c0-.558.54-.918 1.494-.918.342 0 .738.054 1.188.162v1.008c-.486.36-1.008.54-1.584.54-.648 0-1.098-.342-1.098-.792zm11.184-.324c.523.126.792.324.792.558 0 .342-.468.576-.99.576-.882 0-1.727-.396-2.52-1.17l-1.566 1.602c.738.936 2.232 1.71 3.87 1.71 2.25 0 3.69-1.17 3.69-2.844 0-1.494-.971-2.466-2.898-2.916l-1.314-.306c-.413-.09-.63-.252-.63-.468 0-.288.325-.522.828-.522.703 0 1.386.288 2.088.864l1.566-1.656c-1.026-.918-2.213-1.386-3.545-1.386-.954 0-1.764.252-2.43.774-.666.504-.99 1.17-.99 2.016 0 1.44.953 2.394 2.88 2.88l1.17.288zm13.004-1.44c0-1.206-.378-2.268-1.116-3.168-.738-.9-1.782-1.35-3.132-1.35-1.278 0-2.322.45-3.132 1.332-.81.882-1.206 1.998-1.206 3.348 0 1.368.432 2.466 1.314 3.312.882.828 1.98 1.242 3.33 1.242 1.566 0 2.826-.594 3.78-1.782l-1.692-1.584c-.54.684-1.26 1.026-2.16 1.026-1.098 0-1.836-.666-1.98-1.62h5.976l.018-.756zm-4.194-2.268c.846 0 1.44.576 1.494 1.314h-3.168c.162-.774.756-1.314 1.674-1.314zM54.364 26V13.382h-2.556V26h2.556zm6.46-12.618L64.19 26h2.736l2.178-8.334L71.264 26H74l3.366-12.618h-2.862l-1.944 8.082-2.034-8.082h-2.862l-2.034 8.082-1.944-8.082h-2.862zm24.923 8.1c0-1.206-.378-2.268-1.116-3.168-.738-.9-1.782-1.35-3.132-1.35-1.278 0-2.322.45-3.132 1.332-.81.882-1.206 1.998-1.206 3.348 0 1.368.432 2.466 1.314 3.312.882.828 1.98 1.242 3.33 1.242 1.566 0 2.826-.594 3.78-1.782l-1.692-1.584c-.54.684-1.26 1.026-2.16 1.026-1.098 0-1.836-.666-1.98-1.62h5.976l.018-.756zm-4.194-2.268c.846 0 1.44.576 1.494 1.314H79.88c.162-.774.756-1.314 1.674-1.314zm15.19 2.376c0-1.368-.432-2.484-1.278-3.33-.846-.864-1.89-1.296-3.132-1.296-.918 0-1.674.252-2.268.774v-4.356h-2.556V26h2.52v-.63c.576.558 1.35.828 2.304.828 1.242 0 2.286-.414 3.132-1.26.846-.846 1.278-1.962 1.278-3.348zm-6.138-1.656a1.912 1.912 0 011.476-.648c.594 0 1.08.216 1.458.648.396.432.594.99.594 1.656 0 .666-.198 1.224-.594 1.656-.378.432-.864.648-1.458.648s-1.08-.216-1.476-.648c-.378-.432-.576-.99-.576-1.656 0-.666.198-1.224.576-1.656zm11.67 2.988c.522.126.792.324.792.558 0 .342-.468.576-.99.576-.882 0-1.728-.396-2.52-1.17l-1.566 1.602c.738.936 2.232 1.71 3.87 1.71 2.25 0 3.69-1.17 3.69-2.844 0-1.494-.972-2.466-2.898-2.916l-1.314-.306c-.414-.09-.63-.252-.63-.468 0-.288.324-.522.828-.522.702 0 1.386.288 2.088.864l1.566-1.656c-1.026-.918-2.214-1.386-3.546-1.386-.954 0-1.764.252-2.43.774-.666.504-.99 1.17-.99 2.016 0 1.44.954 2.394 2.88 2.88l1.17.288zM109.966 26v-8.82h-2.574V26h2.574zm-2.772-11.322c0 .81.666 1.476 1.476 1.476.81 0 1.494-.666 1.494-1.476 0-.846-.648-1.494-1.494-1.494-.81 0-1.476.648-1.476 1.494zm8.537 11.358c.468 0 .936-.018 1.386-.036v-2.34h-.756c-.792 0-1.17-.234-1.17-1.08v-3.042h1.962V17.18h-1.962v-2.466h-2.538v2.466h-1.152v2.358h1.152v3.348c0 2.106 1.026 3.15 3.078 3.15zm11.342-4.554c0-1.206-.378-2.268-1.116-3.168-.738-.9-1.782-1.35-3.132-1.35-1.278 0-2.322.45-3.132 1.332-.81.882-1.206 1.998-1.206 3.348 0 1.368.432 2.466 1.314 3.312.882.828 1.98 1.242 3.33 1.242 1.566 0 2.826-.594 3.78-1.782l-1.692-1.584c-.54.684-1.26 1.026-2.16 1.026-1.098 0-1.836-.666-1.98-1.62h5.976l.018-.756zm-4.194-2.268c.846 0 1.44.576 1.494 1.314h-3.168c.162-.774.756-1.314 1.674-1.314z"/>
  <path fill="#A77DFF" d="M67.306 47.382L70.672 60h2.736l2.178-8.334L77.746 60h2.736l3.366-12.618h-2.862l-1.944 8.082-2.034-8.082h-2.862l-2.034 8.082-1.944-8.082h-2.862zm19.696 12.816c.9 0 1.638-.252 2.232-.774V60h2.538v-5.508c0-1.098-.36-1.944-1.098-2.574-.738-.63-1.656-.954-2.772-.954-1.494 0-2.718.576-3.69 1.746l1.62 1.548c.45-.684 1.08-1.026 1.89-1.026.918 0 1.476.594 1.476 1.44v.144a6.527 6.527 0 00-1.764-.252c-.99 0-1.818.252-2.484.738-.666.486-1.008 1.188-1.008 2.106 0 1.638 1.188 2.79 3.06 2.79zm-.486-2.952c0-.558.54-.918 1.494-.918.342 0 .738.054 1.188.162v1.008c-.486.36-1.008.54-1.584.54-.648 0-1.098-.342-1.098-.792zm10.172-1.656c0-1.494.54-2.25 1.62-2.25.99 0 1.458.72 1.458 1.728V60h2.574v-5.13c0-2.466-1.422-3.906-3.6-3.906-.81 0-1.512.27-2.088.828v-.612h-2.52V60h2.556v-4.41zm11.006 4.446c.468 0 .936-.018 1.386-.036v-2.34h-.756c-.792 0-1.17-.234-1.17-1.08v-3.042h1.962V51.18h-1.962v-2.466h-2.538v2.466h-1.152v2.358h1.152v3.348c0 2.106 1.026 3.15 3.078 3.15zm7.128-3.114c.522.126.792.324.792.558 0 .342-.468.576-.99.576-.882 0-1.728-.396-2.52-1.17l-1.566 1.602c.738.936 2.232 1.71 3.87 1.71 2.25 0 3.69-1.17 3.69-2.844 0-1.494-.972-2.466-2.898-2.916l-1.314-.306c-.414-.09-.63-.252-.63-.468 0-.288.324-.522.828-.522.702 0 1.386.288 2.088.864l1.566-1.656c-1.026-.918-2.214-1.386-3.546-1.386-.954 0-1.764.252-2.43.774-.666.504-.99 1.17-.99 2.016 0 1.44.954 2.394 2.88 2.88l1.17.288zm13.456 3.114c.468 0 .936-.018 1.386-.036v-2.34h-.756c-.792 0-1.17-.234-1.17-1.08v-3.042h1.962V51.18h-1.962v-2.466H125.2v2.466h-1.152v2.358h1.152v3.348c0 2.106 1.026 3.15 3.078 3.15zm4.088-1.152c.882.882 1.998 1.314 3.33 1.314s2.448-.432 3.33-1.314c.882-.882 1.332-1.98 1.332-3.294s-.45-2.412-1.35-3.294c-.882-.882-1.998-1.332-3.312-1.332-1.314 0-2.43.45-3.33 1.332-.882.882-1.332 1.98-1.332 3.294s.45 2.412 1.332 3.294zm1.854-4.896c.378-.414.882-.63 1.476-.63s1.098.216 1.476.63c.378.414.576.954.576 1.602 0 .648-.198 1.188-.576 1.602-.378.414-.882.63-1.476.63s-1.098-.216-1.476-.63c-.378-.414-.576-.954-.576-1.602 0-.648.198-1.188.576-1.602zm18.148 1.71c0 1.422-.504 2.142-1.512 2.142-.882 0-1.35-.648-1.35-1.638V51.18h-2.574v5.13c0 2.466 1.224 3.888 3.294 3.888.936 0 1.674-.27 2.196-.81V60h2.52v-8.82h-2.574v4.518zm8.596 1.224c.522.126.792.324.792.558 0 .342-.468.576-.99.576-.882 0-1.728-.396-2.52-1.17l-1.566 1.602c.738.936 2.232 1.71 3.87 1.71 2.25 0 3.69-1.17 3.69-2.844 0-1.494-.972-2.466-2.898-2.916l-1.314-.306c-.414-.09-.63-.252-.63-.468 0-.288.324-.522.828-.522.702 0 1.386.288 2.088.864l1.566-1.656c-1.026-.918-2.214-1.386-3.546-1.386-.954 0-1.764.252-2.43.774-.666.504-.99 1.17-.99 2.016 0 1.44.954 2.394 2.88 2.88l1.17.288zm13.004-1.44c0-1.206-.378-2.268-1.116-3.168-.738-.9-1.782-1.35-3.132-1.35-1.278 0-2.322.45-3.132 1.332-.81.882-1.206 1.998-1.206 3.348 0 1.368.432 2.466 1.314 3.312.882.828 1.98 1.242 3.33 1.242 1.566 0 2.826-.594 3.78-1.782l-1.692-1.584c-.54.684-1.26 1.026-2.16 1.026-1.098 0-1.836-.666-1.98-1.62h5.976l.018-.756zm-4.194-2.268c.846 0 1.44.576 1.494 1.314H168.1c.162-.774.756-1.314 1.674-1.314zm19.569-2.034h-2.736l-2.052 5.454-1.98-5.454h-2.844l3.438 8.82-1.44 3.492h2.7l4.914-12.312zm1.558 7.704c.882.882 1.998 1.314 3.33 1.314s2.448-.432 3.33-1.314c.882-.882 1.332-1.98 1.332-3.294s-.45-2.412-1.35-3.294c-.882-.882-1.998-1.332-3.312-1.332-1.314 0-2.43.45-3.33 1.332-.882.882-1.332 1.98-1.332 3.294s.45 2.412 1.332 3.294zm1.854-4.896c.378-.414.882-.63 1.476-.63s1.098.216 1.476.63c.378.414.576.954.576 1.602 0 .648-.198 1.188-.576 1.602-.378.414-.882.63-1.476.63s-1.098-.216-1.476-.63c-.378-.414-.576-.954-.576-1.602 0-.648.198-1.188.576-1.602zm13.12 1.71c0 1.422-.504 2.142-1.512 2.142-.882 0-1.35-.648-1.35-1.638V51.18h-2.574v5.13c0 2.466 1.224 3.888 3.294 3.888.936 0 1.674-.27 2.196-.81V60h2.52v-8.82h-2.574v4.518zm10.429-4.626c-.162-.018-.396-.018-.684-.018-.954 0-1.674.306-2.196.918v-.792h-2.52V60h2.556v-3.69c0-1.8.954-2.772 2.448-2.772h.396v-2.466zm12.835 5.58c-.594.774-1.278 1.152-2.052 1.152-1.224 0-2.142-.918-2.142-2.214 0-1.296.918-2.214 2.142-2.214.684 0 1.314.342 1.872 1.026l1.728-1.674c-1.062-1.17-2.286-1.764-3.69-1.764-1.314 0-2.43.45-3.33 1.332-.882.882-1.332 1.98-1.332 3.294s.45 2.412 1.332 3.294c.882.882 1.998 1.314 3.33 1.314 1.638 0 2.916-.63 3.87-1.872l-1.728-1.674zm5.924 3.546c.9 0 1.638-.252 2.232-.774V60h2.538v-5.508c0-1.098-.36-1.944-1.098-2.574-.738-.63-1.656-.954-2.772-.954-1.494 0-2.718.576-3.69 1.746l1.62 1.548c.45-.684 1.08-1.026 1.89-1.026.918 0 1.476.594 1.476 1.44v.144a6.527 6.527 0 00-1.764-.252c-.99 0-1.818.252-2.484.738-.666.486-1.008 1.188-1.008 2.106 0 1.638 1.188 2.79 3.06 2.79zm-.486-2.952c0-.558.54-.918 1.494-.918.342 0 .738.054 1.188.162v1.008c-.486.36-1.008.54-1.584.54-.648 0-1.098-.342-1.098-.792zm10.172-1.764c0-1.368.522-2.142 1.53-2.142.882 0 1.35.648 1.35 1.638V60h2.556v-4.698c0-1.224.576-1.962 1.53-1.962.882 0 1.35.648 1.35 1.638V60h2.556v-5.13c0-2.502-1.332-3.906-3.69-3.906-1.062 0-1.944.36-2.646 1.062-.612-.702-1.422-1.062-2.448-1.062-.846 0-1.548.27-2.124.828v-.612h-2.52V60h2.556v-4.518zm21.03 0c0-1.206-.378-2.268-1.116-3.168-.738-.9-1.782-1.35-3.132-1.35-1.278 0-2.323.45-3.132 1.332-.81.882-1.206 1.998-1.206 3.348 0 1.368.432 2.466 1.314 3.312.882.828 1.98 1.242 3.33 1.242 1.566 0 2.826-.594 3.78-1.782l-1.692-1.584c-.54.684-1.26 1.026-2.16 1.026-1.098 0-1.836-.666-1.98-1.62h5.976l.018-.756zm-4.194-2.268c.846 0 1.44.576 1.494 1.314h-3.168c.162-.774.756-1.314 1.674-1.314zm11.355-2.142c-.162-.018-.396-.018-.684-.018-.954 0-1.674.306-2.196.918v-.792h-2.52V60h2.556v-3.69c0-1.8.954-2.772 2.448-2.772h.396v-2.466zm3.871 9.126c.9 0 1.638-.252 2.232-.774V60h2.538v-5.508c0-1.098-.36-1.944-1.098-2.574-.738-.63-1.656-.954-2.772-.954-1.494 0-2.718.576-3.69 1.746l1.62 1.548c.45-.684 1.08-1.026 1.89-1.026.918 0 1.476.594 1.476 1.44v.144a6.527 6.527 0 00-1.764-.252c-.99 0-1.818.252-2.484.738-.666.486-1.008 1.188-1.008 2.106 0 1.638 1.188 2.79 3.06 2.79zm-.486-2.952c0-.558.54-.918 1.494-.918.342 0 .738.054 1.188.162v1.008c-.486.36-1.008.54-1.584.54-.648 0-1.098-.342-1.098-.792z"/>
  <path fill="#BFA2FF" d="M14 45h30v19H14z"/>
  <path fill="#BFA1FF" d="M41 54.5l10.5-8.227v16.454L41 54.5z"/>
  <rect width="91" height="31" x="247" y="84" fill="#FF8A00" rx="5"/>
  <path fill="#fff" d="M274.13 92.382L269.198 105h2.772l.99-2.484h4.878l1.008 2.484h2.772l-4.932-12.618h-2.556zm2.844 7.758h-3.132l1.566-4.122 1.566 4.122zm8.53 4.86V92.382h-2.556V105h2.556zm5.01 0V92.382h-2.556V105h2.556zm3.089-1.116c.882.882 1.998 1.314 3.33 1.314s2.448-.432 3.33-1.314c.882-.882 1.332-1.98 1.332-3.294s-.45-2.412-1.35-3.294c-.882-.882-1.998-1.332-3.312-1.332-1.314 0-2.43.45-3.33 1.332-.882.882-1.332 1.98-1.332 3.294s.45 2.412 1.332 3.294zm1.854-4.896c.378-.414.882-.63 1.476-.63s1.098.216 1.476.63c.378.414.576.954.576 1.602 0 .648-.198 1.188-.576 1.602-.378.414-.882.63-1.476.63s-1.098-.216-1.476-.63c-.378-.414-.576-.954-.576-1.602 0-.648.198-1.188.576-1.602zm12.101-2.808l-1.44 5.274-1.26-5.274h-2.736l2.484 8.82h2.79l1.584-5.436 1.584 5.436h2.79l2.484-8.82h-2.736l-1.242 5.274-1.458-5.274h-2.844z"/>
</svg>
