<svg xmlns="http://www.w3.org/2000/svg" fill="none" viewBox="0 0 1389 1243">
  <path stroke="#E7FFA1" stroke-width="20" d="M10 3s16.392 58.876 61 73.5c40.489 13.273 70.266-30.307 108.5-11.5 34.464 16.953 22.902 61.89 56.5 80.5 43.595 24.147 127-12.5 127-12.5M97 968s16.392 58.88 61 73.5c40.489 13.27 70.266-30.31 108.5-11.5 34.464 16.95 22.902 61.89 56.5 80.5 43.595 24.15 127-12.5 127-12.5"/>
  <path stroke="#FFC3EE" stroke-width="20" d="M238 669s16.392 58.876 61 73.5c40.489 13.274 70.266-30.307 108.5-11.5 34.464 16.953 22.902 61.89 56.5 80.5 43.595 24.147 127-12.5 127-12.5M1008 1082s16.39 58.88 61 73.5c40.49 13.27 70.27-30.31 108.5-11.5 34.46 16.95 22.9 61.89 56.5 80.5 43.6 24.15 127-12.5 127-12.5" opacity=".9"/>
  <path stroke="#E7FFA1" stroke-width="20" d="M1031 700s16.39 58.876 61 73.5c40.49 13.274 70.27-30.307 108.5-11.5 34.46 16.953 22.9 61.89 56.5 80.5 43.6 24.147 127-12.5 127-12.5"/>
</svg>
