<svg xmlns="http://www.w3.org/2000/svg" width="701" height="177" fill="none">
  <path fill="#B44A41" d="M613.804 10.966a5.91 5.91 0 00-4.283 3.311 5.921 5.921 0 00.204 5.41 71.303 71.303 0 015.099 11.196 22.036 22.036 0 00-13.81-4.691 63.622 63.622 0 00-24.841 6.685 1.616 1.616 0 00.988 3.04 17.757 17.757 0 0111.261 1.885 10.18 10.18 0 012.567 1.956 23.989 23.989 0 009.396 6.097 16.464 16.464 0 00-7.026 5.365 31.696 31.696 0 00-21.126 22.693 45.06 45.06 0 001.269 25.594 97.848 97.848 0 0056.873 64.711 24.078 24.078 0 0026.097-5.035 97.846 97.846 0 0028.712-81.223 45.06 45.06 0 00-8.338-24.23 31.687 31.687 0 00-26.931-13.263 19.38 19.38 0 00-9.049-2.155 29.198 29.198 0 007.194-10.3 6.384 6.384 0 01.878-1.502 19.373 19.373 0 0110.586-6.842 1.613 1.613 0 00.869-2.586 1.613 1.613 0 00-.903-.56 36.608 36.608 0 00-35.393 11.532 80.191 80.191 0 00-3.667-13.334 5.917 5.917 0 00-6.626-3.753zm.443 2.421a3.449 3.449 0 013.866 2.187 77.792 77.792 0 014.763 30.553.987.987 0 01-1.97.07 73.714 73.714 0 00-9.03-27.729 3.445 3.445 0 012.372-5.081h-.001zm30.218 5.48a34.14 34.14 0 0111.177-.501 21.843 21.843 0 00-8.641 6.613 8.837 8.837 0 00-1.222 2.085 26.726 26.726 0 01-8.473 11.017 1.612 1.612 0 00-.514 1.92 1.613 1.613 0 001.739.964 16.91 16.91 0 0117.84 9.627c.257.552.57 1.077.935 1.566a20.542 20.542 0 0010.744 7.472 33.479 33.479 0 01-33.825-6.925 1.616 1.616 0 00-2.537 1.925 26.89 26.89 0 01-1.534 27.114 18.444 18.444 0 00-5.629-10.352 18.604 18.604 0 01-8.53-14.915 1.611 1.611 0 00-1.299-1.52 1.618 1.618 0 00-1.781.91 34.744 34.744 0 01-30.241 20.228 27.533 27.533 0 003.588-3.222 20.263 20.263 0 004.906-9.136 63.382 63.382 0 012.784-8.78 13.991 13.991 0 019.782-7.54 1.613 1.613 0 00.95-2.593 1.613 1.613 0 00-.921-.57 21.523 21.523 0 01-10.991-6.197 12.659 12.659 0 00-3.175-2.429 20.225 20.225 0 00-8.331-2.372 61.153 61.153 0 0119.842-4.595 19.564 19.564 0 0115.287 7.18 71.276 71.276 0 012.053 10.641 3.452 3.452 0 005.848 2.038 3.454 3.454 0 001.029-2.28l.022-.005c.227-4.995-.013-10-.718-14.95a34.134 34.134 0 0119.841-12.418h-.005zM591.45 54.57a65.997 65.997 0 00-2.686 8.592 17.803 17.803 0 01-4.316 8.03 25.111 25.111 0 01-5.399 4.37 1.62 1.62 0 00-.738 1.78 1.615 1.615 0 001.493 1.219 37.21 37.21 0 0034.035-19.075 21.073 21.073 0 009.153 13.858 15.982 15.982 0 014.937 10.771 1.612 1.612 0 001.124 1.46 1.615 1.615 0 001.76-.544 29.365 29.365 0 004.515-28.188 35.948 35.948 0 0036.264 4.021h.006a1.617 1.617 0 00.476-2.61 1.614 1.614 0 00-.91-.458 18.077 18.077 0 01-11.879-7.108 6.363 6.363 0 01-.673-1.13 19.38 19.38 0 00-4.908-6.517 29.225 29.225 0 0121.126 12.125 42.595 42.595 0 017.886 22.991 95.391 95.391 0 01-27.971 79.262 21.613 21.613 0 01-23.428 4.52 95.377 95.377 0 01-55.45-63.167 42.588 42.588 0 01-1.233-24.275A29.223 29.223 0 01591.45 54.57z"/>
  <path fill="#B44A41" d="M645.612 103.725a6.64 6.64 0 00-1.332-6.905 2.373 2.373 0 00-3.249-.2 2.373 2.373 0 00-.69.96 6.633 6.633 0 001.332 6.905 2.37 2.37 0 003.939-.76zM671.634 78.028a6.632 6.632 0 00-1.332-6.904 2.36 2.36 0 00-2.185-.716 2.37 2.37 0 00-1.763 1.477 6.632 6.632 0 001.332 6.904 2.373 2.373 0 002.186.716 2.365 2.365 0 001.762-1.477zM596.07 90.125a6.633 6.633 0 00-1.332-6.904 2.372 2.372 0 00-3.258-.205c-.308.258-.545.59-.69.966a6.64 6.64 0 001.332 6.905 2.37 2.37 0 003.948-.762zM674.098 96.38a6.633 6.633 0 00-1.332-6.904 2.373 2.373 0 00-2.186-.716 2.365 2.365 0 00-1.762 1.477 6.632 6.632 0 001.332 6.905 2.362 2.362 0 002.185.715 2.368 2.368 0 001.763-1.477zM646.667 149.412a6.632 6.632 0 00-1.332-6.905 2.364 2.364 0 00-3.259-.205 2.38 2.38 0 00-.69.967 6.641 6.641 0 001.332 6.905 2.368 2.368 0 002.186.715 2.37 2.37 0 001.763-1.477zM659.972 133.365c.448-1.16.56-2.423.324-3.643a6.624 6.624 0 00-1.656-3.261 2.367 2.367 0 00-3.949.762 6.64 6.64 0 001.332 6.904 2.36 2.36 0 002.186.715 2.37 2.37 0 001.763-1.477zM606.349 132.576a6.644 6.644 0 00.324-3.644 6.649 6.649 0 00-1.656-3.261 2.37 2.37 0 00-3.949.762 6.631 6.631 0 001.332 6.905 2.365 2.365 0 002.186.715 2.367 2.367 0 001.763-1.477zM627.711 144.942a6.632 6.632 0 00-1.332-6.905 2.371 2.371 0 00-2.18-.709 2.372 2.372 0 00-1.76 1.469 6.644 6.644 0 00-.324 3.644 6.645 6.645 0 001.656 3.261 2.373 2.373 0 003.94-.76zM641.184 127.558a6.631 6.631 0 00-1.332-6.905 2.371 2.371 0 00-3.948.762 6.64 6.64 0 001.332 6.905 2.38 2.38 0 002.186.715 2.378 2.378 0 001.762-1.477zM618.814 117.211a6.632 6.632 0 00-1.332-6.905 2.365 2.365 0 00-2.185-.714 2.365 2.365 0 00-1.763 1.476 6.634 6.634 0 001.333 6.904 2.36 2.36 0 002.185.715 2.367 2.367 0 001.762-1.476zM597.109 109.113a6.631 6.631 0 00-1.332-6.905 2.37 2.37 0 00-3.949.762 6.64 6.64 0 001.332 6.905 2.37 2.37 0 003.949-.762zM613.452 93.858a6.627 6.627 0 00-1.332-6.904 2.365 2.365 0 00-3.249-.202 2.369 2.369 0 00-.691.962 6.636 6.636 0 001.333 6.904 2.364 2.364 0 002.18.709 2.372 2.372 0 001.759-1.47zM661.032 112.757a6.64 6.64 0 00-1.332-6.904 2.37 2.37 0 00-3.949.761 6.64 6.64 0 001.332 6.905 2.37 2.37 0 003.949-.762zM657.833 88.292a6.632 6.632 0 00-1.332-6.905 2.362 2.362 0 00-2.185-.715 2.364 2.364 0 00-1.763 1.477 6.627 6.627 0 001.332 6.904 2.368 2.368 0 003.948-.761zM629.528 103.974a6.635 6.635 0 00-1.332-6.905 2.37 2.37 0 00-3.939.76 6.64 6.64 0 001.332 6.905 2.366 2.366 0 003.939-.76zM349.613 49a23.533 23.533 0 00-2.076.083 90.295 90.295 0 00-82.455 82.455 23.558 23.558 0 007.148 18.943 66.66 66.66 0 0094.25-94.25 23.564 23.564 0 00-16.867-7.229V49zm-1.083 2.4a21.181 21.181 0 0122.074 22.925 87.913 87.913 0 01-80.283 80.282 21.188 21.188 0 01-16.742-6.131 21.199 21.199 0 01-4.912-7.695 21.189 21.189 0 01-1.216-9.048 87.914 87.914 0 0181.083-80.34l-.004.007zm24.044 16.377a64.282 64.282 0 01-47.217 98.574 64.28 64.28 0 01-41.59-9.783c2.222.461 4.499.599 6.76.408a90.294 90.294 0 0082.456-82.455c.188-2.256.05-4.528-.41-6.744h.001z"/>
  <path fill="#B44A41" d="M289.443 123.003a8.18 8.18 0 003.825 5.682 8.182 8.182 0 006.804.785 71.155 71.155 0 0045.4-45.4 8.184 8.184 0 00-6.463-10.632 43.212 43.212 0 00-49.566 49.565zM66.527 73.004a.739.739 0 00-.314.085 71.109 71.109 0 00-24.527 21.499 19.076 19.076 0 00-7.143-10.079 12.642 12.642 0 00-3.469-1.761 25.935 25.935 0 00-17.743.595 1.534 1.534 0 00-.87 1.932 25.935 25.935 0 0011.295 13.698 12.65 12.65 0 003.62 1.433c3.675.832 7.514.556 11.032-.792a71.11 71.11 0 00-8.984 24.602 5.549 5.549 0 01-1.848-1.687 11.366 11.366 0 00-14.019-3.919 22.99 22.99 0 00-6.68 37.363 27.092 27.092 0 0021.127 7.688 22.992 22.992 0 0021.163-22.104 22.988 22.988 0 00-2.275-10.815 11.366 11.366 0 00-13.257-6.01 5.558 5.558 0 01-2.803.038A69.632 69.632 0 0147.63 89.51a70.523 70.523 0 0028.208 26.464 5.548 5.548 0 01-1.89.145 11.361 11.361 0 00-12.016 8.218 22.988 22.988 0 0024.323 29.141 27.11 27.11 0 0019.475-11.241 22.995 22.995 0 002.863-21.269 22.994 22.994 0 00-15.945-14.365 11.359 11.359 0 00-13.12 6.293 5.56 5.56 0 01-1.953 2.299 69.044 69.044 0 01-28.908-26.822 69.633 69.633 0 0118.242-13.985.738.738 0 00-.387-1.387l.006.003zm-43.11 9.938c2.45.039 4.88.446 7.21 1.207a11.17 11.17 0 013.064 1.558 17.6 17.6 0 016.693 9.67 1.902 1.902 0 01-.996 2.204h-.08a17.6 17.6 0 01-11.683 1.382 11.163 11.163 0 01-3.193-1.265 24.46 24.46 0 01-10.654-12.915v-.005l-.005-.004a.055.055 0 010-.019v-.004c0-.007.002-.013.005-.019v-.004c0-.006.001-.013.004-.019a.085.085 0 00.004-.004.05.05 0 00.004-.004.055.055 0 00.004-.005l.004-.004a.04.04 0 00.005 0v-.004a.055.055 0 00.004-.004h.004a.056.056 0 00.004.004.038.038 0 00.004.004 24.462 24.462 0 019.529-1.77l.068.02zm65.933 24.805a9.91 9.91 0 012.94.292 21.516 21.516 0 0116.04 23.726 21.52 21.52 0 01-3.804 9.618 25.624 25.624 0 01-14.597 9.971l-.282.028a21.52 21.52 0 01-20.906-5.655 21.517 21.517 0 01-5.394-20.975 9.885 9.885 0 0110.453-7.155 7.037 7.037 0 007.064-4.078 9.888 9.888 0 018.483-5.764l.003-.008zm-71.448 11.345a9.892 9.892 0 018.463 4.273 7.04 7.04 0 003.387 2.618 7.039 7.039 0 004.277.169 9.889 9.889 0 0111.54 5.231 21.512 21.512 0 01-21.274 30.79l-.282.029a25.623 25.623 0 01-16.1-7.285 21.514 21.514 0 016.259-34.963 9.895 9.895 0 013.731-.863l-.001.001z"/>
</svg>
