<svg xmlns="http://www.w3.org/2000/svg" fill="none" viewBox="0 0 316 404">
  <path fill="#BFA1FF" stroke="#fff" stroke-width="12.365" d="M309.53 6.182v256.361H6.182V6.183z"/>
  <path stroke="#fff" stroke-width="12.365" d="M158.68 268.313l-61 132.714"/>
  <path fill="#fff" stroke="#fff" stroke-width=".824" d="M92.323 398.966l11.128 4.534H91.086l1.237-4.534zM225.037 398.966l-11.128 4.534h12.364l-1.236-4.534z"/>
  <path stroke="#fff" stroke-width="12.365" d="M219.679 401.027L158.68 268.313M157.856 380.007l.824-111.282"/>
  <path fill="#fff" d="M42.713 70.634h5.12V85h3.77V70.634h5.12v-3.49h-14.01v3.49zM62.67 78.76c0-2.115.764-3.184 2.292-3.184 1.4 0 2.063 1.019 2.063 2.445V85h3.642v-7.26c0-3.489-2.012-5.526-5.094-5.526-1.197 0-2.165.33-2.904 1.018v-6.087h-3.616V85h3.617v-6.24zm22.346-.153c0-1.707-.535-3.21-1.58-4.483-1.044-1.274-2.521-1.91-4.431-1.91-1.809 0-3.286.636-4.433 1.884-1.146 1.248-1.706 2.828-1.706 4.738 0 1.936.611 3.49 1.86 4.687 1.247 1.171 2.801 1.757 4.712 1.757 2.216 0 3.999-.84 5.348-2.522l-2.394-2.24c-.764.967-1.783 1.45-3.056 1.45-1.554 0-2.598-.942-2.802-2.291h8.456l.026-1.07zm-5.935-3.21c1.197 0 2.038.815 2.114 1.86h-4.483c.23-1.096 1.07-1.86 2.369-1.86zM107.918 85v-3.49h-9.374v-3.897h8.941v-3.438h-8.94v-3.54h9.373v-3.49H94.749V85h13.169zm6.812.28c1.273 0 2.317-.356 3.158-1.095V85h3.591v-7.794c0-1.554-.509-2.751-1.553-3.643-1.045-.891-2.344-1.35-3.923-1.35-2.114 0-3.846.816-5.221 2.471l2.292 2.19c.637-.967 1.528-1.451 2.674-1.451 1.299 0 2.089.84 2.089 2.037v.204a9.24 9.24 0 00-2.496-.356c-1.401 0-2.573.356-3.515 1.044-.943.688-1.426 1.681-1.426 2.98 0 2.318 1.681 3.948 4.33 3.948zm-.688-4.177c0-.79.764-1.3 2.114-1.3.484 0 1.044.077 1.681.23v1.427c-.688.509-1.426.764-2.241.764-.917 0-1.554-.484-1.554-1.121zm15.827-.459c.739.179 1.121.459 1.121.79 0 .484-.663.815-1.401.815-1.248 0-2.446-.56-3.566-1.655l-2.216 2.266c1.044 1.325 3.158 2.42 5.476 2.42 3.184 0 5.222-1.655 5.222-4.024 0-2.114-1.376-3.49-4.101-4.127l-1.86-.433c-.585-.127-.891-.356-.891-.662 0-.407.458-.739 1.172-.739.993 0 1.961.408 2.954 1.223l2.216-2.343c-1.452-1.3-3.133-1.962-5.018-1.962-1.35 0-2.496.357-3.438 1.096-.943.713-1.401 1.655-1.401 2.853 0 2.037 1.35 3.387 4.075 4.075l1.656.407zm18.401-2.037c0-1.707-.535-3.21-1.579-4.483-1.045-1.274-2.522-1.91-4.432-1.91-1.809 0-3.286.636-4.432 1.884-1.147 1.248-1.707 2.828-1.707 4.738 0 1.936.611 3.49 1.859 4.687 1.249 1.171 2.802 1.757 4.713 1.757 2.216 0 3.999-.84 5.349-2.522l-2.395-2.24c-.764.967-1.783 1.45-3.056 1.45-1.554 0-2.598-.942-2.802-2.291h8.456l.026-1.07zm-5.935-3.21c1.197 0 2.038.815 2.114 1.86h-4.483c.229-1.096 1.07-1.86 2.369-1.86zM154.38 85V67.145h-3.617V85h3.617zm14.082 0V72.52h-3.642V85h3.642zm-3.922-16.021c0 1.146.942 2.088 2.088 2.088 1.146 0 2.114-.942 2.114-2.088 0-1.198-.917-2.114-2.114-2.114a2.087 2.087 0 00-2.088 2.114zm12.59 11.665c.739.179 1.121.459 1.121.79 0 .484-.663.815-1.401.815-1.248 0-2.446-.56-3.566-1.655l-2.216 2.266c1.044 1.325 3.158 2.42 5.476 2.42 3.184 0 5.222-1.655 5.222-4.024 0-2.114-1.376-3.49-4.101-4.127l-1.86-.433c-.585-.127-.891-.356-.891-.662 0-.407.458-.739 1.172-.739.993 0 1.961.408 2.954 1.223l2.216-2.343c-1.452-1.3-3.133-1.962-5.018-1.962-1.35 0-2.496.357-3.438 1.096-.943.713-1.401 1.655-1.401 2.853 0 2.037 1.35 3.387 4.075 4.075l1.656.407zm17.819 4.636c1.274 0 2.318-.356 3.158-1.095V85h3.592v-7.794c0-1.554-.51-2.751-1.554-3.643-1.044-.891-2.343-1.35-3.922-1.35-2.115 0-3.847.816-5.222 2.471l2.292 2.19c.637-.967 1.529-1.451 2.675-1.451 1.299 0 2.088.84 2.088 2.037v.204a9.234 9.234 0 00-2.496-.356c-1.401 0-2.572.356-3.515 1.044-.942.688-1.426 1.681-1.426 2.98 0 2.318 1.681 3.948 4.33 3.948zm-.688-4.177c0-.79.764-1.3 2.114-1.3.484 0 1.045.077 1.681.23v1.427c-.687.509-1.426.764-2.241.764-.917 0-1.554-.484-1.554-1.121zM42.866 106.76c0 1.961.586 3.54 1.783 4.737s2.7 1.783 4.457 1.783c1.35 0 2.446-.382 3.26-1.171V113h3.567V95.145h-3.617v6.164c-.84-.739-1.91-1.096-3.21-1.096-1.757 0-3.26.612-4.457 1.834-1.197 1.198-1.783 2.777-1.783 4.713zm8.66 2.343c-.535.611-1.222.917-2.063.917-.84 0-1.528-.306-2.089-.917-.535-.611-.815-1.401-.815-2.343 0-.943.28-1.732.815-2.344.56-.611 1.248-.917 2.09-.917.84 0 1.527.306 2.062.917.56.612.84 1.401.84 2.344 0 .942-.28 1.732-.84 2.343zM63.194 113v-12.481h-3.642V113h3.642zm-3.922-16.021c0 1.146.942 2.088 2.089 2.088 1.146 0 2.114-.942 2.114-2.088 0-1.198-.917-2.114-2.114-2.114a2.087 2.087 0 00-2.09 2.114zm15.672 15.13c0 1.655-1.222 2.776-3.133 2.776-1.35 0-2.394-.535-3.133-1.605l-2.521 2.42c1.35 1.681 3.234 2.522 5.68 2.522 2.114 0 3.744-.612 4.941-1.809 1.197-1.197 1.809-2.776 1.809-4.712v-11.182H75.02v.892a4.478 4.478 0 00-3.108-1.198c-1.706 0-3.133.561-4.33 1.682-1.197 1.12-1.783 2.649-1.783 4.584 0 1.911.56 3.439 1.707 4.56 1.146 1.12 2.623 1.681 4.406 1.681 1.3 0 2.318-.306 3.031-.943v.332zm.077-5.63c0 1.732-1.223 2.955-2.777 2.955-1.528 0-2.75-1.223-2.75-2.955 0-1.757 1.222-2.98 2.75-2.98 1.554 0 2.777 1.223 2.777 2.98zM85.805 113v-12.481h-3.642V113h3.642zm-3.923-16.021c0 1.146.943 2.088 2.09 2.088 1.145 0 2.113-.942 2.113-2.088 0-1.198-.917-2.114-2.114-2.114a2.087 2.087 0 00-2.089 2.114zm12.081 16.072c.663 0 1.325-.026 1.962-.051v-3.311h-1.07c-1.12 0-1.656-.331-1.656-1.529v-4.304h2.777v-3.337h-2.777v-3.49h-3.591v3.49h-1.63v3.337h1.63v4.737c0 2.981 1.452 4.458 4.355 4.458zm8.354.229c1.274 0 2.318-.356 3.159-1.095V113h3.591v-7.794c0-1.554-.509-2.751-1.553-3.643-1.045-.891-2.344-1.35-3.923-1.35-2.114 0-3.846.816-5.222 2.471l2.293 2.191c.637-.968 1.528-1.452 2.674-1.452 1.299 0 2.089.84 2.089 2.038v.203a9.246 9.246 0 00-2.496-.356c-1.401 0-2.573.356-3.515 1.044-.943.688-1.427 1.681-1.427 2.98 0 2.318 1.681 3.948 4.33 3.948zm-.687-4.177c0-.79.764-1.299 2.114-1.299.484 0 1.044.076 1.681.229v1.427c-.688.509-1.427.764-2.242.764-.917 0-1.553-.484-1.553-1.121zM116.024 113V95.145h-3.617V113h3.617zm19.202-4.738c-.841 1.096-1.809 1.631-2.904 1.631-1.732 0-3.031-1.3-3.031-3.133 0-1.834 1.299-3.133 3.031-3.133.968 0 1.859.484 2.649 1.451l2.445-2.368c-1.503-1.656-3.235-2.497-5.221-2.497-1.86 0-3.439.637-4.712 1.885-1.249 1.248-1.885 2.802-1.885 4.662 0 1.859.636 3.413 1.885 4.661 1.248 1.248 2.827 1.859 4.712 1.859 2.318 0 4.126-.891 5.476-2.649l-2.445-2.369zm8.383 5.018c1.273 0 2.317-.356 3.158-1.095V113h3.591v-7.794c0-1.554-.509-2.751-1.553-3.643-1.045-.891-2.344-1.35-3.923-1.35-2.114 0-3.846.816-5.221 2.471l2.292 2.191c.637-.968 1.528-1.452 2.674-1.452 1.299 0 2.089.84 2.089 2.038v.203a9.246 9.246 0 00-2.496-.356c-1.401 0-2.573.356-3.515 1.044-.943.688-1.427 1.681-1.427 2.98 0 2.318 1.682 3.948 4.331 3.948zm-.688-4.177c0-.79.764-1.299 2.114-1.299.484 0 1.044.076 1.681.229v1.427c-.688.509-1.426.764-2.241.764-.917 0-1.554-.484-1.554-1.121zm14.394-2.343c0-2.115.764-3.184 2.292-3.184 1.401 0 2.063 1.019 2.063 2.445V113h3.643v-7.259c0-3.49-2.012-5.528-5.094-5.528-1.147 0-2.14.383-2.955 1.172v-.866h-3.566V113h3.617v-6.24zm17.771-6.241l-2.445 7.718-2.445-7.718h-3.846L170.782 113h3.719l4.432-12.481h-3.847zm8.918 12.761c1.274 0 2.318-.356 3.159-1.095V113h3.591v-7.794c0-1.554-.509-2.751-1.554-3.643-1.044-.891-2.343-1.35-3.922-1.35-2.114 0-3.846.816-5.222 2.471l2.293 2.191c.636-.968 1.528-1.452 2.674-1.452 1.299 0 2.089.84 2.089 2.038v.203a9.246 9.246 0 00-2.496-.356c-1.401 0-2.573.356-3.515 1.044-.943.688-1.427 1.681-1.427 2.98 0 2.318 1.681 3.948 4.33 3.948zm-.687-4.177c0-.79.764-1.299 2.114-1.299.484 0 1.044.076 1.681.229v1.427c-.688.509-1.427.764-2.242.764-.917 0-1.553-.484-1.553-1.121zm15.827-.459c.738.179 1.12.459 1.12.79 0 .484-.662.815-1.401.815-1.248 0-2.445-.56-3.566-1.656l-2.216 2.267c1.045 1.325 3.159 2.42 5.477 2.42 3.184 0 5.221-1.655 5.221-4.024 0-2.114-1.375-3.49-4.101-4.127l-1.859-.433c-.586-.127-.891-.356-.891-.662 0-.407.458-.739 1.171-.739.994 0 1.962.408 2.955 1.223l2.216-2.343c-1.452-1.299-3.133-1.962-5.018-1.962-1.35 0-2.496.357-3.439 1.096-.942.713-1.4 1.655-1.4 2.852 0 2.038 1.35 3.388 4.075 4.076l1.656.407zm17.819 4.636c1.273 0 2.318-.356 3.158-1.095V113h3.592v-7.794c0-1.554-.51-2.751-1.554-3.643-1.045-.891-2.344-1.35-3.923-1.35-2.114 0-3.846.816-5.221 2.471l2.292 2.191c.637-.968 1.528-1.452 2.674-1.452 1.3 0 2.089.84 2.089 2.038v.203a9.24 9.24 0 00-2.496-.356c-1.401 0-2.573.356-3.515 1.044-.943.688-1.426 1.681-1.426 2.98 0 2.318 1.681 3.948 4.33 3.948zm-.688-4.177c0-.79.764-1.299 2.114-1.299.484 0 1.044.076 1.681.229v1.427c-.688.509-1.426.764-2.241.764-.917 0-1.554-.484-1.554-1.121zm14.394-2.343c0-2.115.764-3.184 2.292-3.184 1.401 0 2.064 1.019 2.064 2.445V113h3.642v-7.259c0-3.49-2.012-5.528-5.094-5.528-1.147 0-2.14.383-2.955 1.172v-.866h-3.566V113h3.617v-6.24zm10.171 0c0 1.961.586 3.54 1.783 4.737s2.7 1.783 4.457 1.783c1.35 0 2.446-.382 3.261-1.171V113h3.566V95.145h-3.617v6.164c-.841-.739-1.911-1.096-3.21-1.096-1.757 0-3.26.612-4.457 1.834-1.197 1.198-1.783 2.777-1.783 4.713zm8.66 2.343c-.535.611-1.223.917-2.063.917-.841 0-1.528-.306-2.089-.917-.535-.611-.815-1.401-.815-2.343 0-.943.28-1.732.815-2.344.561-.611 1.248-.917 2.089-.917.84 0 1.528.306 2.063.917.56.612.841 1.401.841 2.344 0 .942-.281 1.732-.841 2.343zM44.776 139.421c1.248 1.248 2.828 1.859 4.712 1.859 1.885 0 3.465-.611 4.713-1.859 1.248-1.248 1.885-2.802 1.885-4.661 0-1.86-.637-3.414-1.91-4.662-1.249-1.248-2.828-1.885-4.688-1.885-1.859 0-3.438.637-4.712 1.885-1.248 1.248-1.885 2.802-1.885 4.662 0 1.859.637 3.413 1.885 4.661zm2.624-6.928c.535-.586 1.248-.892 2.089-.892.84 0 1.553.306 2.088.892.535.585.815 1.35.815 2.267 0 .917-.28 1.681-.815 2.266-.535.586-1.248.892-2.088.892-.841 0-1.554-.306-2.09-.892-.534-.585-.814-1.349-.814-2.266s.28-1.682.815-2.267zm14.796 2.267c0-2.115.764-3.184 2.292-3.184 1.401 0 2.063 1.019 2.063 2.445V141h3.643v-7.259c0-3.49-2.012-5.528-5.094-5.528-1.147 0-2.14.383-2.955 1.172v-.866h-3.566V141h3.617v-6.24zm14.8 6.24v-17.855h-3.617V141h3.617zm7.242 0v-12.481h-3.642V141h3.642zm-3.923-16.021c0 1.146.943 2.088 2.09 2.088 1.145 0 2.113-.942 2.113-2.088 0-1.198-.917-2.114-2.114-2.114a2.087 2.087 0 00-2.089 2.114zm11.158 9.781c0-2.115.764-3.184 2.292-3.184 1.401 0 2.063 1.019 2.063 2.445V141h3.643v-7.259c0-3.49-2.012-5.528-5.095-5.528-1.146 0-2.139.383-2.954 1.172v-.866h-3.566V141h3.617v-6.24zm22.346-.153c0-1.707-.535-3.21-1.579-4.483-1.045-1.274-2.522-1.911-4.432-1.911-1.809 0-3.286.637-4.432 1.885-1.146 1.248-1.707 2.828-1.707 4.738 0 1.936.612 3.49 1.86 4.687 1.248 1.171 2.801 1.757 4.712 1.757 2.216 0 3.999-.84 5.349-2.521l-2.395-2.242c-.764.968-1.782 1.452-3.056 1.452-1.554 0-2.598-.943-2.802-2.292h8.457l.025-1.07zm-5.935-3.21c1.197 0 2.038.815 2.114 1.86h-4.483c.23-1.096 1.07-1.86 2.369-1.86zm24.431 4.865c-.84 1.096-1.808 1.631-2.903 1.631-1.732 0-3.031-1.3-3.031-3.133 0-1.834 1.299-3.133 3.031-3.133.968 0 1.859.484 2.649 1.451l2.445-2.368c-1.503-1.656-3.235-2.497-5.222-2.497-1.859 0-3.438.637-4.712 1.885-1.248 1.248-1.885 2.802-1.885 4.662 0 1.859.637 3.413 1.885 4.661 1.248 1.248 2.828 1.859 4.712 1.859 2.318 0 4.127-.891 5.477-2.649l-2.446-2.369zm5.541 3.159c1.248 1.248 2.827 1.859 4.712 1.859 1.885 0 3.464-.611 4.712-1.859 1.248-1.248 1.885-2.802 1.885-4.661 0-1.86-.637-3.414-1.91-4.662-1.249-1.248-2.828-1.885-4.687-1.885-1.86 0-3.439.637-4.712 1.885-1.248 1.248-1.885 2.802-1.885 4.662 0 1.859.637 3.413 1.885 4.661zm2.623-6.928c.535-.586 1.248-.892 2.089-.892.84 0 1.554.306 2.088.892.535.585.816 1.35.816 2.267 0 .917-.281 1.681-.816 2.266-.534.586-1.248.892-2.088.892-.841 0-1.554-.306-2.089-.892-.535-.585-.815-1.349-.815-2.266s.28-1.682.815-2.267zm14.796 2.114c0-1.936.739-3.031 2.165-3.031 1.248 0 1.911.917 1.911 2.318V141h3.616v-6.648c0-1.732.816-2.776 2.166-2.776 1.248 0 1.91.917 1.91 2.318V141h3.617v-7.259c0-3.541-1.885-5.528-5.222-5.528-1.503 0-2.751.51-3.744 1.503-.866-.993-2.012-1.503-3.464-1.503-1.197 0-2.191.383-3.006 1.172v-.866h-3.566V141h3.617v-6.393zm22.213 0c0-1.936.739-3.031 2.165-3.031 1.248 0 1.91.917 1.91 2.318V141h3.617v-6.648c0-1.732.815-2.776 2.165-2.776 1.248 0 1.911.917 1.911 2.318V141h3.616v-7.259c0-3.541-1.884-5.528-5.221-5.528-1.503 0-2.751.51-3.744 1.503-.866-.993-2.013-1.503-3.464-1.503-1.198 0-2.191.383-3.006 1.172v-.866h-3.566V141h3.617v-6.393zm25.982.305c0 2.013-.713 3.031-2.139 3.031-1.248 0-1.911-.917-1.911-2.317v-7.107h-3.642v7.259c0 3.49 1.732 5.502 4.661 5.502 1.325 0 2.369-.382 3.108-1.146V141h3.566v-12.481h-3.643v6.393zm10.732-.152c0-2.115.764-3.184 2.293-3.184 1.401 0 2.063 1.019 2.063 2.445V141h3.642v-7.259c0-3.49-2.012-5.528-5.094-5.528-1.146 0-2.14.383-2.955 1.172v-.866h-3.566V141h3.617v-6.24zm14.953 6.24v-12.481h-3.642V141h3.642zm-3.922-16.021c0 1.146.942 2.088 2.088 2.088 1.146 0 2.114-.942 2.114-2.088 0-1.198-.917-2.114-2.114-2.114a2.086 2.086 0 00-2.088 2.114zm12.081 16.072c.662 0 1.324-.026 1.961-.051v-3.311h-1.07c-1.121 0-1.656-.331-1.656-1.529v-4.304h2.777v-3.337h-2.777v-3.489h-3.591v3.489h-1.63v3.337h1.63v4.737c0 2.981 1.452 4.458 4.356 4.458zm16.912-12.532h-3.872l-2.904 7.718-2.801-7.718h-4.025L245.489 141l-2.037 4.941h3.82l6.954-17.422zM48.419 169.051c.662 0 1.324-.026 1.961-.051v-3.311h-1.07c-1.12 0-1.655-.331-1.655-1.529v-4.304h2.776v-3.337h-2.776v-3.489h-3.592v3.489h-1.63v3.337h1.63v4.737c0 2.981 1.452 4.458 4.356 4.458zm8.38-6.291c0-2.115.763-3.184 2.292-3.184 1.4 0 2.063 1.019 2.063 2.445V169h3.642v-7.259c0-3.49-2.012-5.528-5.094-5.528-1.197 0-2.165.332-2.904 1.019v-6.087h-3.617V169h3.617v-6.24zm14.5 6.52c1.274 0 2.318-.356 3.159-1.095V169h3.591v-7.794c0-1.554-.51-2.751-1.554-3.643-1.044-.891-2.343-1.35-3.922-1.35-2.114 0-3.846.816-5.222 2.471l2.293 2.191c.636-.968 1.528-1.452 2.674-1.452 1.3 0 2.089.84 2.089 2.038v.203a9.245 9.245 0 00-2.496-.356c-1.401 0-2.573.356-3.516 1.044-.942.688-1.426 1.681-1.426 2.98 0 2.318 1.681 3.948 4.33 3.948zm-.688-4.177c0-.79.765-1.299 2.115-1.299.484 0 1.044.076 1.68.229v1.427c-.687.509-1.426.764-2.24.764-.918 0-1.554-.484-1.554-1.121zm15.169 3.948c.662 0 1.324-.026 1.961-.051v-3.311h-1.07c-1.12 0-1.655-.331-1.655-1.529v-4.304h2.776v-3.337h-2.776v-3.489h-3.592v3.489h-1.63v3.337h1.63v4.737c0 2.981 1.452 4.458 4.356 4.458zm16.69 0c.663 0 1.325-.026 1.962-.051v-3.311h-1.07c-1.121 0-1.656-.331-1.656-1.529v-4.304h2.777v-3.337h-2.777v-3.489h-3.591v3.489h-1.63v3.337h1.63v4.737c0 2.981 1.452 4.458 4.355 4.458zm16.05-6.444c0-1.707-.535-3.21-1.579-4.483-1.044-1.274-2.522-1.911-4.432-1.911-1.808 0-3.286.637-4.432 1.885-1.146 1.248-1.707 2.828-1.707 4.738 0 1.936.612 3.49 1.86 4.687 1.248 1.171 2.802 1.757 4.712 1.757 2.216 0 3.999-.84 5.349-2.521l-2.394-2.242c-.764.968-1.783 1.452-3.057 1.452-1.554 0-2.598-.943-2.802-2.292h8.457l.025-1.07zm-5.935-3.21c1.198 0 2.038.815 2.115 1.86h-4.483c.229-1.096 1.069-1.86 2.368-1.86zm12.02 9.883c1.273 0 2.318-.356 3.158-1.095V169h3.592v-7.794c0-1.554-.51-2.751-1.554-3.643-1.045-.891-2.344-1.35-3.923-1.35-2.114 0-3.846.816-5.221 2.471l2.292 2.191c.637-.968 1.528-1.452 2.675-1.452 1.299 0 2.088.84 2.088 2.038v.203a9.24 9.24 0 00-2.496-.356c-1.401 0-2.573.356-3.515 1.044-.942.688-1.426 1.681-1.426 2.98 0 2.318 1.681 3.948 4.33 3.948zm-.688-4.177c0-.79.764-1.299 2.114-1.299.484 0 1.044.076 1.681.229v1.427c-.688.509-1.426.764-2.241.764-.917 0-1.554-.484-1.554-1.121zm19.393-.841c-.841 1.096-1.809 1.631-2.904 1.631-1.732 0-3.031-1.3-3.031-3.133 0-1.834 1.299-3.133 3.031-3.133.968 0 1.86.484 2.649 1.451l2.445-2.368c-1.502-1.656-3.234-2.497-5.221-2.497-1.86 0-3.439.637-4.712 1.885-1.248 1.248-1.885 2.802-1.885 4.662 0 1.859.637 3.413 1.885 4.661 1.248 1.248 2.827 1.859 4.712 1.859 2.318 0 4.126-.891 5.476-2.649l-2.445-2.369zm8.408-1.502c0-2.115.764-3.184 2.293-3.184 1.401 0 2.063 1.019 2.063 2.445V169h3.642v-7.259c0-3.49-2.012-5.528-5.094-5.528-1.197 0-2.165.332-2.904 1.019v-6.087h-3.617V169h3.617v-6.24zm22.346-.153c0-1.707-.535-3.21-1.579-4.483-1.044-1.274-2.521-1.911-4.432-1.911-1.808 0-3.286.637-4.432 1.885-1.146 1.248-1.706 2.828-1.706 4.738 0 1.936.611 3.49 1.859 4.687 1.248 1.171 2.802 1.757 4.712 1.757 2.216 0 3.999-.84 5.349-2.521l-2.394-2.242c-.764.968-1.783 1.452-3.057 1.452-1.553 0-2.598-.943-2.802-2.292h8.457l.025-1.07zm-5.934-3.21c1.197 0 2.037.815 2.114 1.86h-4.483c.229-1.096 1.07-1.86 2.369-1.86zm13.751 5.247c.739.179 1.121.459 1.121.79 0 .484-.663.815-1.401.815-1.248 0-2.446-.56-3.566-1.656l-2.216 2.267c1.044 1.325 3.158 2.42 5.476 2.42 3.184 0 5.222-1.655 5.222-4.024 0-2.114-1.376-3.49-4.101-4.127l-1.86-.433c-.585-.127-.891-.356-.891-.662 0-.407.458-.739 1.172-.739.993 0 1.961.408 2.954 1.223l2.216-2.343c-1.452-1.299-3.133-1.962-5.018-1.962-1.35 0-2.496.357-3.438 1.096-.943.713-1.401 1.655-1.401 2.852 0 2.038 1.35 3.388 4.075 4.076l1.656.407zM199.725 169v-3.821l.841-.917 2.98 4.738h4.407l-4.814-7.336 4.61-5.145h-4.56l-3.464 3.948v-9.322h-3.616V169h3.616zm14.033 0v-12.481h-3.642V169h3.642zm-3.923-16.021c0 1.146.943 2.088 2.089 2.088s2.114-.942 2.114-2.088c0-1.198-.917-2.114-2.114-2.114a2.087 2.087 0 00-2.089 2.114zm6.529 9.781c0 1.961.586 3.54 1.783 4.737s2.7 1.783 4.457 1.783c1.35 0 2.445-.382 3.26-1.171V169h3.566v-17.855h-3.617v6.164c-.84-.739-1.91-1.096-3.209-1.096-1.757 0-3.26.612-4.457 1.834-1.197 1.198-1.783 2.777-1.783 4.713zm8.66 2.343c-.535.611-1.223.917-2.063.917-.841 0-1.529-.306-2.089-.917-.535-.611-.815-1.401-.815-2.343 0-.943.28-1.732.815-2.344.56-.611 1.248-.917 2.089-.917.84 0 1.528.306 2.063.917.56.612.84 1.401.84 2.344 0 .942-.28 1.732-.84 2.343zm12.948-.459c.739.179 1.121.459 1.121.79 0 .484-.662.815-1.401.815-1.248 0-2.445-.56-3.566-1.656l-2.216 2.267c1.044 1.325 3.158 2.42 5.476 2.42 3.184 0 5.222-1.655 5.222-4.024 0-2.114-1.375-3.49-4.101-4.127l-1.859-.433c-.586-.127-.892-.356-.892-.662 0-.407.459-.739 1.172-.739.993 0 1.961.408 2.955 1.223l2.216-2.343c-1.452-1.299-3.133-1.962-5.018-1.962-1.35 0-2.496.357-3.439 1.096-.942.713-1.401 1.655-1.401 2.852 0 2.038 1.35 3.388 4.076 4.076l1.655.407zM47.222 190.76c0-2.115.764-3.184 2.292-3.184 1.4 0 2.063 1.019 2.063 2.445V197h3.643v-7.259c0-3.49-2.013-5.528-5.095-5.528-1.197 0-2.165.332-2.903 1.019v-6.087h-3.617V197h3.617v-6.24zm12.08 4.661c1.249 1.248 2.828 1.859 4.713 1.859 1.885 0 3.464-.611 4.712-1.859 1.248-1.248 1.885-2.802 1.885-4.661 0-1.86-.637-3.414-1.91-4.662-1.248-1.248-2.828-1.885-4.687-1.885-1.86 0-3.438.637-4.712 1.885-1.248 1.248-1.885 2.802-1.885 4.662 0 1.859.637 3.413 1.885 4.661zm2.624-6.928c.535-.586 1.248-.892 2.09-.892.84 0 1.553.306 2.088.892.535.585.815 1.35.815 2.267 0 .917-.28 1.681-.815 2.266-.535.586-1.248.892-2.089.892-.84 0-1.554-.306-2.089-.892-.535-.585-.815-1.349-.815-2.266s.28-1.682.815-2.267zm17.124-3.974l-2.037 7.463-1.783-7.463h-3.872L74.873 197h3.948l2.242-7.692L83.304 197h3.948l3.515-12.481h-3.871l-1.758 7.463-2.063-7.463H79.05zm25.535 12.532c.662 0 1.324-.026 1.961-.051v-3.311h-1.07c-1.121 0-1.655-.331-1.655-1.529v-4.304h2.776v-3.337h-2.776v-3.489h-3.592v3.489h-1.63v3.337h1.63v4.737c0 2.981 1.452 4.458 4.356 4.458zm5.785-1.63c1.248 1.248 2.827 1.859 4.712 1.859 1.885 0 3.464-.611 4.712-1.859 1.248-1.248 1.885-2.802 1.885-4.661 0-1.86-.637-3.414-1.91-4.662-1.249-1.248-2.828-1.885-4.687-1.885-1.86 0-3.439.637-4.712 1.885-1.248 1.248-1.885 2.802-1.885 4.662 0 1.859.637 3.413 1.885 4.661zm2.623-6.928c.535-.586 1.248-.892 2.089-.892.84 0 1.554.306 2.088.892.535.585.816 1.35.816 2.267 0 .917-.281 1.681-.816 2.266-.534.586-1.248.892-2.088.892-.841 0-1.554-.306-2.089-.892-.535-.585-.815-1.349-.815-2.266s.28-1.682.815-2.267zm27.183 3.769c-.841 1.096-1.809 1.631-2.904 1.631-1.732 0-3.031-1.3-3.031-3.133 0-1.834 1.299-3.133 3.031-3.133.968 0 1.859.484 2.649 1.451l2.445-2.368c-1.503-1.656-3.235-2.497-5.221-2.497-1.86 0-3.439.637-4.713 1.885-1.248 1.248-1.884 2.802-1.884 4.662 0 1.859.636 3.413 1.884 4.661 1.249 1.248 2.828 1.859 4.713 1.859 2.318 0 4.126-.891 5.476-2.649l-2.445-2.369zm12.432-7.896c-.229-.025-.56-.025-.967-.025-1.35 0-2.369.433-3.108 1.299v-1.121h-3.566V197h3.617v-5.222c0-2.547 1.35-3.922 3.464-3.922h.56v-3.49zm13.323 6.241c0-1.707-.535-3.21-1.58-4.483-1.044-1.274-2.521-1.911-4.432-1.911-1.808 0-3.285.637-4.432 1.885-1.146 1.248-1.706 2.828-1.706 4.738 0 1.936.611 3.49 1.859 4.687 1.248 1.171 2.802 1.757 4.712 1.757 2.216 0 3.999-.84 5.349-2.521l-2.394-2.242c-.764.968-1.783 1.452-3.057 1.452-1.553 0-2.598-.943-2.801-2.292h8.456l.026-1.07zm-5.935-3.21c1.197 0 2.037.815 2.114 1.86h-4.483c.229-1.096 1.07-1.86 2.369-1.86zm12.019 9.883c1.274 0 2.318-.356 3.158-1.095V197h3.592v-7.794c0-1.554-.51-2.751-1.554-3.643-1.044-.891-2.343-1.35-3.922-1.35-2.115 0-3.847.816-5.222 2.471l2.292 2.191c.637-.968 1.529-1.452 2.675-1.452 1.299 0 2.088.84 2.088 2.038v.203a9.24 9.24 0 00-2.496-.356c-1.401 0-2.572.356-3.515 1.044-.942.688-1.426 1.681-1.426 2.98 0 2.318 1.681 3.948 4.33 3.948zm-.688-4.177c0-.79.764-1.299 2.114-1.299.484 0 1.045.076 1.681.229v1.427c-.687.509-1.426.764-2.241.764-.917 0-1.554-.484-1.554-1.121zm15.169 3.948c.662 0 1.324-.026 1.961-.051v-3.311h-1.07c-1.121 0-1.656-.331-1.656-1.529v-4.304h2.777v-3.337h-2.777v-3.489h-3.591v3.489h-1.63v3.337h1.63v4.737c0 2.981 1.452 4.458 4.356 4.458zm16.049-6.444c0-1.707-.535-3.21-1.579-4.483-1.044-1.274-2.522-1.911-4.432-1.911-1.808 0-3.286.637-4.432 1.885-1.146 1.248-1.706 2.828-1.706 4.738 0 1.936.611 3.49 1.859 4.687 1.248 1.171 2.802 1.757 4.712 1.757 2.216 0 3.999-.84 5.349-2.521l-2.394-2.242c-.764.968-1.783 1.452-3.057 1.452-1.553 0-2.598-.943-2.802-2.292h8.457l.025-1.07zm-5.934-3.21c1.197 0 2.037.815 2.114 1.86h-4.483c.229-1.096 1.07-1.86 2.369-1.86zm19.133 9.883c1.273 0 2.318-.356 3.158-1.095V197h3.592v-7.794c0-1.554-.51-2.751-1.554-3.643-1.044-.891-2.343-1.35-3.923-1.35-2.114 0-3.846.816-5.221 2.471l2.292 2.191c.637-.968 1.528-1.452 2.675-1.452 1.299 0 2.088.84 2.088 2.038v.203a9.24 9.24 0 00-2.496-.356c-1.401 0-2.572.356-3.515 1.044-.942.688-1.426 1.681-1.426 2.98 0 2.318 1.681 3.948 4.33 3.948zm-.688-4.177c0-.79.764-1.299 2.114-1.299.484 0 1.045.076 1.681.229v1.427c-.687.509-1.426.764-2.241.764-.917 0-1.554-.484-1.554-1.121zm18.419-8.737c-.23-.025-.561-.025-.968-.025-1.35 0-2.369.433-3.108 1.299v-1.121h-3.566V197h3.617v-5.222c0-2.547 1.35-3.922 3.464-3.922h.561v-3.49zm7.396 12.685c.662 0 1.324-.026 1.961-.051v-3.311h-1.07c-1.121 0-1.656-.331-1.656-1.529v-4.304h2.777v-3.337h-2.777v-3.489h-3.591v3.489h-1.63v3.337h1.63v4.737c0 2.981 1.452 4.458 4.356 4.458zm9.245-5.807v-12.099h-3.744v12.099h3.744zm.331 3.769c0-1.197-.993-2.19-2.216-2.19-1.222 0-2.165.968-2.165 2.19 0 1.223.943 2.191 2.165 2.191a2.196 2.196 0 002.216-2.191z"/>
</svg>
