<svg width="206" height="206" viewBox="0 0 206 206" fill="none" xmlns="http://www.w3.org/2000/svg">
<rect width="205.714" height="205.714" fill="white"/>
<path d="M117.805 101.395H110.338V93.9285C110.338 92.9913 109.579 92.2307 108.64 92.2307H96.4106C95.4717 92.2307 94.7128 92.9913 94.7128 93.9285V101.395H87.2441C86.3052 101.395 85.5463 102.156 85.5463 103.093V115.323C85.5463 116.262 86.3052 117.02 87.2441 117.02H94.7111V124.489C94.7111 125.428 95.47 126.187 96.4089 126.187H108.638C109.577 126.187 110.336 125.428 110.336 124.489V117.022H117.805C118.744 117.022 119.503 116.263 119.503 115.324V103.095C119.503 102.156 118.744 101.395 117.805 101.395ZM116.107 113.627H108.64C107.701 113.627 106.942 114.385 106.942 115.324V122.791H98.1084V115.324C98.1084 114.385 97.3495 113.627 96.4106 113.627H88.9419V104.793H96.4089C97.3478 104.793 98.1067 104.032 98.1067 103.095V95.6263H106.94V103.093C106.94 104.03 107.699 104.791 108.638 104.791H116.107V113.627Z" fill="black"/>
<path d="M103.725 62.3916C103.088 61.7549 101.961 61.7549 101.324 62.3916L78.5139 85.2017C72.1029 91.6126 68.5715 100.141 68.5715 109.212C68.5715 118.285 72.1029 126.81 78.5139 133.223C84.9248 139.635 93.4512 143.165 102.524 143.165C111.597 143.165 120.122 139.634 126.535 133.223C132.947 126.812 136.477 118.285 136.477 109.212C136.477 100.141 132.946 91.6126 126.535 85.2017L103.725 62.3916ZM124.134 130.82C118.363 136.591 110.691 139.769 102.524 139.769C94.3578 139.769 86.6854 136.591 80.9146 130.82C75.1437 125.049 71.9654 117.377 71.9654 109.21C71.9654 101.046 75.1437 93.3716 80.9146 87.6007L102.524 65.9927L124.134 87.6024C129.903 93.3733 133.083 101.047 133.083 109.212C133.082 117.379 129.903 125.051 124.134 130.82Z" fill="black"/>
</svg>
