<svg width="206" height="206" viewBox="0 0 206 206" fill="none" xmlns="http://www.w3.org/2000/svg">
<rect width="205.714" height="205.714" fill="white"/>
<path d="M83.1697 98.4594C80.9954 98.4594 79.4828 97.514 78.632 96.8522C76.4577 94.9615 75.6069 91.5583 76.4577 88.3441C77.403 85.0353 79.7664 82.4829 82.0353 80.3086C88.4637 74.3528 89.5981 73.2184 89.5981 56.2966C89.5981 55.7294 90.0708 55.2567 90.638 55.2567C91.2052 55.2567 91.6779 55.7294 91.6779 56.2966C91.6779 73.6911 90.3544 75.3927 83.4533 81.9157C81.3735 83.8064 79.1992 86.1698 78.4429 88.9113C77.7812 91.2747 78.3484 93.8271 79.9555 95.1506C81.468 96.4741 83.7369 96.5686 86.4784 95.4342C87.1402 95.1506 88.1801 94.5834 89.3145 93.9217C92.8123 91.9364 98.1063 89.0058 102.833 89.0058C107.465 89.0058 112.57 91.8419 116.257 93.9217C117.391 94.5834 118.337 95.0561 119.093 95.4342C121.835 96.5686 124.103 96.5686 125.616 95.1506C127.223 93.8271 127.79 91.2747 127.129 88.9113C126.372 86.0752 124.198 83.8064 122.118 81.9157C115.217 75.3927 113.894 73.6911 113.894 56.2966C113.988 55.7294 114.461 55.2567 115.028 55.2567C115.595 55.2567 116.068 55.7294 116.068 56.2966C116.068 73.2184 117.202 74.3528 123.631 80.3086C125.9 82.3883 128.358 85.0353 129.208 88.3441C130.059 91.4637 129.208 94.9615 127.034 96.8522C125.805 97.9867 122.969 99.4992 118.242 97.514C117.486 97.1359 116.446 96.5686 115.217 95.9069C111.908 94.1107 106.898 91.2747 102.833 91.2747C98.768 91.2747 93.7576 94.0162 90.3544 95.9069C89.1254 96.5686 88.1801 97.1359 87.3292 97.514C85.8167 98.1757 84.3041 98.4594 83.1697 98.4594Z" fill="black"/>
<path d="M115.028 149.792C114.461 149.792 113.988 149.319 113.988 148.752C113.988 131.358 115.312 129.656 122.213 123.133C124.293 121.242 126.467 118.879 127.223 116.137C127.885 113.774 127.318 111.222 125.711 109.898C124.198 108.575 121.929 108.48 119.188 109.615C118.526 109.898 117.486 110.465 116.352 111.127C112.665 113.207 107.56 116.043 102.833 116.043C98.2008 116.043 92.9068 113.112 89.3145 111.127C88.1801 110.465 87.2347 109.993 86.4784 109.615C83.7369 108.48 81.468 108.48 79.9555 109.898C78.3484 111.222 77.7812 113.774 78.4429 116.137C79.1992 118.974 81.3735 121.242 83.4533 123.133C90.3544 129.656 91.6779 131.358 91.6779 148.752C91.6779 149.319 91.2052 149.792 90.638 149.792C90.0708 149.792 89.5981 149.319 89.5981 148.752C89.5981 131.736 88.4637 130.696 82.0353 124.74C79.7664 122.66 77.3085 120.013 76.4577 116.705C75.6069 113.585 76.4577 110.087 78.632 108.196C79.8609 107.062 82.697 105.549 87.4238 107.535C88.1801 107.913 89.2199 108.48 90.4489 109.142C93.7576 110.938 98.768 113.774 102.928 113.774C106.993 113.774 112.003 111.033 115.312 109.142C116.541 108.48 117.486 107.913 118.337 107.535C123.064 105.455 125.9 107.062 127.129 108.196C129.303 110.087 130.154 113.49 129.303 116.705C128.358 120.013 125.994 122.566 123.725 124.74C117.297 130.696 116.163 131.83 116.163 148.752C116.163 149.319 115.69 149.792 115.028 149.792Z" fill="black"/>
<path d="M125.994 109.804C125.711 109.804 125.427 109.709 125.144 109.425C124.765 108.953 124.765 108.291 125.238 107.913C127.129 106.306 128.074 104.51 127.98 102.713C127.98 99.5937 125.238 97.2303 125.238 97.2303C124.765 96.8522 124.765 96.1905 125.144 95.7178C125.522 95.2451 126.183 95.2451 126.656 95.6232C126.845 95.7178 130.154 98.6484 130.154 102.713C130.154 105.171 129.019 107.535 126.656 109.614C126.562 109.709 126.278 109.804 125.994 109.804Z" fill="black"/>
<path d="M79.4829 109.804C79.1992 109.804 79.0102 109.709 78.7266 109.52C76.3632 107.44 75.2288 105.171 75.2288 102.619C75.2288 98.5539 78.632 95.6233 78.7266 95.5288C79.1992 95.1506 79.861 95.1506 80.2391 95.6233C80.6173 96.096 80.6173 96.7577 80.1446 97.1359C80.0501 97.2304 77.4031 99.5938 77.4031 102.619C77.4031 104.415 78.3484 106.211 80.1446 107.818C80.6173 108.196 80.6173 108.858 80.2391 109.331C80.0501 109.615 79.7665 109.804 79.4829 109.804Z" fill="black"/>
</svg>
