<svg width="206" height="206" viewBox="0 0 206 206" fill="none" xmlns="http://www.w3.org/2000/svg">
<rect width="205.714" height="205.714" fill="white"/>
<path d="M102.088 111.786C101.662 111.791 101.242 111.682 100.872 111.471C100.502 111.26 100.194 110.955 99.9815 110.586L87.037 88.1408C86.4958 87.2042 86.1755 86.1565 86.1005 85.0774C86.0254 83.9983 86.1976 82.9163 86.6039 81.9138C87.0102 80.9113 87.6398 80.0147 88.445 79.2923C89.2501 78.57 90.2095 78.0408 91.25 77.7452L94.5572 76.7973C95.5962 76.4988 96.6896 76.4412 97.7543 76.6288C98.8189 76.8164 99.8267 77.2444 100.701 77.8801C101.575 78.5158 102.293 79.3426 102.8 80.2975C103.307 81.2523 103.589 82.3102 103.626 83.3907L104.51 109.301C104.529 109.836 104.368 110.362 104.053 110.795C103.738 111.228 103.287 111.544 102.773 111.692C102.55 111.756 102.32 111.788 102.088 111.786ZM96.5163 78.63C96.0458 78.6314 95.5778 78.6987 95.126 78.8301L91.8188 79.778C91.0887 79.9881 90.4161 80.3616 89.852 80.8703C89.2878 81.379 88.8469 82.0095 88.5626 82.714C88.2784 83.4185 88.1583 84.1784 88.2115 84.9362C88.2647 85.694 88.4898 86.4297 88.8697 87.0876L101.835 109.49C101.869 109.546 101.92 109.589 101.98 109.613C102.041 109.637 102.107 109.64 102.17 109.622C102.232 109.604 102.287 109.566 102.326 109.513C102.364 109.461 102.384 109.397 102.383 109.332L101.498 83.4223C101.452 82.1275 100.906 80.9009 99.9755 79.9997C99.0448 79.0984 97.8013 78.5925 96.5057 78.5878L96.5163 78.63Z" fill="black"/>
<path d="M88.1221 88.4252C87.8427 88.4629 87.5599 88.3881 87.3357 88.2172C87.1115 88.0464 86.9644 87.7935 86.9266 87.5141C86.8889 87.2348 86.9637 86.9519 87.1346 86.7277C87.3054 86.5035 87.5584 86.3564 87.8377 86.3187L90.8711 85.4445C91.0063 85.3979 91.1495 85.3794 91.2921 85.39C91.4347 85.4006 91.5737 85.4401 91.7005 85.5061C91.8273 85.5722 91.9394 85.6633 92.0298 85.7741C92.1203 85.8848 92.1872 86.0128 92.2266 86.1503C92.266 86.2877 92.2769 86.4318 92.2588 86.5736C92.2407 86.7155 92.194 86.8521 92.1213 86.9753C92.0487 87.0985 91.9518 87.2056 91.8364 87.29C91.721 87.3745 91.5897 87.4347 91.4504 87.4667L88.417 88.4252C88.3192 88.439 88.2199 88.439 88.1221 88.4252Z" fill="black"/>
<path d="M98.0646 88.8781C97.7853 88.9158 97.5024 88.841 97.2782 88.6701C97.0541 88.4993 96.9069 88.2464 96.8692 87.967C96.8315 87.6877 96.9063 87.4048 97.0772 87.1806C97.248 86.9564 97.5009 86.8093 97.7803 86.7716L101.835 85.613C102.098 85.5525 102.374 85.5951 102.607 85.7321C102.839 85.8691 103.01 86.0901 103.084 86.3494C103.158 86.6087 103.13 86.8866 103.006 87.1258C102.881 87.3651 102.67 87.5474 102.415 87.6352L98.3596 88.7938C98.2659 88.8361 98.1665 88.8645 98.0646 88.8781Z" fill="black"/>
<path d="M92.1769 94.9659C91.8976 95.0036 91.6147 94.9288 91.3905 94.7579C91.1663 94.5871 91.0192 94.3342 90.9815 94.0548C90.9438 93.7755 91.0186 93.4926 91.1894 93.2684C91.3603 93.0442 91.6132 92.8971 91.8925 92.8594L94.9048 92.0273C95.04 91.9808 95.1833 91.9622 95.3259 91.9728C95.4685 91.9834 95.6074 92.0229 95.7342 92.089C95.8611 92.155 95.9731 92.2462 96.0636 92.3569C96.154 92.4677 96.221 92.5957 96.2604 92.7331C96.2997 92.8706 96.3107 93.0146 96.2926 93.1564C96.2745 93.2983 96.2277 93.435 96.1551 93.5581C96.0825 93.6813 95.9855 93.7884 95.8702 93.8729C95.7548 93.9574 95.6235 94.0175 95.4841 94.0496L92.4508 94.9238C92.3617 94.9498 92.2697 94.964 92.1769 94.9659Z" fill="black"/>
<path d="M95.9582 100.453C95.6789 100.491 95.396 100.416 95.1718 100.245C94.9476 100.075 94.8005 99.8217 94.7628 99.5423C94.7251 99.263 94.7999 98.9801 94.9707 98.7559C95.1416 98.5317 95.3945 98.3846 95.6738 98.3469L98.7072 97.4727C98.8424 97.4261 98.9856 97.4076 99.1282 97.4182C99.2708 97.4288 99.4098 97.4683 99.5366 97.5343C99.6634 97.6004 99.7755 97.6915 99.8659 97.8023C99.9564 97.913 100.023 98.041 100.063 98.1785C100.102 98.3159 100.113 98.46 100.095 98.6018C100.077 98.7437 100.03 98.8803 99.9574 99.0035C99.8848 99.1267 99.7879 99.2338 99.6725 99.3183C99.5572 99.4027 99.4258 99.4629 99.2865 99.4949L96.2531 100.369C96.1594 100.411 96.0601 100.44 95.9582 100.453Z" fill="black"/>
<path d="M94.8207 78.8511C94.6445 78.8508 94.4711 78.8063 94.3165 78.7217C94.162 78.637 94.0311 78.515 93.936 78.3666C93.8195 78.5567 93.6456 78.705 93.4395 78.79C93.2334 78.875 93.0056 78.8924 92.789 78.8397C92.5723 78.787 92.378 78.6669 92.234 78.4967C92.0899 78.3266 92.0036 78.115 91.9874 77.8927C91.8821 76.1127 91.7452 74.3537 91.5977 72.6896C91.208 68.3713 90.7025 64.8429 90.7025 64.8008C90.6725 64.589 90.7078 64.3731 90.8036 64.1818C90.8994 63.9905 91.0511 63.8329 91.2386 63.73C91.4262 63.6271 91.6406 63.5837 91.8534 63.6057C92.0662 63.6276 92.2672 63.7138 92.4298 63.8528C92.5983 64.0003 96.548 67.4339 96.9799 72.1946C97.1236 74.2908 96.7093 76.3878 95.7791 78.2718C95.69 78.4488 95.5528 78.597 95.3833 78.6994C95.2138 78.8019 95.0188 78.8545 94.8207 78.8511ZM93.2303 67.9921C93.3777 69.2665 93.5462 70.8148 93.6937 72.4684C93.8201 73.9114 93.9465 75.4175 94.0413 76.9553C94.7044 75.5195 95.0012 73.9417 94.9049 72.3631C94.7115 70.7914 94.1365 69.2908 93.2303 67.9921Z" fill="black"/>
<path d="M91.1975 79.9149C90.9921 79.9165 90.7907 79.8579 90.6182 79.7464C88.8382 78.6312 87.3847 77.0651 86.4052 75.2069C84.2987 70.9412 85.7732 65.9278 85.8469 65.7277C85.911 65.5228 86.0361 65.3424 86.2055 65.2107C86.3749 65.0789 86.5806 65.0021 86.7949 64.9904C87.0133 64.9715 87.2321 65.0212 87.4209 65.1326C87.6097 65.244 87.7591 65.4115 87.8481 65.6118C87.8481 65.6118 89.3121 68.9085 91.2606 72.7739C92.0085 74.2485 92.8089 75.7757 93.641 77.3134C93.744 77.5029 93.7864 77.7195 93.7623 77.9339C93.7383 78.1482 93.649 78.35 93.5065 78.512C93.3641 78.674 93.1753 78.7883 92.9658 78.8395C92.7563 78.8908 92.5361 78.8765 92.335 78.7985C92.3436 78.942 92.3227 79.0858 92.2737 79.221C92.2246 79.3562 92.1484 79.4799 92.0497 79.5845C91.9511 79.6891 91.832 79.7723 91.6999 79.8292C91.5678 79.886 91.4255 79.9152 91.2817 79.9149H91.1975ZM87.332 69.6879C87.2618 71.2634 87.5763 72.8323 88.2483 74.259C88.9991 75.6545 90.0849 76.8417 91.4081 77.7136C90.6814 76.3655 89.9862 75.0279 89.3016 73.7218C88.5854 72.2473 87.8797 70.8465 87.332 69.6879Z" fill="black"/>
<path d="M78.5057 83.7277C78.361 83.7289 78.2175 83.7002 78.0844 83.6435C77.779 83.5065 70.4694 80.2625 68.7526 74.0273C67.0358 67.792 71.649 61.2619 71.8491 61.0407C71.9901 60.8461 72.1933 60.7055 72.4251 60.6423C72.6569 60.5791 72.9034 60.597 73.1236 60.6931C73.429 60.83 80.7386 64.0741 82.4554 70.3093C84.1722 76.5445 79.5589 83.0747 79.3588 83.3486C79.2553 83.4731 79.1245 83.5721 78.9766 83.6378C78.8286 83.7036 78.6675 83.7343 78.5057 83.7277ZM73.0815 62.9681C72.0282 64.7271 69.6373 69.2876 70.7854 73.5007C71.9334 77.7137 76.3149 80.3784 78.1581 81.3474C79.2114 79.5779 81.6023 75.0279 80.4542 70.8149C79.2851 66.644 74.893 63.9266 73.0815 62.9681Z" fill="black"/>
<path d="M83.3192 92.2485C83.1494 92.2482 82.9822 92.2069 82.8318 92.128C82.6814 92.0492 82.5523 91.9351 82.4555 91.7956L81.7393 90.7424C77.6982 84.9306 74.7402 78.4366 73.0078 71.5732L72.7024 70.362C72.6685 70.2278 72.6614 70.0883 72.6814 69.9513C72.7015 69.8144 72.7483 69.6828 72.8192 69.564C72.8901 69.4451 72.9837 69.3414 73.0947 69.2588C73.2057 69.1761 73.3318 69.1161 73.466 69.0823C73.6002 69.0484 73.7397 69.0412 73.8766 69.0613C74.0135 69.0813 74.1452 69.1281 74.264 69.199C74.3828 69.2699 74.4865 69.3635 74.5692 69.4745C74.6518 69.5855 74.7118 69.7117 74.7457 69.8459L75.0512 71.0571C76.7224 77.6795 79.577 83.9452 83.4772 89.5522L84.1934 90.6054C84.3005 90.764 84.3625 90.9487 84.3726 91.1398C84.3826 91.3309 84.3405 91.5211 84.2506 91.69C84.1607 91.8589 84.0265 92.0002 83.8624 92.0986C83.6983 92.197 83.5105 92.2488 83.3192 92.2485Z" fill="black"/>
<path d="M123.416 116.863C123.237 116.863 123.061 116.818 122.905 116.731C122.748 116.645 122.616 116.52 122.521 116.368L120.815 113.64L111.494 112.397C111.277 112.368 111.075 112.273 110.915 112.124C110.755 111.974 110.645 111.779 110.601 111.565C110.557 111.351 110.581 111.128 110.669 110.928C110.757 110.728 110.906 110.561 111.093 110.449L118.698 105.972C118.224 99.7688 118.498 91.4375 122.247 85.6236C128.756 75.5124 144.597 74.4275 145.261 74.3854C145.485 74.3705 145.709 74.4279 145.898 74.5492C146.088 74.6705 146.234 74.8493 146.314 75.0595C146.556 75.6914 152.118 90.5528 145.608 100.664C141.754 106.668 133.875 110.428 128.009 112.513C127.757 112.571 127.493 112.535 127.267 112.411C127.04 112.288 126.867 112.085 126.78 111.842C126.693 111.599 126.698 111.333 126.794 111.093C126.891 110.854 127.072 110.658 127.303 110.544C132.885 108.563 140.29 105.046 143.839 99.537C149 91.5218 145.629 79.6517 144.608 76.5762C141.385 76.9343 129.167 78.7775 124.017 86.7822C120.457 92.3117 120.33 100.538 120.857 106.467C120.874 106.666 120.835 106.865 120.744 107.042C120.653 107.22 120.513 107.367 120.341 107.468L114.801 110.733L121.584 111.639C121.738 111.659 121.886 111.712 122.017 111.796C122.148 111.88 122.259 111.992 122.342 112.123L124.312 115.283C124.403 115.442 124.452 115.622 124.453 115.806C124.454 115.989 124.406 116.17 124.316 116.329C124.226 116.489 124.095 116.622 123.937 116.716C123.779 116.809 123.6 116.86 123.416 116.863Z" fill="black"/>
<path d="M127.229 116.863H127.124C126.986 116.849 126.853 116.807 126.731 116.741C126.609 116.675 126.502 116.586 126.415 116.478C126.328 116.37 126.263 116.247 126.224 116.114C126.184 115.981 126.172 115.842 126.186 115.704L126.618 111.418C126.632 111.279 126.673 111.145 126.739 111.023C126.804 110.9 126.894 110.792 127.001 110.704C127.109 110.616 127.233 110.55 127.366 110.51C127.499 110.47 127.638 110.456 127.777 110.47C127.915 110.484 128.049 110.525 128.172 110.59C128.294 110.656 128.403 110.745 128.491 110.853C128.579 110.96 128.645 111.084 128.685 111.217C128.725 111.35 128.739 111.49 128.725 111.628L128.293 115.915C128.267 116.178 128.143 116.421 127.946 116.596C127.749 116.772 127.493 116.867 127.229 116.863Z" fill="black"/>
<path d="M124.68 101.559H124.607C124.468 101.551 124.333 101.516 124.208 101.455C124.083 101.395 123.972 101.31 123.88 101.207C123.788 101.103 123.717 100.982 123.672 100.851C123.627 100.72 123.608 100.581 123.616 100.443C123.954 95.1765 125.175 90.8161 127.25 87.5931C127.408 87.3743 127.643 87.2243 127.908 87.174C128.173 87.1237 128.447 87.177 128.674 87.3228C128.901 87.4686 129.063 87.6959 129.128 87.9579C129.192 88.2198 129.153 88.4964 129.02 88.7306C127.134 91.6482 126.028 95.64 125.712 100.58C125.694 100.842 125.578 101.089 125.387 101.27C125.196 101.451 124.944 101.555 124.68 101.559Z" fill="black"/>
<path d="M147.283 94.018C147.15 94.0183 147.017 93.9933 146.893 93.9443L143.828 92.7119C138.83 90.6965 134.259 87.7515 130.357 84.0332L127.966 81.7581C127.764 81.5654 127.646 81.3001 127.639 81.0206C127.632 80.7411 127.737 80.4703 127.93 80.2678C128.122 80.0653 128.388 79.9476 128.667 79.9407C128.947 79.9338 129.217 80.0382 129.42 80.2309L131.769 82.5059C135.491 86.044 139.851 88.8426 144.618 90.7529L147.683 91.9852C147.911 92.0754 148.101 92.2424 148.219 92.4575C148.337 92.6725 148.377 92.9221 148.331 93.163C148.284 93.404 148.155 93.6213 147.966 93.7774C147.777 93.9335 147.539 94.0186 147.294 94.018H147.283Z" fill="black"/>
<path d="M138.555 83.0604C139.027 82.3268 138.815 81.3491 138.082 80.8767C137.348 80.4043 136.37 80.6161 135.898 81.3497C135.426 82.0833 135.637 83.0609 136.371 83.5333C137.104 84.0057 138.082 83.794 138.555 83.0604Z" fill="black"/>
<path d="M114.864 87.1086C114.585 87.1268 114.31 87.0332 114.099 86.8486C113.889 86.6639 113.76 86.4032 113.742 86.1239C113.724 85.8445 113.818 85.5694 114.002 85.359C114.187 85.1487 114.448 85.0203 114.727 85.0021C118.371 84.5176 121.826 80.9366 123.153 76.3023C123.703 74.477 123.839 72.5517 123.549 70.6673C123.259 68.783 122.552 66.9873 121.478 65.4117C121.336 65.2278 121.258 65.0019 121.257 64.7692C121.276 64.3687 121.4 63.9802 121.615 63.6422C121.672 63.5477 121.721 63.4492 121.763 63.3473C121.983 62.5443 121.878 61.6867 121.47 60.9608C121.062 60.235 120.383 59.6997 119.583 59.4713C118.787 59.2402 117.932 59.3309 117.202 59.7241C116.842 59.9136 116.524 60.175 116.269 60.492C116.013 60.809 115.826 61.1749 115.717 61.5673C115.675 61.7409 115.644 61.9167 115.622 62.0939C115.628 62.3389 115.548 62.578 115.396 62.7703C115.244 62.9625 115.03 63.0958 114.79 63.1472C111.483 64.2004 108.576 67.5287 107.417 71.7838C106.08 76.5656 107.196 81.5053 110.156 83.8014C110.377 83.9732 110.52 84.2257 110.555 84.5032C110.589 84.7807 110.512 85.0606 110.34 85.2813C110.168 85.5019 109.916 85.6453 109.639 85.6799C109.361 85.7145 109.081 85.6374 108.86 85.4656C105.248 82.6534 103.815 76.7973 105.385 71.2151C106.701 66.5281 109.903 62.7153 113.642 61.3251C113.642 61.2197 113.642 61.1144 113.716 61.0196C113.893 60.3568 114.203 59.7369 114.626 59.1974C115.05 58.6578 115.579 58.21 116.181 57.8809C117.404 57.2237 118.837 57.0763 120.169 57.4709C121.5 57.8654 122.622 58.7699 123.29 59.9874C123.63 60.586 123.848 61.2461 123.931 61.9295C124.014 62.6129 123.961 63.306 123.774 63.9687C123.702 64.2073 123.603 64.4369 123.48 64.6533C124.611 66.4479 125.347 68.4631 125.637 70.5645C125.928 72.666 125.767 74.8052 125.165 76.8394C123.616 82.3479 119.54 86.4556 115.011 87.056L114.864 87.1086Z" fill="black"/>
<path d="M111.873 90.4474C111.119 90.4518 110.378 90.246 109.735 89.8529C109.092 89.4599 108.57 88.8952 108.23 88.2224C107.89 87.5495 107.744 86.7952 107.809 86.044C107.874 85.2928 108.147 84.5746 108.597 83.9699C108.765 83.7464 109.014 83.5987 109.291 83.5592C109.567 83.5197 109.848 83.5917 110.072 83.7593C110.295 83.9269 110.443 84.1764 110.482 84.4529C110.522 84.7294 110.45 85.0103 110.282 85.2338C110.092 85.4843 109.966 85.7771 109.913 86.0872C109.861 86.3973 109.884 86.7155 109.982 87.0145C110.079 87.3135 110.247 87.5846 110.472 87.8045C110.697 88.0244 110.971 88.1866 111.273 88.2773C111.574 88.368 111.892 88.3845 112.201 88.3253C112.51 88.2662 112.8 88.1331 113.046 87.9376C113.292 87.742 113.488 87.4898 113.615 87.2023C113.743 86.9149 113.799 86.6009 113.779 86.2871C113.755 86.1462 113.76 86.002 113.794 85.8631C113.828 85.7243 113.889 85.5938 113.975 85.4795C114.061 85.3652 114.169 85.2695 114.293 85.1983C114.416 85.1271 114.553 85.0819 114.695 85.0653C114.964 85.0347 115.234 85.1083 115.449 85.271C115.665 85.4337 115.81 85.673 115.854 85.9395V86.1291C115.891 86.6004 115.845 87.0747 115.717 87.5299C115.473 88.3639 114.968 89.0976 114.276 89.6228C113.584 90.1481 112.741 90.4371 111.873 90.4474Z" fill="black"/>
<path d="M110.093 80.7892C109.846 80.7942 109.606 80.7126 109.414 80.5586C109.221 80.4046 109.089 80.1881 109.039 79.9466C108.593 77.4884 108.706 74.9613 109.37 72.5526C110.033 70.144 111.231 67.9158 112.873 66.0331C113.06 65.825 113.323 65.6998 113.602 65.685C113.882 65.6702 114.156 65.767 114.364 65.9541C114.572 66.1413 114.697 66.4035 114.712 66.683C114.727 66.9625 114.63 67.2364 114.443 67.4445C113.024 69.0837 111.991 71.0192 111.416 73.1094C110.842 75.1996 110.743 77.3916 111.125 79.5253C111.152 79.6616 111.153 79.802 111.126 79.9384C111.099 80.0748 111.045 80.2045 110.968 80.32C110.89 80.4356 110.791 80.5347 110.675 80.6116C110.559 80.6885 110.429 80.7417 110.293 80.7681L110.093 80.7892Z" fill="black"/>
<path d="M65.8352 97.3989C65.5903 97.4044 65.3511 97.3243 65.1589 97.1724C64.9667 97.0205 64.8334 96.8064 64.782 96.5668C64.6104 95.6976 64.6178 94.8024 64.8038 93.9361C64.9898 93.0698 65.3504 92.2505 65.8636 91.5282C66.3768 90.8059 67.0319 90.1958 67.7887 89.7352C68.5456 89.2745 69.3885 88.973 70.2658 88.849C71.1431 88.725 72.0365 88.7811 72.8914 89.014C73.7464 89.2468 74.5448 89.6515 75.2381 90.2032C75.9314 90.755 76.5049 91.4423 76.9237 92.2231C77.3425 93.0039 77.5977 93.8619 77.6738 94.7447C77.6828 94.883 77.6644 95.0218 77.6198 95.153C77.5752 95.2842 77.5051 95.4054 77.4137 95.5095C77.229 95.7199 76.9683 95.8483 76.689 95.8664C76.4096 95.8846 76.1345 95.791 75.9242 95.6064C75.7138 95.4217 75.5854 95.161 75.5673 94.8816C75.5311 94.273 75.3693 93.6784 75.0919 93.1355C74.8145 92.5925 74.4276 92.1129 73.9556 91.7269C73.4836 91.3409 72.9368 91.0569 72.3495 90.8928C71.7623 90.7287 71.1474 90.6881 70.5437 90.7735C69.94 90.8589 69.3605 91.0685 68.8419 91.3891C68.3232 91.7096 67.8766 92.1342 67.5302 92.6359C67.1838 93.1377 66.9451 93.7058 66.8292 94.3044C66.7133 94.903 66.7228 95.5192 66.8569 96.1139C66.9165 96.3863 66.8657 96.6711 66.7157 96.906C66.5656 97.141 66.3285 97.3069 66.0564 97.3673L65.8352 97.3989Z" fill="black"/>
<path d="M58.9783 105.772C58.827 105.774 58.6772 105.742 58.5391 105.681C58.4009 105.619 58.2777 105.528 58.1779 105.414C57.175 104.255 56.6123 102.78 56.5887 101.248C56.5651 99.7159 57.0819 98.2243 58.0486 97.0352C59.0152 95.846 60.3698 95.0354 61.8746 94.7456C63.3794 94.4558 64.9382 94.7053 66.2774 95.4504C66.5218 95.5901 66.7007 95.8211 66.7748 96.0927C66.8489 96.3643 66.812 96.6542 66.6723 96.8986C66.5327 97.1431 66.3016 97.322 66.03 97.3961C65.7584 97.4701 65.4685 97.4333 65.2241 97.2936C64.3182 96.7947 63.2658 96.6298 62.2508 96.8277C61.2357 97.0256 60.3223 97.5738 59.6702 98.3764C59.018 99.1791 58.6685 100.185 58.6825 101.219C58.6966 102.254 59.0734 103.25 59.7472 104.034C59.8808 104.186 59.9677 104.374 59.9976 104.574C60.0275 104.774 59.9991 104.979 59.9158 105.163C59.8324 105.348 59.6977 105.504 59.5277 105.614C59.3577 105.724 59.1597 105.783 58.9573 105.783L58.9783 105.772Z" fill="black"/>
<path d="M63.4758 114.346C62.2866 114.345 61.1201 114.02 60.1026 113.404C59.0852 112.789 58.2554 111.906 57.7033 110.853C57.1512 109.8 56.8976 108.615 56.9702 107.428C57.0427 106.241 57.4385 105.097 58.1148 104.119C58.1786 103.98 58.2716 103.857 58.3876 103.758C58.5035 103.659 58.6395 103.587 58.7863 103.545C58.933 103.504 59.087 103.495 59.2375 103.519C59.388 103.543 59.5315 103.6 59.6581 103.685C59.7847 103.77 59.8914 103.881 59.9707 104.011C60.0501 104.141 60.1002 104.287 60.1177 104.438C60.1352 104.59 60.1196 104.743 60.072 104.888C60.0245 105.033 59.946 105.166 59.8421 105.277C59.4569 105.826 59.202 106.456 59.0968 107.119C58.9915 107.781 59.0387 108.459 59.2347 109.101C59.4308 109.742 59.7705 110.331 60.228 110.821C60.6856 111.312 61.249 111.692 61.8754 111.932C62.5018 112.172 63.1747 112.266 63.8429 112.207C64.5112 112.148 65.1572 111.938 65.7319 111.592C66.3066 111.246 66.7948 110.773 67.1595 110.21C67.5241 109.647 67.7556 109.008 67.8363 108.342C67.8536 108.204 67.898 108.07 67.9669 107.949C68.0358 107.828 68.1279 107.722 68.2379 107.636C68.3479 107.55 68.4737 107.487 68.6081 107.45C68.7425 107.413 68.8829 107.403 69.0212 107.421C69.1595 107.438 69.2931 107.482 69.4143 107.551C69.5354 107.62 69.6418 107.712 69.7274 107.822C69.813 107.932 69.8761 108.058 69.913 108.192C69.95 108.327 69.9601 108.467 69.9428 108.605C69.7431 110.178 68.9775 111.623 67.7892 112.672C66.6009 113.721 65.0713 114.301 63.4864 114.304L63.4758 114.346Z" fill="black"/>
<path d="M79.8222 102.476H79.2851C79.1468 102.461 79.0127 102.419 78.8904 102.353C78.7682 102.287 78.6602 102.197 78.5727 102.089C78.4852 101.981 78.4198 101.857 78.3803 101.723C78.3407 101.59 78.3279 101.45 78.3424 101.312C78.3569 101.173 78.3986 101.039 78.4649 100.917C78.5313 100.795 78.621 100.687 78.7291 100.599C78.8372 100.512 78.9614 100.446 79.0948 100.407C79.2281 100.367 79.3679 100.355 79.5063 100.369C80.0979 100.42 80.6915 100.296 81.2125 100.011C81.6139 99.8095 81.965 99.5205 82.2398 99.1653C82.5147 98.8101 82.7063 98.3978 82.8007 97.9587C82.895 97.5196 82.8896 97.065 82.7849 96.6282C82.6802 96.1915 82.4788 95.7839 82.1956 95.4353C81.9124 95.0867 81.5546 94.8062 81.1485 94.6143C80.7425 94.4224 80.2986 94.324 79.8495 94.3265C79.4004 94.3289 78.9575 94.4321 78.5536 94.6285C78.1497 94.8248 77.795 95.1093 77.5156 95.4609C77.3424 95.6802 77.0892 95.8217 76.8117 95.8543C76.5342 95.8869 76.2551 95.8079 76.0358 95.6347C75.8165 95.4615 75.675 95.2083 75.6424 94.9308C75.6098 94.6533 75.6888 94.3741 75.862 94.1549C76.4002 93.4786 77.1012 92.9499 77.8994 92.6183C78.6976 92.2867 79.5668 92.1631 80.4258 92.259C81.2848 92.3548 82.1054 92.6671 82.8108 93.1665C83.5162 93.666 84.0834 94.3362 84.4592 95.1145C84.835 95.8929 85.0072 96.7538 84.9596 97.6169C84.9121 98.4799 84.6463 99.3167 84.1872 100.049C83.7281 100.781 83.0907 101.385 82.3347 101.804C81.5786 102.223 80.7287 102.443 79.8644 102.444L79.8222 102.476Z" fill="black"/>
<path d="M67.0359 106.099C66.025 106.098 65.0371 105.797 64.1971 105.235C63.3572 104.673 62.703 103.873 62.3174 102.939C62.2084 102.681 62.2066 102.39 62.3123 102.13C62.4179 101.87 62.6225 101.663 62.8809 101.554C63.1392 101.445 63.4303 101.443 63.6901 101.549C63.9498 101.655 64.1569 101.859 64.2659 102.117C64.4745 102.619 64.8152 103.054 65.2517 103.377C65.6882 103.7 66.2041 103.899 66.7445 103.952C67.285 104.005 67.8296 103.91 68.3205 103.678C68.8114 103.446 69.2302 103.085 69.5321 102.634C69.6872 102.4 69.9285 102.238 70.2031 102.183C70.4776 102.128 70.7629 102.184 70.9962 102.339C71.2294 102.494 71.3915 102.735 71.4468 103.01C71.5021 103.284 71.4461 103.569 71.2911 103.803C70.8266 104.507 70.1949 105.085 69.4524 105.486C68.7098 105.887 67.8797 106.097 67.0359 106.099Z" fill="black"/>
<path d="M74.4192 116.863C74.2557 116.863 74.0944 116.825 73.9482 116.752C73.8019 116.679 73.6747 116.573 73.5766 116.442L68.0892 109.227C67.9981 109.118 67.9302 108.991 67.8894 108.855C67.8486 108.719 67.8358 108.575 67.8518 108.434C67.8678 108.293 67.9123 108.156 67.9825 108.033C68.0528 107.909 68.1473 107.801 68.2605 107.715C68.3737 107.628 68.5031 107.566 68.6411 107.531C68.779 107.497 68.9225 107.49 69.063 107.512C69.2035 107.535 69.338 107.585 69.4585 107.661C69.5789 107.736 69.6828 107.836 69.7638 107.952L75.2513 115.167C75.3681 115.323 75.4395 115.508 75.4575 115.702C75.4755 115.896 75.4393 116.091 75.3531 116.266C75.2669 116.44 75.134 116.587 74.9691 116.691C74.8043 116.795 74.6139 116.851 74.4192 116.852V116.863Z" fill="black"/>
<path d="M79.5273 116.737C79.2942 116.733 79.0688 116.652 78.8865 116.507C78.7042 116.362 78.5752 116.16 78.5198 115.934C78.4644 115.707 78.4857 115.469 78.5803 115.256C78.675 115.043 78.8376 114.867 79.0428 114.756L82.0024 113.261L78.4635 101.865C78.3908 101.601 78.4237 101.319 78.5552 101.079C78.6868 100.839 78.9066 100.659 79.1681 100.579C79.4296 100.498 79.7123 100.522 79.9563 100.646C80.2003 100.77 80.3864 100.984 80.4752 101.243L84.288 113.482C84.3624 113.72 84.3504 113.976 84.254 114.205C84.1576 114.434 83.9831 114.622 83.7614 114.735L80.0013 116.631C79.8536 116.703 79.6913 116.739 79.5273 116.737Z" fill="black"/>
<path d="M79.5274 116.737C79.3329 116.736 79.1424 116.682 78.9769 116.579C78.8115 116.477 78.6776 116.331 78.59 116.157L74.3244 107.731C74.2621 107.608 74.2249 107.473 74.2147 107.334C74.2046 107.196 74.2218 107.057 74.2653 106.926C74.3088 106.794 74.3778 106.673 74.4684 106.568C74.5589 106.463 74.6693 106.377 74.7931 106.315C74.9168 106.252 75.0517 106.215 75.1899 106.205C75.3281 106.195 75.4669 106.212 75.5984 106.256C75.73 106.299 75.8517 106.368 75.9565 106.459C76.0614 106.549 76.1474 106.66 76.2097 106.783L80.4753 115.209C80.5561 115.37 80.5946 115.548 80.5871 115.727C80.5796 115.907 80.5263 116.081 80.4324 116.234C80.3385 116.387 80.207 116.514 80.0505 116.602C79.8939 116.69 79.7175 116.736 79.538 116.737H79.5274Z" fill="black"/>
<path d="M134.233 70.1829C133.433 70.1829 132.651 69.9457 131.986 69.5013C131.321 69.0568 130.803 68.4252 130.497 67.6861C130.191 66.9471 130.11 66.1339 130.266 65.3493C130.423 64.5648 130.808 63.8441 131.373 63.2785C131.939 62.7129 132.66 62.3277 133.444 62.1716C134.229 62.0156 135.042 62.0957 135.781 62.4018C136.52 62.7079 137.152 63.2263 137.596 63.8914C138.041 64.5565 138.278 65.3385 138.278 66.1384C138.275 67.2102 137.848 68.2373 137.09 68.9952C136.332 69.7531 135.305 70.1801 134.233 70.1829ZM134.233 64.2004C133.85 64.2004 133.475 64.3141 133.157 64.527C132.838 64.74 132.589 65.0426 132.443 65.3968C132.296 65.7509 132.258 66.1405 132.333 66.5165C132.407 66.8924 132.592 67.2377 132.863 67.5087C133.134 67.7798 133.479 67.9644 133.855 68.0391C134.231 68.1139 134.621 68.0755 134.975 67.9289C135.329 67.7822 135.632 67.5338 135.845 67.2151C136.058 66.8964 136.171 66.5217 136.171 66.1384C136.171 65.6244 135.967 65.1315 135.604 64.768C135.24 64.4046 134.747 64.2004 134.233 64.2004Z" fill="black"/>
<path d="M111.641 102.286C110.841 102.286 110.059 102.049 109.394 101.604C108.729 101.16 108.211 100.528 107.904 99.7892C107.598 99.0502 107.518 98.237 107.674 97.4524C107.83 96.6679 108.216 95.9472 108.781 95.3816C109.347 94.816 110.068 94.4308 110.852 94.2747C111.637 94.1186 112.45 94.1987 113.189 94.5049C113.928 94.811 114.56 95.3294 115.004 95.9945C115.448 96.6596 115.686 97.4416 115.686 98.2415C115.683 99.3133 115.256 100.34 114.498 101.098C113.74 101.856 112.713 102.283 111.641 102.286ZM111.641 96.3035C111.258 96.3035 110.883 96.4172 110.564 96.6301C110.246 96.8431 109.997 97.1457 109.851 97.4998C109.704 97.854 109.666 98.2436 109.74 98.6196C109.815 98.9955 110 99.3408 110.271 99.6118C110.542 99.8829 110.887 100.067 111.263 100.142C111.639 100.217 112.029 100.179 112.383 100.032C112.737 99.8853 113.04 99.6369 113.252 99.3182C113.465 98.9995 113.579 98.6248 113.579 98.2415C113.579 97.7275 113.375 97.2346 113.011 96.8711C112.648 96.5077 112.155 96.3035 111.641 96.3035Z" fill="black"/>
<path d="M90.3968 110.828C89.5969 110.828 88.8149 110.591 88.1498 110.146C87.4847 109.702 86.9663 109.07 86.6602 108.331C86.3541 107.592 86.274 106.779 86.43 105.994C86.5861 105.21 86.9713 104.489 87.5369 103.923C88.1026 103.358 88.8232 102.973 89.6078 102.817C90.3923 102.661 91.2055 102.741 91.9446 103.047C92.6836 103.353 93.3153 103.871 93.7597 104.536C94.2041 105.201 94.4413 105.983 94.4413 106.783C94.4385 107.855 94.0115 108.882 93.2536 109.64C92.4957 110.398 91.4686 110.825 90.3968 110.828ZM90.3968 104.845C90.0135 104.845 89.6388 104.959 89.3201 105.172C89.0014 105.385 88.753 105.688 88.6063 106.042C88.4597 106.396 88.4213 106.786 88.4961 107.161C88.5708 107.537 88.7554 107.883 89.0265 108.154C89.2975 108.425 89.6428 108.609 90.0187 108.684C90.3947 108.759 90.7843 108.721 91.1384 108.574C91.4926 108.427 91.7952 108.179 92.0082 107.86C92.2211 107.541 92.3348 107.167 92.3348 106.783C92.3348 106.269 92.1306 105.776 91.7672 105.413C91.4037 105.05 90.9108 104.845 90.3968 104.845Z" fill="black"/>
<path d="M63.4443 86.719C62.6457 86.7127 61.8669 86.4702 61.206 86.0221C60.545 85.5739 60.0316 84.94 59.7303 84.2005C59.429 83.4609 59.3534 82.6487 59.513 81.8663C59.6726 81.0838 60.0603 80.3661 60.6271 79.8036C61.194 79.2412 61.9147 78.8591 62.6984 78.7056C63.4821 78.552 64.2937 78.634 65.0308 78.941C65.768 79.248 66.3978 79.7664 66.8409 80.4308C67.2839 81.0952 67.5203 81.8759 67.5204 82.6745C67.519 83.2079 67.4124 83.7358 67.2067 84.2279C67.0009 84.7201 66.7002 85.1668 66.3215 85.5425C65.9429 85.9182 65.4938 86.2155 65.0001 86.4174C64.5064 86.6193 63.9777 86.7217 63.4443 86.719ZM63.4443 80.7365C63.0624 80.7427 62.6909 80.8617 62.3763 81.0784C62.0618 81.2951 61.8184 81.5999 61.6765 81.9545C61.5347 82.3091 61.5008 82.6977 61.5791 83.0716C61.6574 83.4454 61.8444 83.7877 62.1166 84.0556C62.3889 84.3235 62.7342 84.505 63.1093 84.5772C63.4843 84.6495 63.8723 84.6093 64.2246 84.4617C64.5769 84.3142 64.8777 84.0658 65.0893 83.7478C65.3009 83.4298 65.4138 83.0564 65.4139 82.6745C65.4139 82.4173 65.3627 82.1627 65.2634 81.9255C65.164 81.6883 65.0184 81.4732 64.8351 81.2928C64.6518 81.1125 64.4344 80.9704 64.1956 80.8749C63.9568 80.7793 63.7014 80.7323 63.4443 80.7365Z" fill="black"/>
<path d="M102.278 148.461C80.5701 148.461 65.4138 135.032 65.4138 115.81C65.4138 115.53 65.5248 115.262 65.7223 115.065C65.9198 114.867 66.1877 114.756 66.4671 114.756H138.088C138.367 114.756 138.635 114.867 138.833 115.065C139.03 115.262 139.141 115.53 139.141 115.81C139.141 135.032 123.985 148.461 102.278 148.461ZM67.5203 116.863C68.0469 134.547 81.8761 146.354 102.278 146.354C122.669 146.354 136.487 134.547 137.035 116.863H67.5203Z" fill="black"/>
<path d="M76.6203 128.68C76.4469 128.68 76.2763 128.636 76.1238 128.553C75.9713 128.47 75.8416 128.351 75.7461 128.206C75.381 127.652 75.0299 127.083 74.6929 126.5C74.6237 126.38 74.579 126.247 74.5611 126.109C74.5433 125.972 74.5527 125.832 74.5889 125.698C74.662 125.427 74.8396 125.197 75.0826 125.057C75.3256 124.918 75.6142 124.88 75.8848 124.953C76.1554 125.026 76.3859 125.204 76.5255 125.447C76.8345 125.988 77.161 126.518 77.5051 127.037C77.6094 127.196 77.669 127.379 77.6776 127.569C77.6862 127.758 77.6435 127.947 77.5539 128.114C77.4644 128.281 77.3314 128.421 77.1689 128.519C77.0064 128.617 76.8205 128.669 76.6309 128.67L76.6203 128.68Z" fill="black"/>
<path d="M88.3537 138.908C88.1888 138.907 88.0264 138.867 87.8797 138.792C87.1424 138.423 86.4157 138.023 85.7732 137.602C85.1307 137.18 84.0985 136.548 83.3086 135.98C81.9456 134.995 80.6636 133.903 79.4747 132.714L79.1061 132.346C78.821 132.075 78.5536 131.787 78.3056 131.482C78.1255 131.268 78.0376 130.992 78.0613 130.713C78.085 130.435 78.2183 130.177 78.432 129.997C78.6457 129.817 78.9222 129.729 79.2007 129.753C79.4793 129.776 79.7369 129.91 79.9171 130.123C80.1193 130.373 80.3375 130.608 80.5701 130.829L80.9704 131.219C82.0776 132.327 83.2716 133.345 84.5409 134.263C85.2782 134.8 86.0576 135.316 86.8475 135.779C87.6374 136.243 88.1851 136.548 88.8803 136.896C89.0902 137.003 89.2579 137.178 89.3566 137.392C89.4554 137.607 89.4793 137.848 89.4247 138.077C89.3701 138.307 89.24 138.511 89.0554 138.658C88.8707 138.805 88.6422 138.885 88.4063 138.886L88.3537 138.908Z" fill="black"/>
<path d="M137.035 123.182H67.5204C67.241 123.182 66.9731 123.072 66.7756 122.874C66.5781 122.676 66.4671 122.409 66.4671 122.129C66.4671 121.85 66.5781 121.582 66.7756 121.384C66.9731 121.187 67.241 121.076 67.5204 121.076H137.035C137.314 121.076 137.582 121.187 137.78 121.384C137.977 121.582 138.088 121.85 138.088 122.129C138.088 122.409 137.977 122.676 137.78 122.874C137.582 123.072 137.314 123.182 137.035 123.182Z" fill="black"/>
</svg>
