<svg width="206" height="206" viewBox="0 0 206 206" fill="none" xmlns="http://www.w3.org/2000/svg">
<rect width="205.714" height="205.714" fill="white"/>
<path d="M145.028 68.2734L141.655 66.3266C138.964 64.773 135.217 64.9044 133.123 66.6264C132.109 67.4616 131.604 68.5723 131.702 69.755C131.803 70.9757 132.546 72.1263 133.764 72.98L122.413 90.237C115.781 89.7999 108.11 89.5634 100.085 89.5634C88.871 89.5634 78.3238 90.0209 70.3855 90.8502C57.2607 92.2228 57.2539 93.972 57.2539 94.9124C57.2539 94.9124 57.2539 94.9124 57.2539 94.9133C57.2539 94.9805 57.2539 95.0535 57.2597 95.1285C57.3464 112.454 67.7728 127.37 82.6702 134.028V136.062C82.6702 138.878 94.1187 140.937 100.078 140.937C106.042 140.937 117.501 138.878 117.501 136.062V134.028C132.397 127.37 142.823 112.455 142.91 95.1294C142.915 95.0535 142.916 94.9815 142.916 94.9133C142.916 94.9133 142.916 94.9133 142.916 94.9124C142.916 94.1794 142.899 92.9548 136.678 91.8003L143.198 78.4263C144.551 79.06 145.925 79.1321 147.035 78.6074C148.109 78.1002 148.818 77.1073 149.034 75.8117C149.479 73.1386 147.72 69.827 145.028 68.2734ZM115.554 135.821C114.476 136.804 107.21 138.991 100.078 138.991C92.9535 138.991 85.6946 136.804 84.6171 135.821V134.842C89.419 136.709 94.6317 137.743 100.086 137.743C105.54 137.743 110.753 136.709 115.555 134.842V135.821H115.554ZM100.085 135.797C78.2187 135.797 60.3085 118.54 59.2523 96.9303C60.9967 97.6136 64.2626 98.3359 70.3865 98.9764C78.3228 99.8058 88.87 100.262 100.085 100.262C111.3 100.262 121.847 99.8048 129.784 98.9764C135.907 98.3369 139.174 97.6146 140.918 96.9303C139.861 118.54 121.952 135.797 100.085 135.797ZM140.73 94.9133C138.239 96.4124 123.613 98.3165 100.085 98.3165C76.558 98.3165 61.9302 96.4124 59.4402 94.9143C61.9312 93.4143 76.559 91.5102 100.085 91.5102C108.235 91.5102 115.305 91.74 121.186 92.1021L120.726 92.8C114.715 92.5664 107.585 92.4389 100.085 92.4389C90.4654 92.4389 81.4203 92.6452 74.616 93.022C63.6172 93.6294 63.6172 94.341 63.6172 94.9133C63.6172 95.4857 63.6172 96.1973 74.616 96.8047C81.4184 97.1795 90.4635 97.3868 100.085 97.3868C109.706 97.3868 118.751 97.1795 125.554 96.8047C136.553 96.1973 136.553 95.4857 136.553 94.9133C136.553 94.6573 136.546 94.3741 135.565 94.085L135.799 93.6031C138.355 94.0382 140.028 94.4909 140.73 94.9133ZM100.085 96.4134C82.0521 96.4134 68.4153 95.6765 65.1689 94.9124C68.4153 94.1482 82.0521 93.4113 100.085 93.4113C107.691 93.4113 114.506 93.5428 120.1 93.752L118.588 96.0493L118.536 96.1272C113.254 96.3054 106.995 96.4134 100.085 96.4134ZM132.87 95.1713L132.828 95.256C130.29 95.5558 126.188 95.8332 120.924 96.0425L135.404 74.0293L141.44 77.5892L132.87 95.1713ZM147.114 75.4924C147.038 75.9499 146.818 76.5573 146.205 76.8464C145.539 77.1609 144.613 77.0265 143.664 76.4775L135.234 71.6103C134.284 71.0623 133.704 70.3274 133.643 69.5934C133.587 68.9178 134.003 68.4243 134.361 68.1294C135.819 66.9301 138.715 66.8765 140.682 68.0125L144.055 69.9594C146.022 71.0964 147.424 73.6302 147.114 75.4924Z" fill="black"/>
</svg>
