<svg width="206" height="206" viewBox="0 0 206 206" fill="none" xmlns="http://www.w3.org/2000/svg">
<rect width="205.714" height="205.714" fill="white"/>
<path d="M103.107 146.964C127.228 146.964 146.964 127.229 146.964 103.108C146.964 78.9865 127.228 59.2511 103.107 59.2511C78.9864 59.2511 59.251 78.9865 59.251 103.108C59.251 127.229 78.9864 146.964 103.107 146.964ZM103.107 143.309C83.9203 143.309 68.0223 129.97 63.8194 111.879H142.213C138.193 129.97 122.295 143.309 103.107 143.309ZM103.107 62.9058C125.218 62.9058 143.309 80.9966 143.309 103.108C143.309 104.935 143.126 106.58 142.944 108.407H142.761H63.4539H63.2712C63.0885 106.58 62.9057 104.935 62.9057 103.108C62.9057 80.9966 80.9965 62.9058 103.107 62.9058Z" fill="black"/>
<path d="M80.8136 117.909C80.0827 117.178 78.9863 117.361 78.2553 118.092C77.5244 118.823 77.7071 119.919 78.4381 120.65L90.4986 131.431C91.2295 132.162 92.3259 131.98 93.0569 131.249C93.7878 130.518 93.6051 129.421 92.8742 128.69L80.8136 117.909Z" fill="black"/>
<path d="M92.5088 117.544C91.7779 116.813 90.6815 116.995 89.9505 117.726C89.2196 118.457 89.4023 119.554 90.1333 120.285L102.194 131.066C102.925 131.797 104.021 131.614 104.752 130.883C105.483 130.152 105.3 129.056 104.569 128.325L92.5088 117.544Z" fill="black"/>
<path d="M104.204 117.361C103.473 116.63 102.376 116.813 101.645 117.544C100.914 118.275 101.097 119.371 101.828 120.102L113.889 130.883C114.619 131.614 115.716 131.431 116.447 130.701C117.178 129.97 116.995 128.873 116.264 128.142L104.204 117.361Z" fill="black"/>
<path d="M115.716 116.995C114.985 116.264 113.889 116.447 113.158 117.178C112.427 117.909 112.61 119.005 113.34 119.736L125.401 130.518C126.132 131.249 127.228 131.066 127.959 130.335C128.69 129.604 128.507 128.508 127.777 127.777L115.716 116.995Z" fill="black"/>
<path d="M115.716 102.925C122.843 102.925 128.69 97.0773 128.69 89.9507C128.69 83.3722 118.274 71.8599 117.178 70.5807C116.812 70.2153 116.264 70.0325 115.899 70.0325C115.533 70.0325 114.985 70.2153 114.62 70.5807C113.523 71.8599 103.107 83.3722 103.107 89.9507C102.742 97.0773 108.589 102.925 115.716 102.925ZM115.716 74.4182C119.736 79.1693 125.035 86.296 125.035 89.9507C125.035 95.0672 120.833 99.2701 115.716 99.2701C110.599 99.2701 106.396 95.0672 106.396 89.9507C106.396 86.4787 111.696 79.1693 115.716 74.4182Z" fill="black"/>
<path d="M85.7475 102.925C90.1332 102.925 93.7879 99.2701 93.7879 94.8845C93.7879 90.8643 88.1231 84.6513 87.0267 83.3722C86.2957 82.6412 85.0166 82.6412 84.2856 83.3722C83.1892 84.6513 77.5244 90.8643 77.5244 94.8845C77.5244 99.2701 81.1792 102.925 85.7475 102.925ZM85.7475 87.2096C87.9403 89.7679 90.1332 93.2399 90.1332 94.7018C90.1332 97.0773 88.1231 99.0874 85.7475 99.0874C83.372 99.0874 81.3619 97.0773 81.3619 94.7018C81.1792 93.2399 83.5547 89.7679 85.7475 87.2096Z" fill="black"/>
<path d="M130.335 112.792C126.863 112.792 123.939 115.716 123.939 119.188C123.939 122.66 126.863 125.584 130.335 125.584C133.807 125.584 136.731 122.66 136.731 119.188C136.731 115.716 133.807 112.792 130.335 112.792ZM130.335 121.929C128.873 121.929 127.594 120.65 127.594 119.188C127.594 117.726 128.873 116.447 130.335 116.447C131.797 116.447 133.076 117.726 133.076 119.188C133.076 120.65 131.797 121.929 130.335 121.929Z" fill="black"/>
<path d="M95.7979 80.8139C99.2699 80.8139 102.194 77.8901 102.194 74.4181C102.194 70.9462 99.2699 68.0224 95.7979 68.0224C92.3259 68.0224 89.4022 70.9462 89.4022 74.4181C89.4022 77.8901 92.3259 80.8139 95.7979 80.8139ZM95.7979 71.6771C97.2598 71.6771 98.5389 72.9562 98.5389 74.4181C98.5389 75.88 97.2598 77.1592 95.7979 77.1592C94.336 77.1592 93.0569 75.88 93.0569 74.4181C93.0569 72.9562 94.336 71.6771 95.7979 71.6771Z" fill="black"/>
</svg>
