<svg width="206" height="206" viewBox="0 0 206 206" fill="none" xmlns="http://www.w3.org/2000/svg">
<rect width="205.714" height="205.714" fill="white"/>
<path d="M137.298 82.528C132.458 75.7378 126.144 72.2951 118.532 72.2951C113.662 72.2951 108.311 73.6749 102.191 76.5095C101.857 76.5201 101.533 76.5259 101.22 76.5259C96.9568 76.5259 94.1376 75.5502 92.0785 73.3622C90.9681 72.1825 88.9802 68.9169 88.147 60.2966L88.0363 59.1564L87.3204 58.2625C86.1312 56.7759 84.2337 55.9224 82.115 55.9224C80.308 55.9224 78.3971 56.5238 77.0096 57.6149C75.2642 58.9889 74.1509 60.9691 74.1509 63.1928V63.4006L74.3241 63.6065C74.3818 64.1299 74.5069 64.7063 74.5608 65.3211C75.0015 70.3563 75.7068 77.9644 81.0835 83.6759C84.8014 87.6258 89.1929 89.5203 93.1619 90.469C92.5625 92.0721 92.2546 94.0648 92.6847 96.6502C94.5138 107.63 89.3055 109.467 87.5928 110.071C84.3405 111.218 81.9129 113.073 80.4889 114.375C78.2017 114.432 74.9216 115.137 71.7146 118.005C65.1582 123.874 63.7159 139.336 63.9314 144.305L63.9757 145.334L64.5299 146.203C66.0617 148.611 68.6423 150.048 71.4327 150.048C74.1827 150.048 76.6276 148.641 77.9737 146.287L78.5231 145.325L78.4769 144.217C78.2691 139.229 80.2762 130.866 81.3308 129.14C81.7955 128.66 82.1881 128.338 82.5133 128.119C87.2771 132.025 93.4958 134.003 101.035 134.003C104.752 134.003 108.816 133.505 113.118 132.524C122.806 130.315 131.023 124.417 135.661 116.341C142.424 104.57 143.098 90.6653 137.298 82.528ZM132.324 114.424C128.197 121.61 120.992 126.782 112.262 128.772C108.112 129.719 104.379 130.155 101.036 130.155C93.0984 130.155 87.3609 127.698 83.4736 123.798C82.9877 123.879 81.0999 123.785 78.4375 126.598C76.7536 128.377 74.3914 138.606 74.632 144.379C73.9354 145.598 72.7076 146.201 71.4327 146.201C70.0664 146.201 68.6471 145.507 67.7764 144.138C67.5358 138.606 69.4063 125.238 74.2818 120.874C76.8345 118.591 79.339 118.219 80.8093 118.219C81.403 118.219 81.8273 118.279 82.0188 118.3C82.0188 118.3 84.609 115.206 88.8763 113.701C96.0312 111.179 97.868 104.288 96.4902 96.019C95.7685 91.6891 97.8286 90.1486 99.3604 87.5141C93.9288 87.0917 88.274 85.6619 83.9229 81.0395C78.8358 75.6349 78.7829 67.6448 78.3018 63.1947C78.3018 60.947 80.332 59.7712 82.114 59.7712C83.005 59.7712 83.8335 60.0656 84.3146 60.667C84.6754 64.3955 85.6732 72.1729 89.2747 75.9996C92.3364 79.2518 96.3603 80.3737 101.219 80.3737C101.842 80.3737 102.479 80.3554 103.128 80.3208C108.893 77.5708 114.008 76.1439 118.532 76.1439C124.841 76.1439 130 78.9217 134.163 84.7623C138.91 91.4226 138.527 103.627 132.324 114.424Z" fill="black"/>
<path d="M129.912 107.158C129.912 102.744 126.333 99.1654 121.92 99.1654C118.993 99.1654 116.437 101.444 115.044 103.791C113.651 101.445 111.094 99.1654 108.168 99.1654C103.754 99.1654 100.175 102.744 100.175 107.158C100.175 109.896 102.012 111.775 103.648 113.751C106.183 116.812 113.148 122.659 115.1 123.141C116.982 122.557 123.946 116.987 126.854 113.447C127.984 112.073 129.912 109.71 129.912 107.158Z" fill="black"/>
</svg>
