<svg height="50" xmlns="http://www.w3.org/2000/svg" viewBox="0 0 469.99 113.96">
  <path fill="#DC5960" d="M7.22 85.81l.24-1.23 2.94-1.1a10.83 10.83 0 006.85-8.32l6-32.19q1-5.14 2.14-11.45t2.27-12.61q1.09-6.3 2-11.44h-5.27a16.79 16.79 0 00-7.58 1.59 16.17 16.17 0 00-5.76 5.14L1.26 27.54H.04L4.56 5.02h67.82l-3.92 22.52h-1.22l-4.53-12.36q-2.7-7.71-11.14-7.71h-5l-7.65 40.26q-1.23 6.24-2.51 13.4t-2.51 13.9q-1.09 6.36 4.78 8.81l1.59.73-.25 1.23zM67.91 86.54l-.74-.73 11.14-53.37q1-4.65 1.71-8.38t1.59-8.39q1-5.26-4-7l-2-.61.24-1.22L99.23-.02l.86.86-8.33 39.05a65 65 0 0113-10.59q6.92-4.23 12.79-4.22a9 9 0 016.43 2.38q2.5 2.38 2.51 7.41a31 31 0 01-.49 5.32q-.5 2.76-1.23 5.69l-6.12 25c-.32 1.55-.65 2.87-1 4a10.12 10.12 0 00-.49 2.63c0 1.72.74 2.58 2.21 2.58q3.18 0 8.93-5.39l1.11 1.1a31.6 31.6 0 01-8 8.2 18.78 18.78 0 01-11.38 3.67 9.32 9.32 0 01-6.25-1.89 6.65 6.65 0 01-2.2-5.33 24.34 24.34 0 01.61-5.32q.61-2.76 1.47-5.69l5.51-21.55q.86-3.3 1.53-6.06a20.17 20.17 0 00.67-4.71c0-2.85-1.34-4.28-4-4.28q-6 0-15.79 9.79l-3.67 17q-1.59 7.47-2.75 13.53t-2.27 12.67zM154.51 87.64q-9.18 0-14.94-6t-5.75-17a42 42 0 0110.24-27.61 36.15 36.15 0 0111.2-8.75 30.49 30.49 0 0113.8-3.18q7.71 0 11.81 3.48a11.53 11.53 0 014.1 9.25q0 4.77-4.46 9.42a41.21 41.21 0 01-12.55 8.39 78.49 78.49 0 01-19 5.69q.12 8.44 3.67 12.36t9.79 3.92a17.32 17.32 0 009.67-2.88 30.64 30.64 0 007.47-6.79l1.22.85a42.19 42.19 0 01-6.3 9.06 33.58 33.58 0 01-8.88 7 22.67 22.67 0 01-11.09 2.79zm13.71-59.24a10.3 10.3 0 00-6.06 2.45 27.52 27.52 0 00-6.12 6.67 41.14 41.14 0 00-4.78 9.67A42.8 42.8 0 00149 58.73q13.45-3.67 19.15-9.67a19.22 19.22 0 005.7-13.59c0-2.45-.54-4.24-1.6-5.39a5.26 5.26 0 00-4.03-1.68zM253.9 88.01q-11.51 0-20-4.22a30.3 30.3 0 01-13-12.24q-4.59-8-4.59-19.4a52 52 0 013.49-19.1 48.15 48.15 0 019.91-15.73 46.41 46.41 0 0115.18-10.65 47.28 47.28 0 0119.28-3.85 50.51 50.51 0 0111.81 1.34 45.69 45.69 0 0111.33 4.57l-2.93 18.85h-1.23l-4.16-13q-1.59-5.26-5-7.28a17.06 17.06 0 00-8.87-2 24.8 24.8 0 00-16.47 5.93q-7 5.94-11 16.53a70.59 70.59 0 00-3.92 24.54q0 15.3 5.94 24.3t16.95 9a14.75 14.75 0 007.77-1.83 16.58 16.58 0 005.33-5.63l9.06-14.69h1.28l-2.94 18.6a50.28 50.28 0 01-10.22 4.35 45.24 45.24 0 01-13 1.61zM309.65 87.64a26.59 26.59 0 01-11.59-2.51 19.16 19.16 0 01-8.32-7.58q-3.06-5.08-3.06-12.92a42.7 42.7 0 012.59-14.9 41.18 41.18 0 017.41-12.67 35.43 35.43 0 0111.13-8.75 30.56 30.56 0 0113.84-3.18 25.65 25.65 0 0111.56 2.51 19.13 19.13 0 018.08 7.52q3 5 3 12.86a42.9 42.9 0 01-2.63 14.87 42 42 0 01-7.34 12.73 35.9 35.9 0 01-11 8.81 29.41 29.41 0 01-13.67 3.21zm1.47-2.44a9.2 9.2 0 006.94-3.47 31.33 31.33 0 005.44-9.31 63.51 63.51 0 003.56-12.87 81.21 81.21 0 001.23-14q0-10.17-2.08-14.08t-5.39-3.92a9.92 9.92 0 00-7.22 3.43 30.19 30.19 0 00-5.76 9.18 63.29 63.29 0 00-3.78 12.72 73.28 73.28 0 00-1.35 14q0 10.39 2.45 14.38t5.96 3.94zM371.88 87.64a26.59 26.59 0 01-11.63-2.51 19.16 19.16 0 01-8.32-7.58q-3.06-5.08-3.06-12.92a42.47 42.47 0 012.63-14.9 41.18 41.18 0 017.41-12.67 35.35 35.35 0 0111.15-8.78 30.49 30.49 0 0113.83-3.18 25.65 25.65 0 0111.56 2.51 19.13 19.13 0 018.08 7.52q3 5 3 12.86a42.9 42.9 0 01-2.63 14.87 42 42 0 01-7.34 12.73 35.9 35.9 0 01-11 8.81 29.41 29.41 0 01-13.68 3.24zm1.47-2.44c2.53 0 4.83-1.17 6.92-3.49a31.33 31.33 0 005.44-9.31 63.51 63.51 0 003.55-12.85 81.21 81.21 0 001.23-14q0-10.17-2.08-14.08t-5.35-3.93a9.92 9.92 0 00-7.22 3.43 30.17 30.17 0 00-5.75 9.18 62.65 62.65 0 00-3.8 12.73 73.28 73.28 0 00-1.35 14q0 10.39 2.45 14.38t5.96 3.94zM431.18 87.64a14.65 14.65 0 01-6.12-1.34q-1.34 6.12-2.32 11t-1.68 9.32q-.62 4 3.42 5.14l3.06 1-.24 1.22h-29.5l.26-1.25 2.33-.61a6.76 6.76 0 005.14-5.51l13.83-66c.57-3.18-.57-5.43-3.43-6.73l-2.32-1 .24-1.35 22.65-6.61 1.22 1-2.66 12.88a43.28 43.28 0 0111-9.85q6.18-3.86 11.56-3.85a12 12 0 018.69 3.55q3.68 3.54 3.68 12.85a40.91 40.91 0 01-2.27 13.34 53.85 53.85 0 01-6.24 12.55 55.7 55.7 0 01-9 10.46 43.89 43.89 0 01-10.52 7.16 24.86 24.86 0 01-10.78 2.63zm15.8-53.49a11.28 11.28 0 00-6.13 2.21 30 30 0 00-6.48 6.12l-7.22 35.37c3 3 6.16 4.53 9.42 4.53q7.23 0 11.87-7.59a38.13 38.13 0 003.19-7.46 70.87 70.87 0 002.38-9.86 60 60 0 00.92-10.34q0-6.12-2-9.55a6.48 6.48 0 00-5.95-3.43z"/>
</svg>
