<svg xmlns="http://www.w3.org/2000/svg" viewBox="0 0 120 80">
  <path fill="#1eaea3" d="M3.1 29.5h5.6l.4 5.2h.1c.4-1 .8-1.9 1.3-2.6.5-.7 1.1-1.3 1.8-1.7.7-.5 1.4-.8 2.1-1 .7-.2 1.4-.3 2.1-.3 1.1 0 2 .2 2.8.5.8.3 1.4.8 1.8 1.3.5.5.8 1.2 1 1.9.2.7.3 1.5.3 2.4V51h-6.2V36.7c0-1.2-.2-2-.6-2.5-.4-.5-1-.8-1.9-.8-1.2 0-2.2.6-3 1.7-.8 1.1-1.2 2.8-1.2 4.9v11H3.1V29.5zM26.2 56c.6 0 1.3 0 1.8-.1.6-.1 1.1-.2 1.5-.3.6-.2 1.1-.6 1.4-1 .4-.4.7-1.1 1-1.9l.6-1.7-7.8-21.4h6.7l4 14h.2l4.3-14h5.3l-8.6 24.2c-.3.8-.5 1.5-.8 2.1-.3.6-.6 1.2-1 1.6-.4.5-.8.9-1.3 1.3s-1 .6-1.7.9c-.6.2-1.5.4-2.5.5-1 .1-2.1.1-3.3.1V56zm28.2-5h-6.2V29.5h5.6l.4 5.3h.1c.3-1.1.7-2 1.3-2.7.5-.7 1.1-1.3 1.7-1.7.6-.5 1.3-.8 1.9-1 .7-.2 1.4-.3 2.1-.3 1.1 0 2 .1 2.7.4.7.3 1.3.7 1.7 1.2.4.5.7 1.1.9 1.8.2.7.2 1.5.2 2.3h.1c.3-1.1.7-1.9 1.3-2.7.5-.8 1.1-1.3 1.7-1.8.6-.5 1.3-.8 1.9-1 .7-.2 1.3-.3 2-.3 1.1 0 2 .1 2.7.4.7.3 1.3.7 1.7 1.2.4.5.7 1.1.9 1.9.2.7.2 1.5.2 2.3v16h-6.2V36.3c0-1-.1-1.7-.4-2.1-.3-.5-.8-.7-1.6-.7-.5 0-1.1.2-1.6.5s-1 .7-1.3 1.3c-.4.6-.7 1.3-.9 2.1-.2.8-.3 1.7-.3 2.8V51h-6.2V36.3c0-1-.1-1.7-.4-2.1-.3-.5-.8-.7-1.6-.7-.5 0-1.1.1-1.6.4s-1 .7-1.3 1.3c-.4.6-.7 1.3-.9 2.1-.2.8-.3 1.7-.3 2.8V51zm42.1.4c-1.4 0-2.7-.4-3.7-1.1-1-.8-1.8-1.9-2.4-3.4h-.3l-1.6 4.3h-4.2V19.3h6.2v14.4h.3c.6-1.5 1.4-2.7 2.5-3.5 1.1-.8 2.4-1.2 3.8-1.2 2.6 0 4.6 1 6 2.9 1.5 1.9 2.2 4.7 2.2 8.2 0 1.6-.2 3.1-.6 4.5-.4 1.3-.9 2.5-1.7 3.5-.8 1-1.7 1.8-2.8 2.3-1 .7-2.3 1-3.7 1zm-1.7-3.7c1.3 0 2.3-.6 3-1.8.7-1.2 1.1-3.1 1.1-5.6 0-1.3-.1-2.5-.3-3.4-.2-.9-.4-1.7-.8-2.2-.3-.6-.7-1-1.2-1.2s-1-.5-1.6-.5c-.5 0-1.1.1-1.6.4-.5.3-1 .7-1.4 1.3s-.7 1.3-1 2.3c-.2.9-.4 1.9-.4 3.2 0 2.5.4 4.4 1.1 5.6.8 1.2 1.8 1.9 3.1 1.9zm15-28.4h6.2V51h-6.2V19.3z"/>
</svg>
