<svg width="50" xmlns="http://www.w3.org/2000/svg" viewBox="0 0 68 73.8">
  <path fill="#fff" d="M35.7 4l32 52c.8 1.3-.1 3-1.7 3H2C.4 59-.5 57.3.3 56l32-52c.8-1.3 2.6-1.3 3.4 0zM5.6 55h56.8L34 8.8 5.6 55zm14.6-16.2c-.2-.5-.2-1 0-1.5C22.5 31.7 27.9 28 34 28c6.1 0 11.5 3.7 13.8 9.2.2.5.2 1 0 1.5C45.5 44.3 40.1 48 34 48c-6.1 0-11.5-3.7-13.8-9.2zM34 44c4.2 0 7.9-2.4 9.8-6-1.9-3.6-5.6-6-9.8-6-4.2 0-7.9 2.4-9.8 6 1.9 3.6 5.6 6 9.8 6zm0-3c-1.7 0-3-1.3-3-3s1.3-3 3-3 3 1.3 3 3-1.3 3-3 3zm23-21.3c-.9.6-2.2.3-2.7-.7-.6-.9-.3-2.2.7-2.7l10-6c.9-.6 2.2-.3 2.7.7.6.9.3 2.2-.7 2.7l-10 6zm-8.2-9.9c-.4 1-1.6 1.5-2.6 1.1-1-.4-1.5-1.6-1.1-2.6l3-7c.4-1 1.6-1.5 2.6-1.1 1 .4 1.5 1.6 1.1 2.6l-3 7zM58.7 33c-1.1-.2-1.9-1.2-1.7-2.3.2-1.1 1.2-1.9 2.3-1.7l7 1c1.1.2 1.9 1.2 1.7 2.3-.2 1.1-1.2 1.9-2.3 1.7l-7-1zM13 16.3c.9.6 1.3 1.8.7 2.7-.6.9-1.8 1.3-2.7.7l-10-6C0 13.1-.3 11.9.3 11c.6-1 1.8-1.3 2.7-.7l10 6zm9.8-8.1c.4 1 0 2.2-1.1 2.6-1 .4-2.2 0-2.6-1.1l-3-7c-.4-1 0-2.2 1.1-2.6 1-.4 2.2 0 2.6 1.1l3 7zM8.7 29c1.1-.2 2.1.6 2.3 1.7.2 1.1-.6 2.1-1.7 2.3l-7 1c-1.1.2-2.1-.6-2.3-1.7-.2-1.1.6-2.1 1.7-2.3l7-1z" fill-rule="evenodd" clip-rule="evenodd"/>
</svg>
