<svg xmlns="http://www.w3.org/2000/svg" width="961" height="303" fill="none">
  <path fill="#25A9B1" d="M114.73 234v-97.86c0-20.7-10.87-28.07-27.71-28.07-16.14 0-26.67 8.77-33 16.49V234H0V64.56h54v20.7c10.18-11.93 30.18-24.91 58.6-24.91 38.6 0 56.14 22.46 56.14 53.68V234h-54.01zm184.6 24.21C285.65 294 260 302.1 227.76 302.8c-4.92 0-17.55-1.05-23.16-2.8l-.34-44.48c3.86 2.1 17.18-.43 21.39-.43 12.28 0 20-2.46 22.81-9.48l3.86-9.12L280 171.93l38.63-107.37h57.19l-76.49 193.68v-.03zM605.68 234V130.88c0-13-6.32-22.81-22.46-22.81-14.73 0-25.26 9.47-30.52 16.49V234h-54V130.88c0-13-6-22.81-22.45-22.81-14.39 0-24.56 9.47-30.18 16.49V234H392V64.56h54v20.7c7.37-9.82 29.13-24.91 55.79-24.91 24.21 0 41.06 10.18 48.07 30.18 9.83-14.74 31.93-30.18 58.6-30.18 31.23 0 50.87 16.14 50.87 50.88V234h-53.65zm197.61 4.21c-18.95 0-36.14-7.72-50.18-23.86V234h-54V0h54v84.56c13.34-16.84 31.58-24.21 50.18-24.21 42.1 0 74.73 33.33 74.73 88.77 0 57.54-33 89.12-74.73 89.12v-.03zm-17.9-130.17c-11.58 0-25.61 6.32-32.28 15.44v51.93c6.67 9.12 20.7 15.08 32.28 15.08 21.41 0 37.55-15.79 37.55-41.4 0-25.26-16.14-41.05-37.55-41.05zM906.48 234V0h54v234h-54z"/>
  <path fill="#25A9B1" fill-rule="evenodd" d="M208.2 65.68c-24.48 66.67 3.8 107.37 47.8 127.81 14.62-16.94 37.6-94.38-47.8-127.81z" clip-rule="evenodd"/>
</svg>
