<svg xmlns="http://www.w3.org/2000/svg" fill="none" viewBox="0 0 127 85">
  <path fill="#EEE1C3" d="M5.417 44.128c-.06.05-.126.094-.196.132l-.346.258.542-.39zM39.816 22.91h.073-.2c-.077.01-.077.01.127 0zM29.929 26.084l-.462.221c.047-.017.094-.039.138-.063l.324-.158zM9.813 40.687l-1.092.858a20.77 20.77 0 001.092-.858zM31.195 25.497c-.338.154-.872.394-1.266.587.383-.182.808-.38 1.266-.587zM54.599 34.044c-.048-.133-.1-.273-.154-.417-.054-.145-.119-.296-.182-.453-.01-.019-.034-.068-.034-.06.136.302.256.611.37.93zM59.235 57.045c-.265.864-.308 1.01-.252.888.038-.154.118-.414.252-.888zM48.698 76.225l.328-.335c-.237.238-.399.403-.328.335zM56.044 65.927c.033-.046.063-.094.09-.145.031-.075.011-.047-.09.145zM69.228 31.977l.251.462c-.035-.077-.132-.243-.25-.462zM47.802 12.48l-.22-.138.22.138zM47.064 12.018l.524.32-.524-.32zM54.86 34.968c.136.336.341.932.51 1.45l.22.672c.028.102.062.202.104.3a38.09 38.09 0 00-1.095-3.348c.424 1.177.587 1.795.26.926zM19.572 51.062c1.106-.047 1.665-.05 1.944-.06-.672 0-1.359.028-2.002.063l.058-.003zM17.604 51.238c-.128.02-.268.041-.34.055.413-.049.443-.058.34-.055zM.53 46.466zM43.554 52.02c.571.034 1.144.051 1.719.074l.77-.024c.154-.019-.257-.022-.816-.027l-1.673-.023zM17.604 51.238a25.457 25.457 0 011.911-.173l-.916.03c-.556.05-.914.077-1.126.11l-.225.033c-.047.008-.065.012-.065.015 0 .003.308-.012.42-.015z"/>
  <path fill="#EEE1C3" d="M59.896 55.213c-.154.504.01-.128.133-.627.121-.499.206-.861-.088.202l-.547 2.102c.037-.177-.037.03-.133.308-.095.28-.23.624-.278.737-.11.422.124-.233.295-.689a1.54 1.54 0 01.154-.374 5.66 5.66 0 01-.23.895c-.076.288-.266.893-.474 1.54-.208.647-.48 1.33-.648 1.793.379-1.03.385-1.014.262-.635l-.253.755-.141.42c-.045.134-.098.256-.136.36-.13.307-.279.67-.433 1.042l-.23.564c-.08.186-.167.37-.247.55l-.447.978c-.13.282-.239.51-.319.644a40.858 40.858 0 01-.87 1.765l-.048.052c-.762 1.419.277-.471.096-.102a43.09 43.09 0 01-2.545 4.171c.262-.395.522-.77.753-1.138l.643-1.078c.21-.34.388-.68.56-1.007.173-.327.34-.638.5-.937-.848 1.51-.794 1.363-.486.755.154-.308.376-.72.562-1.114.187-.394.35-.759.425-.936-1.232 2.487-1.745 3.42-2.98 5.32a7.27 7.27 0 01-.671.893c-.07.071 0-.046.132-.248l.11-.166c.04-.062.08-.126.121-.196.085-.134.174-.278.262-.42.177-.282.348-.547.444-.692l-.518.79c-.174.264-.34.53-.528.778l-.54.744-.26.362-.27.339-.514.647-.24.308-.243.274-.815.924c.605-.713.853-1.009 1.078-1.295.225-.287.417-.569.924-1.232-.328.38-.587.687-.8.945-.109.128-.2.248-.292.352l-.254.286c-.308.353-.522.627-.85.977.386-.406.956-1.054 1.107-1.193-.403.44-.684.754-.892.994-.208.24-.357.39-.47.525l-.315.379-.194.223c-.088.1-.182.195-.28.285l-.555.473c-.199.17-.402.354-.63.52-.448.338-.895.706-1.332.983-.438.278-.801.547-1.078.692-.278.145-.42.231-.38.188l.054.045c-.22.135-.397.25-.546.334l-.358.19a2.2 2.2 0 01-.277.13c-.05.013.09-.081-.057-.017-.33.2-.273.208-.522.358-.128.072-.333.178-.702.36-.187.09-.412.205-.7.308-.288.103-.625.26-1.036.407.12-.067 0-.04-.26.035l-.463.143c-.177.056-.37.127-.573.174-.402.102-.814.22-1.127.285-.313.065-.522.088-.504.059l-.559.12c-.174.035-.342.057-.502.085-.32.05-.616.11-.91.154l-.924.103c-.165.02-.34.025-.526.034l-.594.023c-.938-.008-.296-.042.7-.112.25-.01.521-.051.794-.078.273-.026.553-.052.813-.095.52-.086.981-.143 1.232-.194 2.292-.471-.294.105.626-.085.181-.041.366-.074.547-.124l.539-.154.539-.155c.178-.055.354-.118.531-.178l-.493.154-.567.14-.583.154c-.194.045-.387.074-.566.11-.359.063-.668.13-.875.153-.206.023-.308.027-.23 0-2.246.353 1.817-.223-.646.167-.248.04-.5.044-.75.069-.25.025-.5.042-.75.054-1.245.062-1.114.075-1.078.09.035.016-.023.056-1.653.008.273.013.42.014.474.01.054-.005.01 0-.104-.01l-1.294-.083c-1.13-.1-2.49-.345-2.388-.36-.326-.03-.65-.081-.968-.154l-.216-.04-.23-.056-.495-.118c-.172-.043-.35-.082-.53-.133l-.549-.154c-1.474-.425-2.968-1.012-3.29-1.124l.398.172.403.154c.27.105.54.215.81.309-.118-.053-.232-.115-.35-.172l.329.124.326.108.638.21c.422.135.843.242 1.26.364.417.122.847.206 1.283.308.442.085.893.188 1.372.271-1.507-.252.503.18-1.252-.138-1.64-.353-1.848-.462-1.711-.435.07.011.223.045.333.068.109.023.175.03.06 0-.429-.117-.86-.228-1.286-.351-.427-.123-.852-.26-1.271-.41.279.117.567.208.85.308.284.1.57.205.86.291a31.836 31.836 0 01-7.141-3.103c-.451-.282-.784-.484-1.02-.64l-.462-.315c-.161-.114-.072-.063.048.009.243.14.604.376-.645-.488-.56-.384-.781-.518-1.043-.713-.262-.196-.596-.42-1.337-1.037.197.168.386.326.568.473.184.154.365.275.535.402l.491.36.462.32c.182.147.096.096-.135-.058-.114-.079-.268-.179-.436-.308l-.538-.393c-.77-.573-1.566-1.254-1.506-1.172-.585-.537-.462-.453.03-.06a28.236 28.236 0 01-3.234-3.205c-.439-.505-.8-.99-1.106-1.403a9.688 9.688 0 01-.68-1.034l-.409-.564-.383-.58-.127-.214-.106-.202-.18-.348L6 67.62l-.102-.223a3.721 3.721 0 01-.154-.35c.01.01.066.127.154.3.045.085.09.187.154.293l.184.336c.243.462.548.924.616 1.038.038.054.021.017-.076-.154l-.212-.373c-.094-.161-.196-.374-.33-.63a15.622 15.622 0 01-1.041-2.484l-.093-.28-.07-.271-.133-.496a56.001 56.001 0 01-.154-.77c.05.266.092.534.154.8.062.267.13.529.203.792l-.21-.71a2.444 2.444 0 01-.07-.272l-.06-.27-.066-.308c-.026-.113-.034-.239-.054-.384-.02-.145-.04-.308-.059-.497l-.02-.658c.003-.357.042-.712.117-1.061.02-.099.04-.205.071-.393.021-.116.049-.23.082-.343.038-.14.072-.308.137-.515.194-.513.339-.924.49-1.218.15-.294.235-.52.322-.656.154-.276.174-.277.118-.14-.028.069-.074.174-.13.294-.055.12-.104.27-.153.416l-.154.423c-.051.131-.079.253-.103.336l.097-.256.095-.21.145-.307c.036-.084.079-.165.128-.242a2.115 2.115 0 01-.154.439l-.14.36-.08.253c-.016.046-.013.045.013-.03.026-.076.076-.227.185-.463-.04.086-.083.171-.122.259l-.104.266a13.11 13.11 0 011.421-2.915c-.306.397-.578.82-.813 1.263-.067.117-.125.24-.172.368-.014.074.058-.07-.22.473l-.185.417c-.062.14-.108.286-.164.428-.113.28-.21.567-.29.858.016-.068.04-.19.088-.351.05-.162.13-.365.211-.593.044-.114.08-.237.134-.359l.165-.379.174-.4.204-.392.201-.39c.071-.124.154-.243.22-.361.144-.236.276-.462.415-.641l.334-.474c.096-.119.154-.204.19-.242.023 0-.04.078-.237.362-.096.145-.225.337-.402.59-.08.13-.17.279-.269.445l-.154.26c-.057.091-.103.194-.154.299l.154-.242.167-.228.331-.462c.154-.219.308-.419.436-.607s.274-.342.393-.496l.178-.217.18-.188a9.33 9.33 0 01.342-.328c.308-.263.36-.283.308-.222-.05.062-.218.21-.308.325-.089.116-.144.17 0 .026.039-.035.085-.086.154-.144l.24-.216c.105-.086.221-.196.369-.308l.52-.385c.675-.46 1.388-.86 2.13-1.198l.757-.318.631-.23c.194-.078.389-.127.581-.19.193-.063.391-.127.616-.179.225-.052.462-.118.738-.175.276-.057.59-.12.955-.176-.646.088-1.286.214-1.918.377.925-.246-.72.116.848-.272.462-.059 1.449-.251 2.644-.36a47.711 47.711 0 013.788-.19c-.629.037.924.05.163.077 1.221-.01 2.353.012 2.879.01-1.233-.055-1.54-.06-1.387-.067.154-.008.787 0 1.453.023 1.33.042 2.8.112.886-.017 1.92.099 3.066.203 4.029.291l2.937.291c-.154 0-4.433-.326-1.023-.026 3.93.268-.696-.142 2.363.045l-2.464-.227c-.308-.1 4.279.34 4.918.37 1.525.14-2.129-.154-.643.019 2.279.197 3.432.229 4.89.338-1.425-.037-.518 0-2.139-.061 2.682.175 2.619.168 2.386.178-.232.011-.616.014 1.437.124 1.306.037.476-.023 2.583.03-.616-.03-.882-.061-1.423-.084-.54-.023-1.35-.057-3.047-.154.595 0 1.71.058 2.976.106 1.266.048 2.685.07 3.875.028-.953.014-1.102 0-1.27 0-.168 0-.36 0-1.386-.008a3.33 3.33 0 01-.39-.075c.087-.019.176-.026.265-.022.188-.008.493-.015.96-.025-1.103 0-1.895 0-2.805-.02-.91-.02-1.94-.055-3.517-.163-.431-.06.536-.008 1.617.038.541.017 1.11.044 1.54.045.25.016.502.01.75-.017.788 0 2.136.042 3.508.034a81.627 81.627 0 003.64-.086 50.954 50.954 0 004.833-.605 31.56 31.56 0 004.205-1.04 26.827 26.827 0 004.87-1.932l.37-.186.365-.205.74-.417c.48-.308.979-.595 1.444-.924a27.263 27.263 0 002.626-2.044c.062-.053.168-.154.308-.27.14-.115.287-.286.448-.462.329-.372.625-.771.884-1.194.116-.195.21-.372.284-.506.074-.134.11-.234.128-.267.018-.032 0 0-.043.116a6.207 6.207 0 01-.296.603l.126-.243.103-.197.107-.24c.165-.378.3-.768.403-1.168.199-.8.205-1.462.154-1a7.105 7.105 0 01-.332 1.495c.027-.111.05-.224.075-.335.025-.11.05-.221.065-.334.125-.51.194-1.032.204-1.557.013-.267 0-.533-.013-.801a6.93 6.93 0 00-.09-.798 32.414 32.414 0 00-.145-.785 7.24 7.24 0 00-.195-.761c-.137-.5-.308-.975-.48-1.433-.102-.308.257.54.492 1.34.236.8.36 1.54.264.887-.19-.75-.43-1.486-.721-2.202a21.93 21.93 0 00-1.568-3.054c-1.263-2.084-2.871-4.005-3.655-4.93l-1.05-1.207c-.216-.259-.355-.425-.588-.671a59.649 59.649 0 00-1.936-1.915c-.217-.234-.234-.276-.588-.64-.977-.923-1.682-1.502-2.32-2.035-1.344-1.16-1.663-1.425-1.448-1.282.216.143.948.718 1.655 1.296.503.44 1.002.887 1.497 1.34 1.112.958 2.601 2.444 1.754 1.54-.74-.704-.735-.658-1.006-.897-.28-.277-.566-.546-.851-.82-.452-.387-1.297-1.119-2.015-1.704-.718-.585-1.298-1.032-1.175-.906-1.848-1.54-4.102-3.15-5.845-4.383 1.189.856-.349-.19-.011.084.7.489 1.398.983 2.087 1.49a114.461 114.461 0 00-2.896-2.003c-1.03-.69-2.058-1.34-2.871-1.863.214.106.286.135-.534-.404.577.38-.191-.086-.794-.437-.602-.351-1.032-.592.237.201a71.69 71.69 0 013.013 1.893c.752.563-1.126-.674-2.213-1.307a117.256 117.256 0 00-2.74-1.627c-1.07-.613-2.21-1.24-3.151-1.739l-1.448-.805a34.672 34.672 0 00-2.117-1.063c1.297.67.67.379-.372-.1-1.043-.48-2.517-1.112-2.875-1.238-2.01-.905-3.319-1.344-4.965-1.99a59.29 59.29 0 012.43.902c.995.391 1.976.803 2.381.955.065 0-.097-.092.111-.026.208.066.789.288 2.31.992-.908-.435-1.504-.701-1.908-.877a15.927 15.927 0 00-.77-.32c-.308-.112-.35-.122-1.209-.47.426.174.85.351 1.272.533-.582-.232.493.262-.631-.22A93.179 93.179 0 0029.69 2.92a55.833 55.833 0 00-3.609-1.21c.678.223-.733-.154-1.468-.33l-1.28-.331c-.164-.046-.12-.05-.04-.043.154.01.462.049-.451-.18-.531-.088-1.312-.233-1.878-.309-.565-.075-.911-.118-.56-.06-.607-.083-.753-.1-.855-.117-.102-.017-.148-.029-.588-.084-.396-.02-.824-.04-1.365-.057a26.423 26.423 0 00-2.049.01c.153-.026.307-.04.462-.041.142 0 .33-.019.584-.016h.434l.55.022c-.913-.05-1.54-.042-1.84-.057-.3-.015-.27-.036.13-.063.996-.019 1.994.023 2.986.123.339.018.334.012.14-.01a21.228 21.228 0 00-1.01-.08c-.85-.061-1.863-.056-1.806-.072A25.937 25.937 0 0119.33.17a17.82 17.82 0 00-2.214-.166 20.691 20.691 0 00-2.735.128c-1.202.138-1.576.245-1.664.24-.087-.005.119-.055.097-.062a9.11 9.11 0 00-.96.265c-.153.053-.153.06-.06.037.189-.05.77-.198 1.387-.308.479-.08.962-.136 1.446-.166.114 0 .13 0 0 .017s-.408.054-.878.128a13.967 13.967 0 00-3.273.965 8.966 8.966 0 00-1.873 1.139 7.976 7.976 0 00-1.455 1.51c.17-.221.308-.369.403-.475.054-.059.111-.113.173-.162-.091.132-.19.26-.294.38a8.34 8.34 0 00-.77 1.159 9.16 9.16 0 00-.721 1.728c.032-.102.06-.2.092-.29l.097-.255c.06-.154.116-.308.174-.42l.154-.32c.046-.09.091-.168.128-.235a4.4 4.4 0 01.308-.498l.143-.215.255-.353c.398-.53.86-1.01 1.373-1.43l.088-.016a7.872 7.872 0 00-1.825 2.011 8.625 8.625 0 00-.645 1.232c-.08.214-.17.424-.238.635-.067.21-.141.417-.187.627.02-.173.06-.344.118-.508a11.95 11.95 0 00-.485 2.496l-.03.318c0 .106-.009.21-.015.317-.009.21-.023.422-.017.638-.005.431.055.861.179 1.275a2.108 2.108 0 01-.083-.253 1.925 1.925 0 01-.065-.258c.05.42.206.821.453 1.165a1.582 1.582 0 001.169.577c.43.016.858-.045 1.266-.18a8.295 8.295 0 001.141-.452c.667-.326 1.31-.697 1.927-1.109a27.4 27.4 0 001.411-.993c-.599.445-1.186.838-1.458 1-.273.16-.22.116.43-.33.748-.524 2.054-1.54 3.143-2.451.308-.216 1.476-1.2 2.232-1.871.756-.672 1.13-.994-.11.166 1.616-1.479 2.097-1.973 2.574-2.438.478-.465.924-.924 2.386-2.422a100.37 100.37 0 01-1.973 1.989c-.28.217 1.337-1.454-.602.396 1.009-.99 1.255-1.274 1.503-1.54.123-.14.246-.276.462-.503L22.437.951l.527-.034.596-.046c.627-.018.728 0 .488.016l-1.579.121c-.202.217-.393.42-.605.642l-.655.674c.44-.44.848-.846 1.273-1.29l1.712-.098c.338 0 .11.018-.308.046l-.705.046-.683.054c-.175.193-.298.325-.275.308l.282-.294c.326-.02.496-.03.56-.039.065-.007.047-.007.039-.01s0 0 .126-.017c.127-.017.371-.028.84-.048a19.874 19.874 0 011.922-.038c.43.015.716.032.99.055s.544.055.954.114c.206.028.446.07.736.13.35.071.686.194 1 .364a2.958 2.958 0 00-.567-.25 5.717 5.717 0 00-.56-.153c-.153-.036-.255-.054-.264-.06.1.005.2.019.297.043.56.117 1.015.286 1.31.542a.963.963 0 01.336.85c-.027.203-.086.401-.172.587-.07.154-.134.263-.194.368a6.695 6.695 0 01-.445.653c-.353.44-.733.858-1.137 1.251-.702.638-.924.785-1.243 1.041-.319.256-.742.61-1.9 1.576.429-.362.855-.727 1.28-1.095L23.53 9.34c-2.407 2.03-4.597 3.897-6.735 5.853s-4.237 4.005-6.41 6.412c.513-.575 1.04-1.14 1.581-1.694.282-.274-.054.074-.446.496-.2.21-.409.44-.569.616a2.957 2.957 0 00-.254.296c-.336.348-.667.7-.993 1.058-.114.163.43-.444.951-.992.521-.549 1.01-1.046.728-.718-.14.139-.463.482-.647.687.308-.326.616-.647.924-.966-2.101 2.18-3.577 4.073-4.983 5.86.875-1.185 1.377-1.8 1.65-2.155.142-.172.273-.353.39-.543.115-.183.242-.357.381-.522.276-.337.77-.935 1.748-2.002-1.033 1.132-1.122 1.232-1 1.067.124-.165.483-.588.37-.477-.546.596-.666.753-.81.924-.143.171-.308.362-.888 1.052 0-.014.154-.211.374-.479s.499-.604.748-.893c.498-.581.855-.99.264-.353-.1.176-1.172 1.386-1.642 2.016-.856 1.032 0-.046-.387.402-.462.584-.717.943-1.124 1.473l.283-.424a30.894 30.894 0 00-1.09 1.463c-.199.288-.285.42-.378.569l-.417.659c-.222.348-.57.88-1.112 1.797-.023.127.607-1.016 1.607-2.481.292-.345-.483.786-1.205 2.027-.722 1.241-1.386 2.594-1.257 2.464-.448.895-.616 1.296-.68 1.422-.062.126 0-.01.061-.168.06-.157.134-.333.099-.274-.036.058-.184.346-.521 1.13-.191.432-.231.501-.179.347.026-.075.076-.208.139-.377.063-.17.154-.375.245-.6.377-.899.973-2.077 1.167-2.464a32.542 32.542 0 00-1.563 3.185c.248-.7.535-1.385.86-2.053.332-.71.671-1.326.793-1.634-.644 1.16-.89 1.694-1.136 2.226-.246.531-.486 1.078-.948 2.347.18-.495.386-.98.616-1.454.034-.055-.082.216-.208.547a19.59 19.59 0 00-.316.875c-.05.16-.01.094.228-.48-.186.463-.308.783-.397 1.036-.09.252-.154.442-.234.659a21.91 21.91 0 00-.654 2.407l.175-.814c.015-.068.025-.137.03-.207a2.25 2.25 0 01.067-.308c.049-.202.14-.539.326-1.124a22.245 22.245 0 00-.577 2.102c-.116.504-.18.861-.242 1.217l-.088.553c-.03.197-.056.416-.091.673-.057.513-.13 1.184-.154 2.173 0 1.225.254-3.972.099.758v.676a.155.155 0 010 .043 1.166 1.166 0 01-.011-.135c0-.086-.011-.211-.013-.362.011.846.053 1.232.062 1.35.01.12.014 0 .017-.166 0-.332 0-.818.082.238.015.302.053.604.112.9a.8.8 0 00.38.506.514.514 0 01-.19-.117.77.77 0 00.583.182c.138-.01.274-.036.407-.076.123-.039.244-.087.36-.143.133-.077.194-.082.832-.433a8.38 8.38 0 01-.591.291c.275-.137.021-.044.054-.083.112-.078.23-.147.354-.208.25-.143.668-.384 1.323-.824.955-.65 1.27-.895 1.37-.95.1-.056-.029.047 0 .038 1.435-1.09 2.522-1.954 3.5-2.715-.105.07 0-.025.424-.37 2.373-1.948 1.4-1.078 2.292-1.793 1.708-1.37 1.59-1.3 1.512-1.277-.077.023-.106 0 1.804-1.521-1.487 1.17-2.957 2.36-4.427 3.542.168-.17.237-.277-.711.495-.065.1-1.6 1.403-3.095 2.558-.228.154.77-.638 1.488-1.232.718-.595 1.19-.99-.068-.013.895-.705 2.114-1.712 3.212-2.601-.535.462.345-.247 1.129-.877s1.468-1.175.531-.386A183.476 183.476 0 0118 34.005a141.77 141.77 0 012.157-1.594 120.86 120.86 0 012.88-2.035l-2.13 1.551a398.855 398.855 0 00-3.577 2.679l-.209.126c-1.454 1.146-.88.71 0 .045.88-.666 2.07-1.54 1.814-1.319a76.985 76.985 0 016.144-4.27 55.122 55.122 0 017.292-3.874c-.924.364.099-.088.308-.202-1.041.437-1.457.648-1.813.811-.356.164-.64.298-1.386.663.26-.18 1.476-.77 2.12-1.078.264-.138-.127.032-.67.288-.544.255-1.233.608-1.59.785.949-.502 1.386-.712 1.727-.878.34-.166.579-.288 1.16-.554 1.11-.428.97-.35 1.848-.637A27.432 27.432 0 0137 23.639a21.121 21.121 0 011.82-.355 15.05 15.05 0 011.661-.163 13.39 13.39 0 012.503.122 8.085 8.085 0 00-.88-.093c.07.017.141.026.213.028.128.019.248.037.174.03-.074-.005-.342-.04-.998-.065.485.014.968.056 1.448.125a14.853 14.853 0 00-3.15-.045 16.83 16.83 0 00-1.645.222c-.535.1-1.052.212-1.531.335-.775.202-1.54.442-2.29.721-.527.2-.78.319-.624.284a26.22 26.22 0 014.012-1.196 18.032 18.032 0 012.157-.308 13.977 13.977 0 012.535.013h-.154c.668.063.996.128 1.127.144.131.017.063 0-.068-.021l-.448-.082c-.121-.02-.172-.029-.014-.015.629.078 1.248.213 1.852.405.13.037.252.077.371.122.119.044.233.081.343.124.216.093.426.168.617.265.19.097.382.179.562.28l.274.144.271.154c.368.21.74.45 1.172.742a11.63 11.63 0 00-2.683-1.505c.274.099.462.185.595.24.132.056.2.085.223.098a1.27 1.27 0 00-.254-.127l-.29-.133-.274-.116c-.154-.068-.23-.106-.092-.07a11.514 11.514 0 013.148 1.772 14.86 14.86 0 012.948 3.164c.44.63.845 1.282 1.215 1.954.368.681.71 1.386 1.023 2.089a38.317 38.317 0 011.54 4.255c-.114-.401-.205-.731-.295-1.032-.091-.3-.178-.57-.275-.856-.198-.568-.41-1.201-.842-2.212.114.222.22.44.308.626l.2.439c.091.19.086.141-.074-.375a30.07 30.07 0 00-1.103-2.453l.048-.07c.339.658.642 1.325.884 1.93.306.668.573 1.352.8 2.05.318.943.585 1.875.633 1.955-.108-.363-.22-.727-.335-1.089a21.625 21.625 0 00-.366-1.078c-.173-.535-.025-.171.215.522.24.693.546 1.719.763 2.49a31.205 31.205 0 00-1.015-3.308c-.12-.345-.267-.696-.407-1.058-.14-.362-.299-.728-.471-1.095a25.49 25.49 0 00-1.112-2.195c.023.055-.063-.08-.182-.27l-.391-.59c-.113-.154-.179-.24-.103-.113l.218.365c.056.094.124.203.2.334.078.13.155.283.26.462-.025-.01-.267-.43-.617-.967a21.553 21.553 0 00-1.2-1.676c.104.128.065.066-.023-.062l-.336-.448c-.096-.136-.153-.21-.056-.116.284.303.551.622.8.954-.221-.282-.398-.508-.557-.685-.159-.178-.274-.32-.38-.432-.205-.223-.32-.35-.447-.476-.128-.126-.256-.268-.513-.5l-.216-.197-.277-.236a6.238 6.238 0 00-.353-.282c-.134-.098-.274-.216-.442-.326-.7-.518-1.46-.95-2.26-1.291a12.953 12.953 0 00-1.837-.624l-.333-.086-.243-.056c-.126-.03-.179-.047-.13-.046a3.631 3.631 0 00-.483-.052l-.345-.016c-.162 0-.408-.029-.847-.047a17.112 17.112 0 00-1.989.029c.113 0 .275-.01.462-.011.188-.002.416 0 .652 0 .236 0 .48.017.716.025.237.007.462.035.663.058.2.023.368.046.49.066.066.01.133.024.198.042-.07 0-.138-.006-.206-.019-.154-.01-.387-.038-.73-.058.599.038 1.194.114 1.783.23.63.154.893.249.995.28.102.03.04.023 0 .018-.04-.004-.052-.009.142.064.465.16.92.345 1.365.556a11.688 11.688 0 00-1.802-.666c-.655-.183-1.257-.296-1.476-.339.417.122-.812-.117-2.175-.092a15.854 15.854 0 00-2.603.243c-.098.017-.195.04-.29.073-.716.101-1.668.272-3.388.839.228-.098-.732.182.597-.262.557-.166 1.04-.295 1.54-.414a17.73 17.73 0 011.666-.308c-.36 0-1.53.186-2.927.602a34.719 34.719 0 00-4.379 1.668c.384-.168.495-.21-.25.154a49.245 49.245 0 00-3.08 1.557c-.945.521-1.572.881-1.089.569a87.636 87.636 0 00-7.596 5.092c-.046 0 1.044-.78 1.497-1.106a125.6 125.6 0 00-4.09 3.044c-.479.352-.141.081.366-.32.506-.4 1.189-.924 1.386-1.088-.98.734-1.95 1.484-2.913 2.24l.387-.34-2.358 1.876c-1.012.81-2.037 1.628-2.448 1.937-1.554 1.272-2.298 1.914-3.19 2.655-.446.37-.924.77-1.57 1.27-.648.498-1.442 1.117-2.55 1.847.068-.072.689-.499 1.402-1.033a51.788 51.788 0 002.002-1.57c-.419.322-1.255.986-2.055 1.582-.577.446-1.18.857-1.806 1.232-.789.513-1.387.817-1.796.945-.14.05-.287.075-.435.075-.075-.008-.083-.01-.115-.032a.045.045 0 01-.025-.022c-.007-.012-.017-.02-.026-.034a.866.866 0 01-.09-.237l-.016-.075-.016-.102a13.636 13.636 0 01-.121-1.055C.542 43.793.554 43.38.556 43.2c.002-.18.01-.129.015.016l.02.574c.007.193.024.344.025.308a32.692 32.692 0 01-.023-1.661c.006-.536.054-1.07.143-1.598.071-.748.154-1.332.164-1.454 0-.061-.017-.008-.057.2l-.079.44c-.03.184-.065.414-.103.693.108-.89.262-1.775.462-2.65.095-.415.195-.79.272-1.087.077-.297.145-.516.171-.616-.154.657-.026.2.191-.431.218-.632.532-1.436.598-1.51.236-.585.567-1.34.975-2.156.408-.817.895-1.708 1.414-2.571 1.032-1.731 2.207-3.352 2.908-4.313-.122.204-.248.404-.367.607a51.298 51.298 0 011.849-2.322c.74-.83.319-.329-.392.534a55.163 55.163 0 00-2.087 2.717 54.351 54.351 0 013.324-4.146 69.028 69.028 0 013.457-3.655c-.77.736-.328.278-.701.616.853-.915 2.113-2.092 3.062-2.978.245-.198.135-.08-.602.616a96.156 96.156 0 011.839-1.694c-.113.171.787-.653-1.023 1.035.566-.525 1.136-1.045 1.71-1.558 1.928-1.675-.065.101-.52.534a149.527 149.527 0 013.055-2.645c1.09-.955-.66.498 1.466-1.307 1.445-1.183 3.096-2.522 4.775-3.956.835-.72 1.677-1.461 2.475-2.27.41-.408.79-.843 1.138-1.303.186-.246.349-.51.486-.786.167-.328.253-.691.25-1.06.002.346-.078.687-.232.996a4.654 4.654 0 01-.443.733c-.315.423-.66.822-1.034 1.193.916-.953 1.197-1.478 1.334-1.783.031-.066.058-.134.08-.203a1.79 1.79 0 00.052-.178c.016-.064.037-.124.051-.21l.026-.14c0-.055.011-.115.017-.181a1.386 1.386 0 00-.482-1.2 2.724 2.724 0 00-1.033-.534 9.648 9.648 0 00-2.097-.331c-1.375-.082-2.684-.037-3.696 0C24.538.45 24.879.43 24.658.41c-.11 0-.359-.014-.715-.01-.177 0-.382 0-.616.013l-.356.012-.49.025-.263.015-.72.747c-.175.177-.332.331-.478.485l-.738.752c-.41.417-.671.687-.889.913-.434.452-.687.738-1.64 1.645.724-.744.114-.175-.65.52-.764.694-1.694 1.503-1.54 1.33a54.55 54.55 0 01-3.526 2.85c-.616.442-1.232.862-1.871 1.246-.62.38-1.28.696-1.966.94a3.226 3.226 0 01-.967.175 1.004 1.004 0 01-.693-.222c-.19-.2-.317-.453-.364-.726a4.491 4.491 0 01-.087-1.025c.037-1.496.278-3.008.893-4.355a3.396 3.396 0 00-.139.285c-.064.147-.13.325-.188.462-.098.296-.154.452 0-.05A7.402 7.402 0 017.806 4.28c.215-.273.454-.526.713-.758a8.344 8.344 0 012.837-1.796 13.157 13.157 0 011.93-.576 14.45 14.45 0 00-.72.164c-.178.047-.3.07-.373.094-.154.038-.125.021-.019-.025.347-.097.64-.17.897-.219.255-.047.462-.088.656-.115.194-.028.343-.046.485-.062.142-.015.27-.032.396-.038.254-.017.502-.04.86-.056.18-.012.386-.02.635-.026.25-.006.541-.01.888-.014.183.019.081.02-.17.025h-.471l-.593.018c-.829.03-1.694.154-1.562.164.317-.044.616-.065.913-.093.298-.028.573-.037.844-.04h.786a29.479 29.479 0 013.526.24c.21.045-.22-.012-.529-.052-.308-.04-.491-.057.219.045 2.1.278 4.175.709 6.212 1.289a64.59 64.59 0 015.338 1.759l.749.337c1.819.723 3.002 1.245 3.83 1.597.956.462.202.117-.728-.29 1.198.532 2.522 1.148 3.706 1.729a97.303 97.303 0 012.885 1.474c-.22-.092-1.319-.696-1.715-.875 1.46.756 3.104 1.633 4.598 2.488 1.494.854 2.84 1.675 3.735 2.273-.238-.154-.511-.308-.762-.473a105.848 105.848 0 015.853 3.936 84.097 84.097 0 015.785 4.554c.907.804 1.422 1.283 1.754 1.584.333.3.48.426.624.55.145.126.291.244.616.543.325.299.821.77 1.642 1.64-.014.025.256.333.684.81.428.475 1.004 1.13 1.599 1.847a36.84 36.84 0 011.71 2.225c.508.722.916 1.386 1.162 1.812-.096-.186-.207-.366-.308-.551a17.914 17.914 0 011.74 3.413c.394 1.017.636 2.086.72 3.173.04.449.04.9 0 1.348a6.678 6.678 0 01-.262 1.43 6.57 6.57 0 01-.594 1.405 7.856 7.856 0 01-.924 1.28 10.79 10.79 0 01-1.17 1.103c-.21.173-.41.356-.617.518l-.63.482c-.203.165-.417.308-.625.453l-.616.426-.606.382c-.197.125-.388.25-.582.356.203-.117.396-.25.59-.379-.154.096-.308.196-.453.282l-.445.251c-.291.165-.57.324-.853.462-.284.139-.55.28-.823.405l-.816.362c-1.18.492-2.386.918-3.614 1.276.039-.011.32-.1.452-.154.132-.054.123-.047-.42.108-3.39.942-6.946 1.349-10.507 1.463-3.561.114-7.15-.071-10.73-.33-3.579-.259-7.16-.608-10.75-.815a74.914 74.914 0 00-5.391-.137c-1.802.012-3.6.161-5.38.447-.86.148-1.711.347-2.548.594a16.23 16.23 0 00-2.484.982c-.81.412-1.576.905-2.286 1.472a12.122 12.122 0 00-1.913 1.989l-.41.562-.368.59c-.128.194-.231.402-.34.606l-.154.309-.082.154-.07.154-.283.639c-.094.212-.165.434-.248.651-.087.22-.162.443-.225.67l-.095.347-.048.174c-.012.058-.021.119-.032.177-.037.237-.088.473-.113.712l-.052.718.01.719c.003.12.012.238.027.357l.037.357c.12.946.344 1.876.667 2.773.33.894.729 1.761 1.19 2.595.118.208.242.41.362.616l.184.308.195.3c.131.198.26.398.395.595l.419.581c.137.196.285.382.432.57.148.188.293.376.446.56.308.36.616.735.94 1.079l.487.526.502.533c.333.345.692.663 1.039.992a34.784 34.784 0 004.566 3.5 33.8 33.8 0 005.094 2.704c1.767.76 3.6 1.356 5.474 1.784 1.876.42 3.79.643 5.713.662 1.91.021 3.816-.185 5.677-.616a23.103 23.103 0 005.293-1.97 25.13 25.13 0 004.608-3.099 28.888 28.888 0 003.794-3.89l.425-.518c.14-.174.268-.357.402-.534.262-.36.535-.709.785-1.079l.734-1.098.183-.272.17-.28c.112-.189.226-.375.338-.561.462-.737.863-1.504 1.276-2.254.104-.186.198-.379.292-.571l.282-.572c.094-.19.186-.382.28-.571.094-.19.188-.379.271-.573l.204-.505c.128-.322.316-.77.525-1.322.21-.551.42-1.186.66-1.859.238-.673.437-1.398.655-2.1.4-1.418.757-2.781.925-3.69.168-.909.25-1.337.072-.893z"/>
  <path fill="#EEE1C3" d="M20.566 2.963l.639-.64-.64.64zM33.66 4.435c-.35-.146-.706-.285-1.06-.426l1.06.426zM47.742 52.045c.437.023-1.824.13.118.118a45.442 45.442 0 003.435-.224c.698-.071 1.064-.14 1.436-.193l1.466-.246.605-.108.362-.062.402-.081c.284-.06.6-.114.95-.196s.74-.163 1.165-.273c-1.16.273-2.329.504-3.506.669.048 0-.067.041-.308.087-.24.047-.616.105-1.087.178-.935.123-2.238.263-3.604.332l-.835-.007.722-.045.76-.06c-1.03.059-.835.075-2.081.11z"/>
  <path fill="#EEE1C3" d="M50.075 51.919l-.166.007h-.09l.256-.007z"/>
  <path fill="#F9E6D0" d="M34.84 41.92c-.8-2.2-.88-4.24-.88-7.72v-7.44c1.16-1.24 2.68-2 4.4-2 2.68 0 3.68 2 3.68 4.28v5.2c0 3.36-.2 5.48-.88 7.68V42h5.8v-.08c-.84-2.24-.92-4.08-.92-7.72v-6.08c0-3.56-1.96-5.8-5.64-5.8-2.84 0-4.72 1.6-6.44 3.68l-.16-.04v-3.84l-5.64 2.12v.08c.96 1.08 1.8 2.52 1.8 5.2v4.72c0 3.56-.16 5.44-.92 7.68V42h5.8v-.08zm27.917.56l5.6-1.28v-.08c-1.28-.96-1.8-1.68-1.8-5.92V22.92h-5.76V23c1.12.92 1.76 2.24 1.76 4.28v9.6c-.76 1.44-1.96 2.52-3.88 2.52-2.24 0-3.52-1.4-3.52-4.24V22.92h-5.68V23c1 .92 1.68 2.24 1.68 4.28v8.52c0 4.16 1.76 6.8 5.16 6.8 3.28 0 5.04-2.48 6.44-5.08v4.96zm21.653-.56c-.8-2.2-.88-4.24-.88-7.72v-7.28c1.08-1.6 2.68-2.16 4-2.16 2.36 0 2.96 1.72 2.96 3.8v5.68c0 3.36-.12 5.48-.88 7.68V42h5.8v-.08c-.84-2.24-.92-4.08-.92-7.72v-7.28a4.844 4.844 0 014.04-2.16c2.32 0 2.96 1.72 2.96 3.8v5.68c0 3.36-.2 5.48-.88 7.68V42h5.76v-.08c-.84-2.2-.88-4.12-.88-7.72v-6.56c0-3.32-1.48-5.32-4.84-5.32-2.56 0-4.52 1.28-6.16 3.68l-.12-.04c-.32-2.2-1.8-3.64-4.72-3.64-2.44 0-4.48 1.24-6.12 3.68l-.16-.04v-3.84l-5.64 2.12v.08c.96 1.08 1.8 2.52 1.8 5.2v4.72c0 3.56-.16 5.44-.92 7.68V42h5.8v-.08zm41.481-5.4c-1.4 1.72-3.2 2.68-5.64 2.68-4.2 0-7-2.68-7-8.32v-.76h12.84c.2-3.52-2.96-7.8-7.64-7.8-4.4 0-9.24 4.08-9.24 10.48 0 5.6 3.68 9.8 9 9.8 4.16 0 6.84-2.6 7.92-5.92l-.24-.16zm-7.6-13.48c2.52 0 3.72 1.8 3.72 5.8v.44l-8.68.2c.32-3.64 1.92-6.44 4.96-6.44z"/>
</svg>
