<svg height="50" xmlns="http://www.w3.org/2000/svg" fill="none" viewBox="0 0 164 50">
  <path fill="#fff" d="M36.542 49v-9.499H11.027V28.893h24.336v-9.36H11.027V9.896h25.515V.397H.696V49h35.846zm18.542.763c3.467 0 6.31-.971 8.597-2.982V49h9.776V27.784c0-4.23-1.386-7.488-4.229-9.915-2.843-2.426-6.379-3.674-10.677-3.674-5.755 0-10.47 2.218-14.214 6.725l6.24 5.963c1.734-2.635 4.16-3.952 7.28-3.952 3.536 0 5.686 2.288 5.686 5.546v.555c-2.219-.624-4.507-.97-6.795-.97-3.813 0-7.003.97-9.568 2.842-2.565 1.872-3.883 4.576-3.883 8.112 0 6.31 4.576 10.747 11.787 10.747zm-1.872-11.371c0-2.15 2.08-3.536 5.755-3.536 1.317 0 2.842.208 4.576.624v3.883c-1.872 1.386-3.883 2.08-6.102 2.08-2.496 0-4.229-1.318-4.229-3.051zm43.082-1.248c2.01.485 3.05 1.248 3.05 2.15 0 1.317-1.802 2.218-3.813 2.218-3.397 0-6.656-1.525-9.707-4.507l-6.032 6.171c2.843 3.605 8.598 6.587 14.907 6.587 8.667 0 14.213-4.507 14.213-10.955 0-5.755-3.744-9.499-11.162-11.232l-5.062-1.179c-1.594-.346-2.426-.97-2.426-1.802 0-1.11 1.248-2.011 3.189-2.011 2.704 0 5.339 1.11 8.043 3.328l6.032-6.379c-3.952-3.536-8.528-5.338-13.66-5.338-3.674 0-6.794.97-9.36 2.981-2.564 1.941-3.812 4.507-3.812 7.765 0 5.547 3.674 9.222 11.093 11.094l4.507 1.109zm50.087-5.547c0-4.645-1.456-8.736-4.298-12.202-2.843-3.467-6.864-5.2-12.064-5.2-4.923 0-8.944 1.733-12.064 5.13-3.12 3.398-4.646 7.696-4.646 12.896 0 5.27 1.664 9.499 5.062 12.758 3.397 3.189 7.626 4.784 12.826 4.784 6.032 0 10.886-2.288 14.56-6.864l-6.517-6.102c-2.08 2.635-4.853 3.952-8.32 3.952-4.229 0-7.072-2.565-7.627-6.24h23.019l.069-2.912zm-16.154-8.736c3.258 0 5.546 2.219 5.754 5.062h-12.202c.624-2.982 2.912-5.062 6.448-5.062zM163.013 49V.397h-9.846V49h9.846z"/>
</svg>
