<svg xmlns="http://www.w3.org/2000/svg" fill="none" viewBox="0 0 270 314">
  <path fill="#000" d="M45.39 107.712c.578-1.882-.04.477-.497 2.342-.456 1.864-.774 3.217.33-.754l2.05-7.855c-.139.661.139-.11.497-1.151.358-1.042.86-2.331 1.045-2.751.41-1.577-.468.869-1.109 2.572-.13.49-.324.96-.577 1.399.195-1.136.482-2.255.86-3.344.289-1.076 1-3.338 1.78-5.755.779-2.417 1.801-4.972 2.43-6.698-1.42 3.85-1.443 3.787-.981 2.37l.947-2.819c.18-.535.364-1.07.532-1.571.167-.5.363-.955.508-1.34.485-1.152 1.045-2.504 1.623-3.897l.866-2.106c.295-.697.624-1.381.924-2.055l1.676-3.654c.485-1.053.895-1.905 1.195-2.405.318-.703 1.999-4.236 3.264-6.595l.179-.196c2.859-5.3-1.04 1.761-.358.38a160.929 160.929 0 019.541-15.584c-.981 1.479-1.958 2.877-2.824 4.253l-2.409 4.028c-.79 1.272-1.455 2.544-2.102 3.764-.647 1.22-1.27 2.382-1.871 3.499 3.176-5.64 2.974-5.093 1.819-2.82-.578 1.15-1.41 2.687-2.108 4.16a113.517 113.517 0 00-1.594 3.5c4.62-9.295 6.544-12.782 11.176-19.878a27.153 27.153 0 012.518-3.337c.26-.265 0 .172-.496.926l-.416.622c-.145.23-.295.471-.45.73-.318.501-.653 1.042-.983 1.572a155.602 155.602 0 01-1.663 2.583l1.94-2.952c.653-.984 1.277-1.98 1.982-2.906l2.021-2.78.977-1.352 1.01-1.266 1.93-2.417.9-1.15.913-1.025 3.056-3.453c-2.27 2.664-3.2 3.77-4.044 4.84-.843 1.07-1.565 2.123-3.465 4.603 1.23-1.42 2.2-2.566 2.998-3.533.41-.478.75-.926 1.097-1.312l.953-1.07c1.155-1.318 1.958-2.343 3.188-3.649-1.45 1.514-3.587 3.936-4.153 4.454a169.124 169.124 0 003.345-3.711c.78-.898 1.34-1.456 1.761-1.963l1.184-1.416.728-.834c.33-.374.682-.73 1.052-1.065l2.079-1.766c.745-.633 1.507-1.324 2.362-1.945 1.681-1.26 3.356-2.636 4.996-3.672 1.641-1.036 3.004-2.043 4.044-2.584 1.039-.54 1.571-.863 1.42-.702l-.202-.167c.826-.506 1.491-.932 2.051-1.249l1.34-.707c.335-.187.682-.35 1.039-.49.191-.046-.335.305.214.064 1.236-.748 1.023-.777 1.958-1.336.48-.27 1.248-.667 2.634-1.346.699-.334 1.542-.765 2.622-1.151 1.08-.386 2.345-.973 3.888-1.52-.451.248 0 .15.976-.132l1.733-.535c.664-.207 1.386-.472 2.148-.65 1.508-.38 3.056-.823 4.228-1.065 1.173-.241 1.958-.328 1.889-.218l2.097-.45c.652-.132 1.282-.212 1.883-.316 1.201-.19 2.31-.414 3.413-.575l3.466-.386c.618-.075 1.276-.092 1.969-.126l2.23-.087c3.517.029 1.109.156-2.628.42-.936.035-1.952.19-2.975.288-1.022.098-2.073.196-3.05.357-1.946.322-3.679.535-4.62.725-8.595 1.76 1.103-.391-2.345.316-.682.156-1.375.277-2.051.467l-2.021.575-2.022.576c-.67.207-1.328.443-1.993.667l1.849-.575 2.125-.524 2.189-.576c.728-.166 1.45-.276 2.12-.408 1.346-.236 2.507-.49 3.281-.576.774-.086 1.155-.097.866 0 8.422-1.317-6.815.835 2.42-.621.93-.15 1.877-.167 2.813-.26a57.765 57.765 0 012.813-.2c4.667-.23 4.176-.282 4.043-.34-.133-.058.087-.207 6.198-.029-1.022-.046-1.577-.052-1.779-.034-.202.017-.035 0 .393.034l4.851.31c4.234.375 9.34 1.29 8.953 1.348 1.223.11 2.437.302 3.633.575l.809.15.861.207 1.859.443c.642.161 1.312.305 1.987.495l2.057.575c5.527 1.589 11.13 3.781 12.337 4.201l-1.49-.644-1.513-.576c-1.011-.391-2.022-.8-3.039-1.15.445.195.873.425 1.312.638l-1.231-.46-1.224-.403-2.392-.783c-1.582-.506-3.159-.909-4.724-1.364-1.566-.454-3.177-.77-4.812-1.15-1.657-.317-3.35-.703-5.146-1.013 5.655.943-1.883-.674 4.696.518 6.151 1.317 6.931 1.726 6.417 1.622-.26-.04-.838-.167-1.248-.253-.41-.086-.658-.11-.225 0 1.606.438 3.223.852 4.823 1.312 1.6.46 3.194.973 4.765 1.531-1.045-.437-2.125-.777-3.188-1.151-1.063-.374-2.137-.765-3.223-1.088a119.61 119.61 0 0126.777 11.596c1.693 1.053 2.94 1.807 3.824 2.389l1.733 1.18c.606.425.271.235-.179-.035-.913-.524-2.265-1.404 2.42 1.824 2.096 1.433 2.928 1.934 3.91 2.664.982.731 2.235 1.572 5.014 3.873-.74-.629-1.45-1.218-2.132-1.766-.687-.576-1.369-1.03-2.004-1.502l-1.842-1.347-1.733-1.197c-.682-.547-.358-.357.508.219.427.293 1.005.667 1.635 1.15l2.015 1.468c2.888 2.14 5.875 4.684 5.649 4.38 2.195 2.008 1.733 1.691-.115.224 4.36 3.66 8.416 7.665 12.129 11.976 1.646 1.887 2.998 3.7 4.147 5.242 1.15 1.542 1.999 2.878 2.548 3.862l1.536 2.106 1.438 2.17.474.8.398.753.676 1.3.578 1.071.381.835c.215.425.408.861.578 1.306-.035-.035-.249-.472-.578-1.116-.167-.323-.335-.703-.578-1.1l-.687-1.254c-.912-1.727-2.056-3.453-2.31-3.879-.145-.201-.081-.063.283.576l.797 1.392c.352.605.733 1.399 1.236 2.354a58.199 58.199 0 013.904 9.282l.347 1.048.266 1.013.496 1.853c.237 1.15.439 2.146.578 2.877-.185-.996-.347-1.997-.578-2.992a74.803 74.803 0 00-.762-2.958l.791 2.653c.107.334.193.674.26 1.018l.226 1.007.248 1.151c.098.42.127.892.202 1.433.075.541.15 1.151.22 1.859l.075 2.457a19.438 19.438 0 01-.439 3.965c-.075.368-.151.766-.266 1.468-.08.432-.182.86-.306 1.283-.145.524-.272 1.15-.514 1.922-.728 1.916-1.271 3.453-1.837 4.552-.566 1.1-.884 1.945-1.207 2.452-.578 1.03-.653 1.035-.445.523.104-.259.277-.65.485-1.099.208-.449.393-1.013.578-1.554l.577-1.582c.191-.49.295-.944.387-1.255l-.363.956-.359.782-.543 1.151a6.598 6.598 0 01-.479.904 7.89 7.89 0 01.578-1.64l.525-1.347.301-.944c.057-.172.046-.167-.052.115-.099.282-.283.846-.693 1.727.15-.323.311-.64.456-.967l.393-.996a48.914 48.914 0 01-5.332 10.894 33.406 33.406 0 003.05-4.719c.253-.44.47-.9.647-1.375.052-.276-.219.259.82-1.767l.699-1.56c.231-.523.404-1.07.612-1.6a28.541 28.541 0 001.086-3.205c-.058.254-.144.708-.329 1.312-.185.605-.485 1.364-.791 2.216-.162.426-.301.886-.503 1.34l-.618 1.416-.653 1.497-.762 1.461-.757 1.456c-.265.467-.577.91-.82 1.353-.543.88-1.039 1.726-1.559 2.394l-1.254 1.772c-.358.443-.577.76-.71.904-.087 0 .15-.294.889-1.353.358-.541.844-1.26 1.508-2.204.3-.489.635-1.041 1.005-1.663l.578-.972c.213-.34.387-.725.577-1.117l-.577.904-.624.851-1.242 1.727c-.578.817-1.155 1.565-1.635 2.267-.479.702-1.028 1.278-1.473 1.853l-.67.812-.675.702c-.445.443-.867.851-1.283 1.225-1.155.985-1.345 1.059-1.155.829.191-.23.82-.783 1.155-1.214.335-.432.543-.633 0-.098-.144.132-.317.322-.577.541l-.901.806c-.393.322-.826.731-1.381 1.151l-1.952 1.438a53.961 53.961 0 01-7.988 4.478l-2.836 1.185-2.368.863c-.728.288-1.456.472-2.178.708a26.74 26.74 0 01-2.31.668c-.844.195-1.733.443-2.767.656a66.378 66.378 0 01-3.581.656 62.955 62.955 0 007.191-1.41c-3.466.921 2.703-.432-3.177 1.018-1.733.219-5.435.938-9.917 1.341s-9.681.685-14.203.714c2.356-.138-3.466-.19-.612-.288-4.581.04-8.826-.046-10.796-.04 4.621.207 5.776.224 5.199.253-.578.029-2.952 0-5.447-.086-4.991-.156-10.501-.42-3.321.063-7.203-.368-11.5-.76-15.11-1.088l-11.015-1.087c.578 0 16.623 1.22 3.835.098-14.734-1.002 2.611.529-8.86-.167l9.241.846c1.156.374-16.045-1.272-18.442-1.382-5.718-.523 7.982.576 2.408-.069-8.542-.736-12.868-.857-18.332-1.266 5.342.138 1.94 0 8.017.231-10.056-.657-9.82-.628-8.947-.668.872-.04 2.31-.052-5.389-.46-4.898-.139-1.785.086-9.687-.116 2.311.116 3.31.231 5.337.317 2.028.086 5.066.213 11.425.575-2.229 0-6.411-.218-11.159-.397-4.748-.178-10.067-.264-14.532-.103 3.575-.052 4.135 0 4.765 0 .63 0 1.346 0 5.198.029.492.065.98.159 1.462.282a4 4 0 01-.994.08c-.705.029-1.848.058-3.604.092 4.141 0 7.11 0 10.524.075 3.413.075 7.272.207 13.186.61 1.617.224-2.01.029-6.065-.144-2.027-.063-4.158-.161-5.776-.167a16.207 16.207 0 00-2.812.064c-2.952 0-8.006-.156-13.152-.127-5.147.029-10.397.138-13.649.322-5.747.461-12.13 1.186-18.125 2.262a118.648 118.648 0 00-15.768 3.884 100.779 100.779 0 00-18.264 7.217l-1.386.696-1.369.766-2.772 1.559c-1.803 1.151-3.674 2.221-5.418 3.453a102.303 102.303 0 00-9.848 7.636c-.231.196-.63.576-1.156 1.008-.525.431-1.074 1.07-1.68 1.726a32.077 32.077 0 00-3.316 4.46c-.433.731-.785 1.393-1.063 1.893-.277.501-.41.875-.479.996-.07.121 0 0 .162-.432.328-.771.698-1.524 1.109-2.256l-.474.91-.387.736c-.121.276-.254.576-.398.898a28.487 28.487 0 00-1.514 4.362c-.745 2.993-.768 5.461-.577 3.735a26.43 26.43 0 011.247-5.582c-.104.414-.19.834-.283 1.249-.092.414-.185.828-.242 1.248a26.385 26.385 0 00-.769 5.818c-.046.996 0 1.992.052 2.993s.168 1.997.335 2.981c.168.984.353 1.962.543 2.935.191.972.445 1.916.734 2.843.514 1.87 1.155 3.642 1.796 5.352.387 1.151-.959-2.02-1.842-5.007-.884-2.987-1.346-5.755-.988-3.315a62.086 62.086 0 002.703 8.229 81.806 81.806 0 005.88 11.412c4.736 7.786 10.767 14.963 13.707 18.415l3.939 4.512c.808.967 1.328 1.588 2.2 2.509a223.848 223.848 0 007.26 7.153c.815.875.879 1.03 2.207 2.389 3.662 3.452 6.308 5.616 8.699 7.607 5.042 4.334 6.238 5.324 5.43 4.788-.81-.535-3.553-2.681-6.204-4.839a344.034 344.034 0 01-5.614-5.007c-4.17-3.579-9.756-9.133-6.58-5.755 2.773 2.63 2.756 2.457 3.772 3.349 1.052 1.036 2.126 2.043 3.195 3.062 1.692 1.45 4.863 4.184 7.555 6.371 2.691 2.186 4.869 3.855 4.407 3.383 6.93 5.755 15.381 11.769 21.92 16.378-4.46-3.199 1.305.708.04-.316a370.099 370.099 0 01-7.827-5.565 427.433 427.433 0 0010.86 7.481c3.863 2.578 7.716 5.007 10.766 6.963-.803-.397-1.075-.506 2.004 1.508-2.166-1.415.716.322 2.975 1.635 2.258 1.312 3.87 2.209-.89-.754a268.658 268.658 0 01-11.298-7.073c-2.819-2.1 4.222 2.521 8.3 4.886a440.149 440.149 0 0010.276 6.077 424.826 424.826 0 0011.817 6.497l5.43 3.01c1.813.995 4.043 2.152 7.936 3.971-4.863-2.504-2.513-1.416 1.398.374 3.91 1.789 9.438 4.155 10.778 4.626 7.537 3.379 12.447 5.019 18.621 7.436-1.605-.53-5.383-1.911-9.114-3.373-3.731-1.461-7.411-2.998-8.93-3.568-.242 0 .364.346-.416.098-.779-.247-2.957-1.076-8.664-3.706a218.096 218.096 0 007.157 3.275c1.513.656 2.31.984 2.888 1.197 1.155.42 1.311.454 4.534 1.755a266.237 266.237 0 01-4.771-1.991c2.183.869-1.848-.979 2.368.823 8.156 3.452 13.048 5.271 17.264 6.825 4.217 1.554 7.786 2.797 13.534 4.523-2.542-.834 2.749.575 5.504 1.231l4.8 1.238c.618.172.45.184.15.161-.578-.04-1.733-.184 1.692.673 1.993.328 4.922.869 7.041 1.151 2.12.282 3.42.443 2.103.225 2.276.31 2.824.374 3.205.437.382.063.555.109 2.207.316 1.484.075 3.09.15 5.117.213 2.028.064 4.488.098 7.682-.04-.572.098-1.152.15-1.732.155-.532 0-1.236.07-2.189.058h-1.629l-2.062-.081c3.425.19 5.776.156 6.902.213 1.126.058 1.011.133-.485.236a94.339 94.339 0 01-11.2-.46c-1.271-.069-1.253-.046-.525.034.727.081 2.189.213 3.789.306 3.188.224 6.983.207 6.769.264a97.603 97.603 0 01-11.818-.575c2.751.379 5.524.586 8.3.621a77.948 77.948 0 0010.259-.477c4.505-.518 5.908-.915 6.238-.898.329.017-.445.207-.364.23a34.193 34.193 0 003.598-.99c.578-.195.578-.224.225-.138a67.19 67.19 0 01-5.198 1.151c-1.796.302-3.606.51-5.424.622-.427 0-.485 0 0-.064.486-.063 1.531-.201 3.293-.477a52.559 52.559 0 0012.274-3.609 33.656 33.656 0 007.023-4.252 29.853 29.853 0 005.459-5.646c-.636.829-1.156 1.381-1.514 1.778a5.7 5.7 0 01-.647.605c.341-.494.71-.969 1.104-1.422a31.33 31.33 0 002.888-4.327 34.232 34.232 0 002.703-6.457c-.122.38-.226.748-.347 1.082l-.364.955c-.225.576-.433 1.151-.652 1.571l-.578 1.191c-.173.34-.341.628-.479.881-.344.644-.73 1.265-1.156 1.859l-.537.805-.953 1.318a30.79 30.79 0 01-5.152 5.341l-.329.063a29.44 29.44 0 006.844-7.516 32.157 32.157 0 002.42-4.604c.301-.8.636-1.582.89-2.371.254-.788.531-1.559.705-2.342a8.978 8.978 0 01-.445 1.899 44.444 44.444 0 001.819-9.328l.11-1.186c0-.397.035-.788.058-1.185.034-.789.086-1.577.063-2.383a15.82 15.82 0 00-.67-4.765c.124.308.228.623.312.944.103.316.184.639.243.967a9.329 9.329 0 00-1.698-4.356 5.947 5.947 0 00-4.384-2.153c-1.61-.06-3.218.166-4.748.668a31.131 31.131 0 00-4.28 1.692 62.407 62.407 0 00-7.226 4.143 102.837 102.837 0 00-5.291 3.712c2.247-1.663 4.448-3.131 5.47-3.735 1.023-.604.82-.437-1.617 1.232-2.801 1.956-7.699 5.754-11.783 9.156-1.155.805-5.533 4.482-8.369 6.992-2.836 2.509-4.24 3.711.41-.622-6.059 5.525-7.861 7.372-9.652 9.11-1.791 1.738-3.466 3.453-8.947 9.046a375.511 375.511 0 017.399-7.429c1.051-.812-5.014 5.432 2.258-1.479-3.783 3.694-4.707 4.759-5.637 5.755-.462.518-.924 1.03-1.733 1.876l-3.846 4.028-1.976.127-2.235.172c-2.351.069-2.732 0-1.831-.057l5.92-.455c.757-.811 1.473-1.571 2.27-2.4l2.455-2.514c-1.646 1.64-3.177 3.159-4.771 4.816l-6.423.369c-1.265 0-.41-.069 1.155-.173l2.646-.173 2.558-.201c.659-.719 1.121-1.214 1.034-1.151l-1.057 1.099c-1.224.075-1.859.115-2.102.144-.243.029-.173.029-.144.04.028.012 0 0-.474.064-.474.063-1.392.103-3.148.178-3.356.201-5.597.201-7.208.144a75.254 75.254 0 01-3.714-.207c-1.028-.087-2.039-.207-3.576-.426a37.345 37.345 0 01-2.761-.489 13.448 13.448 0 01-3.748-1.358c.674.384 1.386.696 2.125.932.689.227 1.389.419 2.097.575.578.133.959.202.993.225a5.903 5.903 0 01-1.114-.161c-2.103-.438-3.807-1.071-4.916-2.026a3.64 3.64 0 01-1.103-1.611 3.6 3.6 0 01-.156-1.566 7.665 7.665 0 01.647-2.192c.266-.576.503-.984.728-1.376a25.149 25.149 0 011.669-2.44 51.096 51.096 0 014.263-4.673c2.634-2.382 3.465-2.934 4.661-3.89 1.196-.955 2.784-2.279 7.128-5.887a395.611 395.611 0 00-4.8 4.092l10.807-8.897c9.027-7.585 17.241-14.56 25.258-21.868 8.017-7.309 15.89-14.963 24.039-23.957a196.197 196.197 0 01-5.931 6.33c-1.057 1.024.202-.276 1.675-1.853.745-.788 1.53-1.646 2.131-2.302.341-.347.66-.716.953-1.105 1.259-1.3 2.501-2.618 3.725-3.953.428-.61-1.617 1.657-3.569 3.706-1.952 2.048-3.789 3.907-2.726 2.681a97.354 97.354 0 002.426-2.566 463.953 463.953 0 01-3.466 3.608c7.878-8.143 13.412-15.216 18.685-21.897-3.281 4.431-5.164 6.727-6.186 8.057a18.205 18.205 0 00-1.467 2.025 16.496 16.496 0 01-1.427 1.951c-1.034 1.261-2.888 3.493-6.555 7.482 3.875-4.23 4.21-4.604 3.748-3.989-.462.616-1.808 2.199-1.386 1.784 2.05-2.227 2.501-2.814 3.038-3.452.537-.639 1.155-1.353 3.333-3.931 0 .052-.578.788-1.404 1.79a197.69 197.69 0 01-2.807 3.338c-1.865 2.169-3.205 3.694-.987 1.317.375-.656 4.395-5.179 6.157-7.533 3.211-3.855 0 .173 1.449-1.502 1.733-2.181 2.692-3.521 4.217-5.501l-1.063 1.582c2.16-2.756 3.344-4.39 4.09-5.467a51.504 51.504 0 001.415-2.123l1.565-2.463c.832-1.301 2.137-3.292 4.17-6.716.087-.472-2.276 3.798-6.024 9.271-1.098 1.289 1.808-2.935 4.517-7.573 2.709-4.639 5.198-9.691 4.713-9.208 1.681-3.343 2.31-4.84 2.547-5.312.237-.471 0 .041-.225.628s-.503 1.243-.37 1.024c.133-.219.687-1.295 1.952-4.224.717-1.611.867-1.87.67-1.295-.098.282-.283.777-.519 1.41-.237.633-.578 1.399-.919 2.239-1.415 3.361-3.65 7.763-4.378 9.207a121.43 121.43 0 005.863-11.9 74.244 74.244 0 01-3.223 7.671c-1.248 2.653-2.519 4.954-2.975 6.105 2.414-4.333 3.333-6.33 4.257-8.315.924-1.986 1.825-4.029 3.558-8.77a59.083 59.083 0 01-2.31 5.432c-.128.207.306-.806.779-2.043.474-1.237 1-2.67 1.184-3.269.185-.598.041-.351-.854 1.79a97.053 97.053 0 001.49-3.867c.335-.944.577-1.652.878-2.463a81.864 81.864 0 002.449-8.995l-.653 3.044a5.427 5.427 0 00-.116.772 8.25 8.25 0 01-.248 1.151c-.185.753-.526 2.014-1.224 4.201 1.155-3.522 1.732-5.974 2.166-7.856.433-1.882.67-3.217.906-4.546.104-.662.214-1.329.33-2.066.115-.737.208-1.554.34-2.515.214-1.916.491-4.425.578-8.12 0-4.575-.953 14.842-.37-2.831V148.824a.627.627 0 010-.162c.024.168.037.337.041.507 0 .322.04.788.046 1.352-.04-3.159-.196-4.604-.231-5.047-.035-.443-.052 0-.064.622 0 1.243 0 3.056-.306-.886a22.969 22.969 0 00-.421-3.367 2.985 2.985 0 00-.982-1.571 1.544 1.544 0 00-.358-.247c-.077-.046-.106-.07-.087-.07.268.092.513.241.716.438a2.888 2.888 0 00-2.189-.679 7.192 7.192 0 00-1.525.282 9.633 9.633 0 00-1.351.535c-.497.288-.728.305-3.119 1.617a31.559 31.559 0 012.218-1.088c-1.034.513-.081.167-.203.311-.423.291-.867.55-1.328.777-.941.535-2.507 1.433-4.962 3.079-3.581 2.428-4.765 3.343-5.14 3.551-.376.207.11-.179 0-.144-5.378 4.074-9.455 7.302-13.123 10.145.393-.264 0 .092-1.589 1.381-8.9 7.28-5.25 4.029-8.594 6.699-6.406 5.116-5.961 4.857-5.672 4.771.289-.087.398 0-6.764 5.685 5.574-4.373 11.09-8.816 16.6-13.236-.629.639-.889 1.036 2.669-1.847.242-.374 6.001-5.242 11.604-9.558.855-.576-2.888 2.382-5.58 4.603-2.691 2.222-4.459 3.701.254.046-3.356 2.636-7.924 6.4-12.043 9.72 2.005-1.726-1.293.921-4.233 3.275-2.94 2.353-5.505 4.391-1.993 1.444-9.022 7.28-14.301 11.325-19.419 15.187a526.15 526.15 0 01-8.086 5.956c-2.992 2.158-6.394 4.604-10.801 7.602l7.988-5.795c4.043-2.969 8.987-6.675 13.412-10.007l.785-.472c5.453-4.282 3.298-2.653 0-.167s-7.763 5.755-6.804 4.926a288.493 288.493 0 01-23.04 15.952 206.93 206.93 0 01-27.344 14.479c3.466-1.364-.369.328-1.155.754 3.905-1.634 5.464-2.423 6.798-3.033 1.335-.61 2.403-1.111 5.199-2.474-.976.673-5.534 2.877-7.948 4.028-.993.512.474-.121 2.513-1.076 2.039-.956 4.62-2.273 5.96-2.935-3.558 1.876-5.198 2.659-6.474 3.28-1.277.622-2.172 1.076-4.35 2.072-4.164 1.6-3.639 1.306-6.931 2.376a102.941 102.941 0 01-10.974 3.269c-2.784.645-4.858 1.042-6.827 1.324a56.766 56.766 0 01-6.227.61 50.368 50.368 0 01-9.386-.455 30.39 30.39 0 003.298.345 3.884 3.884 0 00-.797-.103c-.479-.069-.93-.138-.653-.115.278.023 1.283.149 3.743.247a48.86 48.86 0 01-5.429-.466c3.92.472 7.88.528 11.812.167a63.247 63.247 0 006.168-.829 89.65 89.65 0 005.742-1.254 88.915 88.915 0 008.589-2.693c1.975-.749 2.922-1.192 2.339-1.059a98.507 98.507 0 01-15.047 4.465c-2.669.546-5.37.93-8.086 1.151a52.595 52.595 0 01-9.507-.046h.578c-2.507-.236-3.738-.477-4.229-.541-.49-.063-.236 0 .255.081l1.68.305c.457.075.647.109.052.057a38.74 38.74 0 01-6.942-1.513 17.741 17.741 0 01-1.392-.455c-.445-.167-.872-.305-1.288-.466-.809-.345-1.594-.627-2.31-.99-.717-.362-1.433-.667-2.109-1.041l-1.028-.541-1.017-.576c-1.38-.782-2.778-1.68-4.395-2.773a43.685 43.685 0 0010.062 5.622c-1.028-.368-1.733-.691-2.23-.898-.497-.207-.75-.316-.837-.362.299.192.618.35.953.471l1.086.501 1.028.432c.577.253.86.397.346.259a43.214 43.214 0 01-11.806-6.618 55.587 55.587 0 01-11.055-11.821 81.337 81.337 0 01-4.557-7.302A113.638 113.638 0 0167.99 191a142.795 142.795 0 01-5.776-15.9c.428 1.502.769 2.733 1.11 3.856.34 1.122.664 2.135 1.028 3.199.745 2.124 1.542 4.489 3.159 8.264a77.712 77.712 0 01-1.155-2.336l-.751-1.641c-.34-.713-.323-.529.277 1.399a112.123 112.123 0 004.136 9.167l-.18.259a84.232 84.232 0 01-3.315-7.211 70.39 70.39 0 01-2.997-7.659c-1.196-3.522-2.195-7.004-2.374-7.303.404 1.358.826 2.716 1.253 4.069a81.026 81.026 0 001.375 4.028c.647 1.997.092.639-.809-1.951-.901-2.589-2.045-6.422-2.859-9.3a116.248 116.248 0 003.806 12.356c.45 1.289 1 2.601 1.525 3.953a63.317 63.317 0 001.768 4.092 95.246 95.246 0 004.17 8.201c-.087-.208.237.299.681 1.007l1.468 2.204c.421.575.67.898.387.426l-.82-1.364c-.209-.351-.463-.76-.751-1.249-.29-.489-.578-1.059-.97-1.726.092.034.998 1.605 2.31 3.614 1.31 2.008 3.009 4.425 4.499 6.261-.387-.478-.243-.248.087.23l1.259 1.675c.364.506.577.782.214.431a41.99 41.99 0 01-3.004-3.562c.832 1.053 1.496 1.899 2.09 2.561.596.662 1.029 1.197 1.428 1.611.768.835 1.195 1.306 1.675 1.778.479.472.958 1.002 1.923 1.871l.809.736 1.04.881c.386.328.82.685 1.322 1.053.502.368 1.028.806 1.658 1.22a41.898 41.898 0 008.479 4.822 48.682 48.682 0 006.885 2.331l1.247.322.913.208c.474.115.67.178.491.172a13.71 13.71 0 001.808.196l1.294.057c.606 0 1.53.11 3.176.179 2.486.107 4.976.071 7.457-.11-.421 0-1.028.035-1.733.041-.704.005-1.559 0-2.443 0-.884 0-1.796-.064-2.686-.092-.889-.029-1.732-.133-2.483-.219a39.533 39.533 0 01-1.837-.248 5.534 5.534 0 01-.745-.155c.259-.002.519.021.774.069.577.04 1.45.144 2.738.219a51.712 51.712 0 01-6.689-.858c-2.362-.575-3.35-.932-3.731-1.047-.381-.115-.15-.086 0-.069.15.017.196.034-.532-.236a50.645 50.645 0 01-5.117-2.077 43.964 43.964 0 006.758 2.486c2.455.684 4.713 1.105 5.533 1.266-1.565-.455 3.044.437 8.156.345a59.897 59.897 0 007.243-.512 56.943 56.943 0 002.518-.397 7.097 7.097 0 001.086-.271c2.686-.38 6.255-1.018 12.707-3.136-.855.368 2.744-.679-2.241.978a100.045 100.045 0 01-5.776 1.548 66.818 66.818 0 01-6.244 1.151c1.352 0 5.736-.696 10.975-2.25a130.672 130.672 0 0016.421-6.232c-1.439.627-1.854.782.935-.576 3.119-1.392 8.006-3.873 11.552-5.818 3.547-1.945 5.898-3.292 4.084-2.123a328.826 328.826 0 0028.487-19.026c.173 0-3.916 2.912-5.614 4.132a472.116 472.116 0 0015.335-11.371c1.796-1.318.531-.305-1.369 1.191s-4.459 3.453-5.198 4.069a644.927 644.927 0 0010.922-8.368l-1.45 1.266 8.843-7.009c3.795-3.027 7.636-6.083 9.178-7.234 5.828-4.753 8.618-7.153 11.962-9.921 1.675-1.381 3.466-2.877 5.892-4.742 2.426-1.864 5.406-4.178 9.559-6.906-.254.271-2.582 1.865-5.256 3.862-2.674 1.997-5.713 4.356-7.509 5.864 1.571-1.203 4.708-3.683 7.705-5.91a70.363 70.363 0 016.775-4.604c2.958-1.916 5.199-3.05 6.735-3.528a4.863 4.863 0 011.629-.282c.283.029.312.041.433.121.04.014.073.043.093.081.029.046.063.075.098.126.072.124.133.253.185.386.063.163.113.33.15.501l.063.282.058.379c.156 1.036.324 2.222.456 3.942.145 2.912.099 4.455.093 5.128-.006.673-.041.483-.058-.058s-.052-1.427-.075-2.146c-.023-.719-.087-1.283-.092-1.151.063 1.726.121 3.976.086 6.209a37.895 37.895 0 01-.537 5.968c-.266 2.797-.577 4.978-.612 5.433 0 .23.063.028.214-.749l.294-1.64c.11-.69.243-1.548.387-2.589a96.182 96.182 0 01-1.733 9.898c-.358 1.554-.733 2.952-1.022 4.063-.289 1.11-.543 1.928-.641 2.302.577-2.458.098-.749-.716 1.611-.815 2.359-1.993 5.363-2.241 5.64a111.605 111.605 0 01-3.657 8.056 142.517 142.517 0 01-5.302 9.605c-3.87 6.468-8.277 12.522-10.905 16.113.456-.759.93-1.507 1.375-2.267a191.78 191.78 0 01-6.931 8.678c-2.779 3.096-1.196 1.226 1.467-1.997 2.662-3.222 6.238-7.89 7.826-10.151-4.419 6.071-8.433 10.934-12.464 15.492a259.087 259.087 0 01-12.962 13.656c2.888-2.751 1.231-1.042 2.628-2.302-3.2 3.418-7.924 7.815-11.482 11.124-.919.742-.509.299 2.258-2.302a358.328 358.328 0 01-6.896 6.33c.421-.639-2.952 2.44 3.835-3.867a467.595 467.595 0 01-6.411 5.824c-7.232 6.255.242-.38 1.946-1.997a563.066 563.066 0 01-11.454 9.881c-4.089 3.568 2.478-1.859-5.498 4.885-5.418 4.42-11.61 9.421-17.906 14.779-3.131 2.693-6.29 5.461-9.282 8.482a47.11 47.11 0 00-4.268 4.869 18.525 18.525 0 00-1.82 2.935 8.475 8.475 0 00-.935 3.959 8.178 8.178 0 01.866-3.718 17.45 17.45 0 011.663-2.739 40.287 40.287 0 013.876-4.46c-3.437 3.562-4.488 5.525-5.002 6.664a6.06 6.06 0 00-.3.76 6.619 6.619 0 00-.197.662c-.057.241-.138.466-.19.788l-.098.524c0 .201-.041.426-.064.673a5.161 5.161 0 001.808 4.483 10.223 10.223 0 003.876 1.997 36.297 36.297 0 007.861 1.237c5.158.305 10.067.138 13.862 0-4.309.276-5.585.351-4.759.426.41 0 1.345.052 2.68.035.664 0 1.432 0 2.31-.047l1.334-.046 1.837-.092.988-.057 2.697-2.791c.659-.662 1.248-1.238 1.796-1.813l2.767-2.808a435.343 435.343 0 003.333-3.413c1.629-1.686 2.576-2.756 6.151-6.146-2.714 2.78-.427.656 2.438-1.939 2.865-2.596 6.353-5.617 5.776-4.972 4.262-3.707 8.652-7.297 13.221-10.647 2.31-1.651 4.621-3.222 7.018-4.655a39.302 39.302 0 017.37-3.517c1.168-.4 2.392-.619 3.627-.65a3.778 3.778 0 012.599.829 5.205 5.205 0 011.363 2.71 16.72 16.72 0 01.33 3.833c-.139 5.588-1.046 11.239-3.35 16.269.057-.092.277-.518.519-1.065.243-.547.491-1.214.705-1.726.37-1.105.578-1.686 0 .19a27.606 27.606 0 01-4.315 8.056 22.38 22.38 0 01-2.674 2.832 31.31 31.31 0 01-10.639 6.71c-2.354.9-4.773 1.62-7.237 2.152 1.155-.242 2.038-.432 2.703-.61.664-.178 1.12-.265 1.397-.351.578-.144.468-.081.07.092-1.3.363-2.403.639-3.362.817-.959.179-1.733.328-2.46.432a55.52 55.52 0 01-1.82.23c-.531.058-1.011.121-1.484.144-.953.063-1.883.149-3.229.207a55.37 55.37 0 01-2.38.098c-.935.023-2.027.034-3.327.052-.687-.069-.306-.075.636-.092h1.767l2.224-.07c3.107-.109 6.353-.575 5.857-.61-1.19.162-2.311.242-3.425.346a38.355 38.355 0 01-3.166.149H207.233c-.953 0-1.878 0-2.784-.051-3.61-.121-6.932-.403-10.438-.846-.791-.167.826.046 1.982.195 1.155.15 1.842.213-.821-.167a163.624 163.624 0 01-23.294-4.816c-7.619-2.112-14.66-4.564-20.02-6.572l-2.807-1.261c-6.821-2.699-11.257-4.649-14.365-5.967-3.581-1.727-.756-.438 2.732 1.087a427.056 427.056 0 01-13.896-6.462 366.388 366.388 0 01-10.819-5.507c.826.345 4.944 2.601 6.429 3.268-5.476-2.825-11.639-6.1-17.241-9.294-5.603-3.194-10.651-6.261-14.007-8.494.895.576 1.917 1.151 2.859 1.767a397.216 397.216 0 01-21.949-14.703c-7.093-5.105-14.18-10.56-21.694-17.017-3.402-3.004-5.331-4.794-6.58-5.916a114.965 114.965 0 00-2.338-2.06c-.543-.467-1.092-.91-2.31-2.026-1.22-1.116-3.08-2.877-6.158-6.129.052-.092-.959-1.243-2.564-3.021a227.496 227.496 0 01-5.996-6.906c-2.23-2.682-4.505-5.611-6.411-8.31a93.416 93.416 0 01-4.361-6.773c.364.696.78 1.37 1.155 2.06a66.845 66.845 0 01-6.52-12.752 41.506 41.506 0 01-2.704-11.855 28.671 28.671 0 010-5.036c.131-1.81.46-3.601.982-5.34a24.496 24.496 0 012.23-5.254 29.347 29.347 0 013.465-4.782 40.355 40.355 0 014.39-4.121c.785-.644 1.53-1.329 2.31-1.933l2.362-1.802c.763-.615 1.566-1.151 2.346-1.692l2.31-1.594 2.27-1.427c.74-.466 1.455-.932 2.183-1.329-.762.437-1.484.938-2.212 1.416.577-.357 1.155-.731 1.698-1.054l1.67-.938c1.091-.615 2.136-1.208 3.2-1.726 1.062-.518 2.061-1.047 3.084-1.514l3.06-1.352a130.008 130.008 0 0113.551-4.765c-.144.04-1.195.374-1.692.576-.497.201-.462.172 1.577-.403 12.707-3.522 26.044-5.041 39.398-5.467 13.354-.426 26.812.264 40.235 1.231 13.423.967 26.852 2.273 40.316 3.045 6.729.385 13.476.61 20.216.512a133.281 133.281 0 0020.176-1.669 84.43 84.43 0 009.553-2.221 61.06 61.06 0 009.317-3.666 50.395 50.395 0 008.571-5.502 45.393 45.393 0 007.174-7.429l1.536-2.101 1.381-2.204c.479-.725.866-1.502 1.276-2.267l.578-1.151.306-.576.26-.575 1.063-2.388c.352-.794.618-1.623.93-2.435.326-.818.608-1.654.843-2.503l.358-1.295.179-.65c.046-.219.081-.443.121-.662.139-.886.33-1.766.422-2.659l.196-2.681-.04-2.688c-.01-.446-.042-.892-.098-1.335l-.139-1.335a48.518 48.518 0 00-2.501-10.359 70.468 70.468 0 00-4.465-9.696c-.439-.777-.907-1.531-1.357-2.302l-.687-1.151-.734-1.117c-.491-.742-.976-1.49-1.479-2.227l-1.571-2.17c-.514-.73-1.068-1.426-1.623-2.128-.554-.703-1.097-1.405-1.669-2.095-1.155-1.341-2.31-2.745-3.529-4.029l-1.825-1.968-1.883-1.99c-1.248-1.29-2.594-2.475-3.893-3.707a130.458 130.458 0 00-17.126-13.075 126.876 126.876 0 00-19.101-10.105 119.664 119.664 0 00-20.528-6.664A103.042 103.042 0 00149.831.005a90.425 90.425 0 00-21.29 2.302 86.824 86.824 0 00-19.846 7.36 94.292 94.292 0 00-17.282 11.58 108.117 108.117 0 00-14.226 14.536l-1.594 1.933c-.526.65-1.005 1.335-1.508 1.997-.982 1.341-2.004 2.648-2.946 4.029l-2.749 4.103-.687 1.018-.636 1.048c-.421.702-.849 1.398-1.27 2.094-1.733 2.751-3.235 5.617-4.783 8.42a41.247 41.247 0 00-1.097 2.135l-1.057 2.135c-.353.713-.7 1.427-1.052 2.135a42.552 42.552 0 00-1.016 2.14l-.763 1.888c-.479 1.203-1.184 2.877-1.97 4.938-.785 2.06-1.576 4.43-2.471 6.946-.896 2.514-1.64 5.225-2.46 7.85-1.503 5.293-2.837 10.386-3.467 13.782-.63 3.395-.941 4.995-.271 3.338z"/>
</svg>
