<svg width="631" height="523" viewBox="0 0 631 523" fill="none" xmlns="http://www.w3.org/2000/svg">
<path d="M452.879 385.2C463.946 416.393 488.145 443.491 519.47 454.866C538.498 461.772 561.697 462.738 578.178 449.222C594.175 436.047 599.643 413.934 599.731 394.072C599.819 372.277 592.385 351.054 576.937 335.441C568.977 327.415 559.765 320.728 550.718 314.008C541.927 307.268 532.649 301.188 522.961 295.815C505.691 286.559 484.917 280.905 465.802 287.844C445.215 295.332 440.34 315.293 440.966 335.221C441.609 352.502 445.658 369.487 452.879 385.2V385.2Z" fill="#EAD5CD"/>
<path d="M477.944 460.081C476.253 461.673 475.364 463.287 477.242 464.879C481.908 468.854 493.601 470.029 509.017 470.029C524.432 470.029 555.296 470.26 559.27 466.735C563.245 463.211 560.203 460.422 550.157 460.147" stroke="#231F20" stroke-width="1.01012" stroke-miterlimit="10" stroke-linecap="round"/>
<path d="M592.407 387.375C594.076 389.57 595.086 394.753 587.258 398.662C579.429 402.57 562.685 407.039 561.566 418.765C560.446 430.491 564.365 438.32 557.657 442.789C550.948 447.257 535.884 447.806 535.884 454.515C535.884 461.223 544.822 464.001 544.262 459.543C543.702 455.086 506.843 459.543 491.208 458.446C475.573 457.348 453.23 432.193 447.081 422.147C440.933 412.101 430.37 387.495 433.664 384.146C436.958 380.798 438.133 393.644 453.219 396.993C468.305 400.341 461.036 405.37 464.945 418.216C468.854 431.062 483.929 450.057 484.489 453.351C484.829 455.36 480.47 457.666 477.901 460.038" stroke="#231F20" stroke-width="1.01012" stroke-miterlimit="10" stroke-linecap="round"/>
<path d="M493.228 227.72C493.228 227.72 519.953 254.071 506.591 274.328C493.228 294.586 476.1 314.415 503.505 330.862C530.91 347.31 559.018 329.49 557.646 320.234C556.273 310.978 547.764 302.425 519.612 298.648C491.461 294.871 471.302 281.52 484.324 269.179C497.346 256.838 517.9 284.945 492.207 307.607C466.515 330.269 450.748 343.236 486.717 355.577C522.687 367.918 560.731 355.918 560.731 355.918" stroke="#231F20" stroke-width="1.01012" stroke-miterlimit="10"/>
<path d="M562.268 366.052C574.046 367.405 585.684 369.778 597.051 373.145C599.807 373.902 603.123 375.473 603.035 378.327C602.906 379.51 602.384 380.616 601.553 381.467C598.709 384.761 595.47 386.222 591.309 387.374C582.1 389.916 572.711 391.751 563.223 392.864C528.835 397.146 493.557 396.663 460.014 388.066C452.406 386.112 444.808 383.674 438.055 379.645C435.859 378.294 433.444 376.351 433.301 373.771C433.125 370.619 436.167 368.281 438.988 366.908C446.894 362.967 455.667 361.155 464.395 359.794C492.657 355.402 521.412 355.402 550.036 356.148C555.416 356.28 560.95 356.412 566.001 354.545C574.982 351.251 580.505 342.38 587.718 336.067C593.869 330.695 601.358 327.087 609.392 325.625C612.686 325.021 616.232 324.824 619.274 326.174C622.315 327.525 624.763 330.818 624.204 334.134C623.314 339.251 616.858 340.799 611.709 341.491C604.067 342.337 596.57 344.182 589.409 346.98C579.78 350.999 571.447 357.433 563.64 364.24C558.282 368.918 547.895 379.831 539.77 376.845C529.153 372.936 557.634 358.97 561.543 358.97C565.452 358.97 605.67 363.999 609.019 372.936C612.368 381.874 603.375 408.883 591.649 426.187C579.923 443.491 550.717 464.825 546.808 461.465" stroke="#231F20" stroke-width="1.01012" stroke-miterlimit="10" stroke-linecap="round"/>
<path d="M552.331 373.76L554.384 374.045C560.456 374.923 567.681 377.251 566.923 380.765C566.308 383.586 560.84 385.003 556.064 385.749C525.42 390.558 491.383 388.604 462.441 380.358C460.861 380.001 459.351 379.385 457.972 378.536C454.843 376.219 457.687 372.771 461.881 371.223C483.544 363.296 507.117 362.549 529.955 363.68C535.884 363.977 541.791 364.317 547.687 364.778" stroke="#231F20" stroke-width="1.01012" stroke-miterlimit="10" stroke-linecap="round"/>
<path d="M506.041 378.283C506.041 377.108 511.871 376.285 518.997 376.439C522.631 376.526 528.725 376.647 532.008 377.668C533.918 378.261 535.302 379.634 534.456 380.754C533.611 381.874 528.966 382.192 526.77 382.313C515.663 382.942 504.521 382.13 493.623 379.897C491.295 379.447 489.001 378.042 490.011 376.779C490.937 376.039 492.059 375.585 493.239 375.472C505.316 372.98 524.838 372.179 537.805 372.695" stroke="#231F20" stroke-width="1.01012" stroke-miterlimit="10" stroke-linecap="round"/>
<path d="M386.247 150.129C363.586 140.357 336.674 144.277 313.628 150.81C288.88 157.826 266.965 171.605 256.787 196.101C251.297 209.276 249.101 223.605 246.971 237.669C246.828 238.537 246.708 239.415 246.576 240.283C242.854 250.856 241.778 263.098 240.735 272.661C238.396 294.225 240.515 317.305 255.008 334.51C268.799 350.924 291.867 356.941 312.475 353.01C333.919 348.86 352.123 332.764 362.004 313.725C372.578 293.259 371.282 268.906 381.867 248.66C391.748 229.742 414.805 220.893 417.067 197.627C419.098 177.161 404.353 157.903 386.247 150.129Z" fill="#EAD5CD"/>
<path d="M470.801 71.8882C468.506 64.0236 465.065 56.5395 460.59 49.6765C458.395 46.2431 455.997 42.9433 453.41 39.7949C451.048 36.7077 448.119 34.0992 444.78 32.1091C437.544 28.1675 428.684 30.067 421.207 32.2739C416.343 33.7012 411.808 35.9519 408.657 39.6082C408.396 38.3619 408.256 37.0934 408.24 35.8202C408.154 32.9695 408.805 30.1448 410.128 27.6185C410.176 27.5011 410.18 27.3703 410.139 27.2503C410.098 27.1303 410.016 27.0291 409.906 26.9651C409.797 26.9011 409.668 26.8787 409.543 26.9019C409.419 26.9251 409.307 26.9923 409.228 27.0914C407.041 31.2429 406.556 36.0828 407.877 40.5854C406.785 42.0577 405.93 43.6914 405.341 45.4274C404.111 49.0836 404.001 52.9704 403.87 56.7913C403.738 60.6122 404.012 64.7954 406.362 68.0784C409.656 72.7227 417.649 76.4448 422.107 71.1745C423.029 69.9717 423.641 68.56 423.888 67.0643C424.136 65.5686 424.01 64.0352 423.523 62.5995C422.546 59.2288 420.372 56.7034 417.924 54.3319C417.078 51.2576 416.31 47.8868 417.495 44.8345C419 40.9806 423.337 38.9165 427.125 38.0272C429.645 37.4449 432.254 37.3517 434.81 37.7527C436.16 38.7383 437.42 39.8405 438.576 41.0466C441.266 43.9764 443.684 47.1441 445.801 50.511C448.235 54.1529 450.411 57.9612 452.312 61.9078C456.089 69.901 458.373 78.6956 457.802 87.5781C457.485 91.9769 456.427 96.2904 454.672 100.336C454.541 100.644 454.398 100.962 454.266 101.292C453.849 100.633 453.421 99.9961 453.014 99.3702C446.064 88.742 437.336 78.2564 426.444 71.504C426.092 71.2734 425.511 71.6577 425.686 72.0859C428.212 78.2675 427.212 84.8442 424.325 90.7513C421.437 96.6583 416.946 102.225 412.917 107.539C405.675 117.143 397.698 126.17 389.058 134.538C377.42 145.737 364.31 155.838 349.641 162.745C345.595 164.722 341.361 166.293 337.004 167.433C336.323 167.609 335.62 167.762 334.918 167.883C334.457 167.96 333.995 168.037 333.523 168.081C331.404 168.256 330.153 167.334 330.032 165.204C330.032 164.106 330.164 163.008 330.197 161.91C330.212 160.482 330.069 159.057 329.768 157.661C329.192 154.864 328.157 152.182 326.705 149.723C325.334 147.37 323.625 145.232 321.632 143.376C320.699 142.509 319.689 141.773 318.69 141.005C316.889 139.61 319.382 138.809 320.425 138.392C324.054 136.839 327.569 135.03 330.943 132.979C339.944 127.479 348.4 121.133 356.196 114.028C360.947 109.79 365.511 105.35 369.888 100.71C373.592 96.9107 377.082 92.9079 380.34 88.7199C385.373 82.0408 389.856 74.9653 393.747 67.5623C394.438 66.2228 396.129 63.7853 395.679 62.1713C394.943 59.5911 392.242 61.5565 391.155 62.5776C389.316 64.4264 387.742 66.5216 386.478 68.803C383.771 73.5157 380.767 78.0521 377.486 82.3848C374.192 86.579 370.733 90.5866 367.088 94.4624C359.771 102.177 351.908 109.354 343.559 115.938C337.113 121.249 330.163 125.916 322.807 129.872C320.639 131.125 318.286 132.025 315.835 132.54C313.057 132.957 312.541 131.003 312.937 128.609C313.65 124.678 315.67 120.923 317.592 117.487C320.276 112.712 323.261 108.113 326.529 103.718C328.22 101.401 329.988 99.1287 331.822 96.9218C333.073 95.4286 335.006 93.7158 335.489 91.6955C336.235 92.1215 337.078 92.3484 337.937 92.3543C340.254 92.3543 342.197 90.7073 343.493 88.9396C345.436 86.3045 346.688 83.4497 349.081 81.166C353.693 76.7764 358.796 72.9338 364.288 69.7143C366.995 68.0607 369.913 66.7792 372.962 65.9044C376.168 65.037 379.319 65.1357 382.602 64.982C386.533 64.8064 391.913 62.9947 392.286 58.526C395.48 61.4353 399.056 63.8955 402.915 65.8385C403.409 66.091 404.012 65.4432 403.54 65.026L392.616 55.1443C389.86 52.641 387.203 50.3682 383.228 51.3015C379.473 52.1798 376.322 54.9796 373.346 57.3073C369.687 60.162 366.195 63.1777 362.872 66.3545C359.863 69.1872 357.119 72.5361 353.528 74.6661C351.772 75.7092 349.63 76.5545 347.577 75.9616C345.524 75.3687 344.283 73.4254 343.043 71.7675C338.102 65.4652 330.735 70.6695 326.573 75.1601C324.542 77.3561 323.433 80.09 325.157 82.8459C326.881 85.6018 330.493 87.5232 330.12 91.3661C329.68 95.8457 325.409 99.5349 322.73 102.807C320.051 106.079 317.405 109.504 314.902 112.974C310.971 118.464 304.065 126.512 307.216 133.758C308.731 137.228 312.234 139.061 315.067 141.301C318.11 143.629 320.662 146.536 322.577 149.854C324.619 153.61 325.168 157.998 324.114 162.141C323.411 165.566 322.939 168.992 325.212 172.022C327.067 174.46 329.955 175.887 332.722 177.018C336.729 178.632 340.836 180.005 344.799 181.597C353.342 185.008 361.715 188.81 369.921 193.004C377.925 197.089 385.501 201.788 393.307 206.18C396.601 208.068 400.246 209.671 404.144 209.792C408.241 209.725 412.261 208.667 415.859 206.707C423.333 202.967 430.474 198.596 437.204 193.641C447.7 186.043 457.121 176.623 462.874 165.094C459.416 174.833 452.674 183.156 445.142 190.084C439.832 195.039 433.992 199.395 427.728 203.073C423.421 205.583 418.941 207.785 414.322 209.66C410.249 211.285 405.385 213.185 400.916 212.614C398.281 212.274 396.25 210.286 393.834 209.32C390.54 207.992 387.104 208.958 383.953 210.187C377.552 212.748 370.806 214.347 363.937 214.931C350.411 215.924 336.901 212.817 325.168 206.015C318.778 202.271 313.431 197.231 308.149 192.126C303.242 187.328 297.884 181.311 291.142 179.159C287.716 178.061 284.554 178.72 281.129 179.576C279.48 180.074 277.767 180.329 276.045 180.334C275.095 180.302 274.156 180.112 273.267 179.774C273.759 179.032 274.385 178.388 275.112 177.874C275.386 177.677 275.672 177.479 275.968 177.293C276.241 177.397 276.52 177.485 276.803 177.556C279.932 178.314 282.611 176.601 285.586 175.832C289.978 174.668 293.909 178.171 297.357 180.499C304.01 184.978 310.444 189.776 317.12 194.245C329.889 202.82 343.998 210.231 359.655 211.066C363.261 211.264 366.878 211.054 370.437 210.44C373.943 209.961 377.341 208.884 380.483 207.256C386.676 203.655 377.189 197.879 374.313 196.134C360.764 187.822 345.963 181.794 330.954 176.667C323.367 174.087 315.703 171.715 308.051 169.354C304.164 168.157 300.266 167.016 296.423 165.731C292.91 164.633 289.276 163.228 285.52 163.283C282.752 163.347 280.086 164.345 277.956 166.115C277.566 166.39 277.199 166.694 276.858 167.027C274.664 169.183 272.79 171.642 271.291 174.328C270.687 175.349 269.721 176.59 269.951 177.852C270.093 178.346 270.334 178.806 270.658 179.204C270.983 179.602 271.385 179.931 271.84 180.169C271.696 180.457 271.571 180.754 271.467 181.059C271.05 182.499 270.734 183.966 270.522 185.45C270.118 187.31 269.601 189.143 268.974 190.94C268.359 192.719 267.744 194.926 267.119 196.694C267.206 196.694 267.283 196.232 267.371 196.221C267.604 196.211 267.837 196.233 268.063 196.287C268.063 196.287 268.118 196.287 268.151 196.287C268.447 195.453 268.733 194.618 269.029 193.795C270.294 190.324 271.285 186.759 271.994 183.134C272.161 182.3 272.426 181.489 272.784 180.718V180.718C275.825 182.047 279.163 181.179 282.216 180.4C284.239 179.661 286.407 179.41 288.545 179.665C290.684 179.921 292.732 180.677 294.524 181.871C298.027 184.123 301.265 186.764 304.175 189.743C309.72 195.014 314.99 200.602 321.38 204.895C332.996 212.507 346.662 216.384 360.544 216.007C367.373 215.869 374.138 214.661 380.593 212.427C384.304 211.132 388.356 208.782 392.407 209.803C395.24 210.517 397.392 212.866 400.268 213.415C404.605 214.228 409.414 212.515 413.444 211.011C418.307 209.133 423.02 206.887 427.542 204.291C434.117 200.483 440.239 195.942 445.79 190.754C453.739 183.474 460.799 174.646 464.214 164.293C464.867 162.325 465.366 160.31 465.707 158.265C465.883 157.76 466.047 157.244 466.212 156.728C468.633 149.319 469.147 141.419 467.705 133.758C466.673 128.675 464.488 123.954 462.6 119.134C463.453 118.694 464.223 118.106 464.872 117.399C467.343 114.665 468.891 110.712 470.121 107.297C471.425 103.642 472.316 99.8527 472.778 95.9994C473.727 87.9109 473.055 79.7142 470.801 71.8882V71.8882ZM286.97 164.227C290.78 164.556 294.403 166.071 298.015 167.213C301.628 168.355 305.185 169.409 308.764 170.507C316.066 172.758 323.367 175.02 330.603 177.49C345.184 182.464 359.534 188.294 372.753 196.276C375.619 198 379.649 199.845 381.087 203.084C381.801 204.665 380.955 205.653 379.495 206.377C377.698 207.241 375.818 207.921 373.884 208.409C366.676 210.25 359.14 210.411 351.859 208.881C336.861 205.982 323.894 197.693 311.575 189.041C305.35 184.649 299.245 180.004 292.712 176.074C291.452 175.237 290.037 174.662 288.551 174.383C286.808 174.243 285.058 174.537 283.456 175.239C281.897 175.81 279.064 176.82 277.011 176.447C277.831 175.965 278.617 175.426 279.361 174.833C281.469 173.087 284.324 169.903 284.357 166.972C284.379 166.689 284.345 166.405 284.256 166.136C284.167 165.867 284.026 165.618 283.84 165.404C283.654 165.191 283.427 165.016 283.172 164.891C282.918 164.766 282.641 164.694 282.358 164.677C283.851 164.225 285.418 164.072 286.97 164.227V164.227ZM276.55 168.619C276.693 168.443 276.836 168.267 277 168.092C277.165 167.916 277.242 167.85 277.374 167.74C277.762 167.347 278.177 166.98 278.614 166.642C279.446 166.057 280.422 165.711 281.436 165.643C284.565 165.5 282.809 168.937 281.963 170.277C280.928 171.992 279.562 173.485 277.945 174.668C277.253 175.173 276.55 175.613 275.858 176.063C275.521 175.858 275.228 175.588 274.997 175.267C274.767 174.946 274.604 174.582 274.519 174.196C274.014 172.253 275.375 170.046 276.55 168.597V168.619ZM272.323 179.17C272.044 179.016 271.799 178.808 271.603 178.557C271.406 178.307 271.262 178.019 271.179 177.712C271.096 177.404 271.076 177.083 271.12 176.768C271.163 176.453 271.27 176.149 271.434 175.876C272.035 174.508 272.771 173.202 273.63 171.978C273.136 173.812 273.399 175.558 274.947 176.612C273.931 177.298 273.043 178.156 272.323 179.148V179.17ZM420.372 58.5042C422.568 61.5675 424.017 65.8934 422.041 69.4178C420.065 72.9423 416.277 73.2827 412.917 71.9322C410.976 71.1638 409.258 69.9244 407.916 68.3258C406.574 66.7271 405.651 64.8195 405.231 62.7751C404.594 58.7008 404.594 54.5523 405.231 50.478C405.548 47.3921 406.554 44.4168 408.174 41.7712C408.702 43.4172 409.386 45.0091 410.216 46.5254C408.426 52.4873 409.327 59.1299 411.182 64.982C411.896 67.1779 412.884 71.0757 415.903 70.911C418.692 70.7573 419.845 67.3537 419.933 65.037C419.88 62.0103 419.357 59.0102 418.385 56.1435C419.104 56.8734 419.768 57.6551 420.372 58.4822V58.5042ZM416.903 54.6063C417.166 55.5506 417.441 56.4839 417.693 57.4172C418.615 60.7111 420.262 66.069 417.528 69.0006C413.729 73.074 411.534 62.6105 411.072 60.4036C410.145 56.2792 410.145 52.0002 411.072 47.8758C411.424 48.4358 411.786 48.9738 412.17 49.5008C413.612 51.3233 415.195 53.0303 416.903 54.6063V54.6063ZM420.734 39.5533C419.341 40.3936 418.17 41.5581 417.324 42.9479C416.477 44.3377 415.978 45.9116 415.87 47.5355C415.803 49.3525 416.007 51.1693 416.474 52.9264C414.526 51.0044 412.826 48.8467 411.413 46.5034C412.495 42.8602 414.72 39.6615 417.759 37.3794C419.298 36.1902 421.077 35.3494 422.972 34.9153C424.868 34.4812 426.836 34.464 428.739 34.865C430.194 35.2064 431.592 35.7574 432.889 36.501C428.623 36.1931 424.37 37.2506 420.745 39.5204L420.734 39.5533ZM455.869 99.9412C457.391 96.3369 458.343 92.5179 458.691 88.6212C460.173 72.4811 452.29 56.923 442.77 44.4172C441.09 42.1522 439.18 40.0661 437.072 38.1919C437.761 38.3824 438.439 38.6097 439.103 38.8726C446.679 41.9249 451.84 49.7534 455.177 56.8572C458.721 64.4022 460.422 72.6812 460.14 81.0124C459.833 89.7961 457.406 98.5797 458.329 107.451C458.394 108.022 458.471 108.549 458.559 109.142C457.525 106.776 456.291 104.502 454.87 102.346C455.221 101.478 455.584 100.721 455.891 99.9522L455.869 99.9412ZM454.398 103.542C456.163 106.21 457.556 109.106 458.537 112.151C459.137 114.266 459.679 116.407 460.162 118.574C458.768 118.156 458.471 116.114 458.087 114.72C457.615 113.007 456.605 112.172 455.353 110.987C453.135 108.922 453.52 106.21 454.42 103.553L454.398 103.542ZM361.071 69.3629C364.219 66.252 367.494 63.2838 370.898 60.4584C374.082 57.8123 377.398 54.815 381.153 53.0034C382.167 52.4236 383.302 52.088 384.469 52.0232C385.635 51.9584 386.8 52.1661 387.872 52.63C389.657 53.7279 391.292 55.053 392.736 56.5717L399.324 62.4898C396.734 60.8463 394.313 58.9484 392.1 56.8242C391.803 56.5388 391.155 56.7144 391.21 57.1865C391.562 60.4036 388.696 62.6764 385.83 63.412C382.536 64.2025 379.1 63.6536 375.773 64.1367C370.053 64.9492 364.881 67.7599 360.16 70.966C359.249 71.5809 358.359 72.2067 357.47 72.8545C358.853 71.6467 360.094 70.384 361.115 69.3739L361.071 69.3629ZM337.959 69.6593C339.305 69.7971 340.552 70.4265 341.462 71.4271C342.636 72.6787 343.438 74.2598 344.756 75.4127C347.621 78.0038 350.838 77.3341 353.814 75.5664L353.111 76.1044C350.621 77.9329 348.351 80.0442 346.348 82.3958C344.514 84.7345 343.482 87.7758 341.209 89.7631C340.632 90.3415 339.915 90.76 339.128 90.9775C338.341 91.195 337.51 91.2041 336.718 91.0038C336.304 90.878 335.911 90.6891 335.555 90.4438C335.439 89.4787 335.033 88.5715 334.391 87.8416C333.295 86.5356 332.279 85.1643 331.349 83.7353C330.57 82.4617 329.099 80.4413 329.593 78.8493C330.087 77.2572 332.041 76.8621 333.205 76.1923C334.326 75.5456 335.381 74.7917 336.356 73.9414C337.125 73.2717 338.343 72.3713 338.552 71.3283C338.676 71.0322 338.689 70.7013 338.588 70.3965C338.487 70.0917 338.279 69.8337 338.003 69.6703L337.959 69.6593ZM334.006 89.1043C333.641 88.6904 333.296 88.2579 332.974 87.8087L332.392 87.0182C333.015 87.6589 333.571 88.3616 334.05 89.1153L334.006 89.1043ZM336.4 70.439C338.761 70.6256 337.092 71.6797 336.872 72.053C336.147 73.2937 334.281 74.3807 333.095 75.1053C331.404 76.1264 328.769 76.84 328.473 79.1238C328.418 80.4779 328.782 81.816 329.516 82.9556L328.945 82.1542C328.267 81.4352 327.728 80.5978 327.353 79.6837C327.133 78.3881 329.044 76.7412 329.845 75.8629C330.89 74.6872 332.017 73.5866 333.216 72.569C333.836 72.028 334.489 71.5256 335.17 71.0648C335.445 70.922 336.137 70.3621 336.444 70.395L336.4 70.439ZM464.642 158.089C462.483 164.247 459.339 170.013 455.331 175.163C445.537 187.756 431.747 196.902 417.869 204.434C414.059 206.498 409.952 208.409 405.561 208.628C401.169 208.848 397.15 207.069 393.417 204.906C385.984 200.602 378.682 196.122 371.03 192.214C363.377 188.305 355.658 184.759 347.819 181.52C343.723 179.84 339.584 178.226 335.412 176.755C332.381 175.657 329.099 174.438 326.793 172.077C323.389 168.608 324.915 164.326 325.574 160.12C326.061 156.995 325.634 153.796 324.344 150.908C322.841 147.662 320.698 144.753 318.042 142.355C315.495 139.973 312.278 138.293 309.895 135.768C303.483 128.872 311.663 119.167 315.824 113.402C318.496 109.691 321.292 106.079 324.213 102.565C326.507 99.8095 329.241 97.0755 330.57 93.7817C331.133 92.4025 331.278 90.8877 330.985 89.4269C330.692 87.9662 329.975 86.6241 328.923 85.5688C327.882 84.5547 326.931 83.4527 326.079 82.2749C324.849 80.2986 325.311 78.3223 326.705 76.5766C328.746 73.9074 331.412 71.7808 334.468 70.384C332.38 71.8601 330.488 73.5939 328.835 75.5444C327.408 77.1584 325.541 78.8383 326.958 81.0342C328.67 83.7023 330.559 86.3813 332.502 88.8847C333.089 89.6655 333.767 90.3733 334.523 90.9928C334.391 92.475 333.106 93.7597 332.162 94.8686C328.627 99.0322 325.328 103.391 322.28 107.923C319.43 112.044 316.883 116.367 314.66 120.857C313.321 123.657 311.762 126.907 311.762 130.08C311.762 135.493 317.987 133.176 320.952 131.87C327.858 128.807 334.193 124.294 340.21 119.792C348.269 113.73 355.907 107.127 363.069 100.029C370.505 92.8335 377.213 84.9229 383.096 76.4118C386.16 71.8553 388.29 66.1789 392.627 62.6325C393.384 62.0176 394.823 61.8419 394.669 62.9618C394.561 63.4549 394.388 63.9314 394.153 64.3782C393.571 65.7177 392.879 67.0243 392.176 68.3089C388.26 75.617 383.754 82.5939 378.704 89.1701C375.051 93.7176 371.155 98.0645 367.033 102.192C362.722 106.635 358.227 110.899 353.55 114.983C345.849 121.832 337.494 127.907 328.604 133.122C325.24 134.99 321.772 136.665 318.218 138.139C316.373 138.93 316.318 140.335 317.812 141.598C320.27 143.431 322.484 145.571 324.399 147.966C327.978 152.669 329.638 158.555 329.044 164.435C329.044 166.28 329.395 168.278 331.371 168.959C332.686 169.263 334.055 169.236 335.357 168.882C339.068 168.132 342.686 166.984 346.15 165.456C359.468 159.967 371.546 151.479 382.383 142.081C390.48 135.025 398.027 127.361 404.957 119.156C409.03 114.368 412.906 109.417 416.617 104.355C420.449 99.1287 424.61 93.8255 426.784 87.6659C428.518 83.0445 428.672 77.9791 427.223 73.2607C437.654 80.123 446.075 90.4438 452.74 100.841L453.838 102.532C452.905 104.926 452.202 107.572 453.289 109.922C454.036 111.547 455.694 112.216 456.638 113.666C457.582 115.115 457.318 116.96 458.318 118.42C458.557 118.794 458.88 119.108 459.261 119.336C459.642 119.565 460.071 119.702 460.514 119.737C461.041 122.142 461.513 124.557 461.985 126.962C463.258 133.55 464.356 140.138 465.07 146.868C465.446 150.594 465.317 154.354 464.686 158.045L464.642 158.089ZM465.85 130.794C467.864 137.96 467.985 145.526 466.201 152.753C466.255 150.785 466.178 148.815 465.97 146.857C465.224 139.94 464.093 133.056 462.753 126.226C462.336 124.03 461.908 121.834 461.436 119.639L461.644 119.584C463.149 123.229 464.763 126.907 465.894 130.75L465.85 130.794ZM468.331 109.021C467.616 110.747 466.794 112.426 465.872 114.05C465.004 115.598 463.884 117.454 462.204 118.288C460.996 115.312 460.105 112.217 459.547 109.054C458.076 99.6886 460.832 90.389 461.15 81.0124C461.407 72.8784 459.816 64.792 456.495 57.3622C453.377 50.3682 448.579 42.8911 441.727 39.0592C439.68 37.9227 437.451 37.15 435.14 36.7755C432.756 34.9916 429.933 33.8874 426.971 33.5804C420.515 33.0204 414.707 37.3025 411.731 42.7813C411.316 43.5707 410.949 44.3847 410.633 45.2187C409.896 43.7973 409.307 42.3036 408.876 40.7611C409.264 40.2527 409.682 39.7687 410.128 39.3117C412.924 36.6735 416.313 34.7456 420.01 33.6901C423.907 32.3905 427.929 31.5001 432.01 31.0332C436.339 30.4032 440.755 31.1725 444.615 33.2291C447.968 35.3592 450.895 38.0959 453.245 41.2991C458.333 47.6008 462.608 54.5173 465.97 61.8858C472.646 76.5656 474.622 93.7926 468.375 108.977L468.331 109.021Z" fill="#231F20"/>
<path d="M261.618 337.737C259.916 339.329 259.038 340.943 260.904 342.536C265.581 346.51 277.264 347.685 292.69 347.685C308.116 347.685 338.969 347.916 342.944 344.391C346.918 340.867 343.877 338.078 333.831 337.803" stroke="#231F20" stroke-width="1.01012" stroke-miterlimit="10" stroke-linecap="round"/>
<path d="M261.618 337.738C264.154 335.366 268.502 333.06 268.205 331.051C267.645 327.757 252.57 308.719 248.662 295.916C244.753 283.114 252.01 278.041 236.935 274.693C221.86 271.344 220.73 258.498 217.381 261.847C214.032 265.195 224.649 289.768 230.787 299.825C236.925 309.882 259.268 334.96 274.903 336.124C290.538 337.288 327.407 332.83 327.956 337.222C328.505 341.614 319.59 338.891 319.59 332.193C319.59 325.495 334.665 324.935 341.363 320.467C348.06 315.998 344.162 308.181 345.271 296.443C346.38 284.706 363.146 280.248 370.964 276.34C375.575 274.034 376.113 269.203 375.421 265.173" stroke="#231F20" stroke-width="1.01012" stroke-miterlimit="10" stroke-linecap="round"/>
<path d="M375.433 265.305C359.172 269.796 322.632 274.385 293.305 272.991C258.676 271.322 223.497 262.384 217.908 254.007C213.517 247.419 223.914 241.929 243.963 238.196C243.963 238.196 261.981 236 265.318 236C268.656 236 268.92 233.431 268.404 230.862C265.155 219.535 264.89 207.56 267.635 196.101" stroke="#231F20" stroke-width="1.01012" stroke-miterlimit="10" stroke-linecap="round"/>
<path d="M330.262 339.165C334.171 342.514 363.377 321.202 375.103 303.888C386.829 286.573 395.832 259.563 392.473 250.636C390.09 244.279 369.064 239.898 355.713 237.9C355.713 237.9 318.701 231.312 280.393 234.42" stroke="#231F20" stroke-width="1.01012" stroke-miterlimit="10" stroke-linecap="round"/>
<path d="M374.279 265.492C378.452 264.394 381.68 262.846 384.523 259.585C385.363 258.739 385.886 257.63 386.006 256.445C386.093 253.59 382.778 252.053 380.033 251.262C358.238 245.223 335.884 242.479 313.353 241.381C290.549 240.283 266.987 240.996 245.28 248.924C242.667 249.879 237.594 253.447 241.36 256.236C242.742 257.088 244.256 257.704 245.84 258.059C274.771 266.304 308.808 268.259 339.452 263.45C344.228 262.703 349.696 261.254 350.311 258.465C352.111 250.197 325.881 250.779 321.237 250.395C308.259 249.857 288.77 250.68 276.66 253.173C275.479 253.285 274.358 253.739 273.432 254.479C272.421 255.742 274.716 257.147 277.044 257.597C287.942 259.83 299.084 260.642 310.191 260.013C312.332 259.892 316.999 259.574 317.877 258.454C318.755 257.334 317.339 255.961 315.429 255.369C312.135 254.347 306.052 254.271 302.407 254.139C295.281 253.985 289.484 254.809 289.462 255.983" stroke="#231F20" stroke-width="1.01012" stroke-miterlimit="10" stroke-linecap="round"/>
<path d="M137.664 190.662C148.885 177.168 153.815 158.107 153.486 139.585C153.178 122.698 149.687 105.054 136.95 93.0202C125.213 81.9088 109.04 76.5507 93.1855 75.0684C85.1128 74.3183 76.9736 74.7624 69.0304 76.3861C54.1859 79.4713 39.6379 87.6621 31.3593 100.629C27.5404 106.591 24.5034 113.019 22.3231 119.756C18.8755 130.439 16.7564 141.188 17.4372 152.354C17.8092 158.439 18.9341 164.454 20.7859 170.262C26.0122 186.654 36.5856 202.311 53.8126 207.318C62.4096 209.821 71.5666 209.953 80.4601 209.986C89.145 209.986 97.8848 209.909 106.449 208.471C118.689 206.572 129.801 200.232 137.664 190.662V190.662Z" fill="#EAD5CD"/>
<path d="M60.148 227.839C58.4571 229.431 57.5678 231.056 59.4453 232.648C64.1116 236.611 75.8049 237.786 91.2862 237.786C106.767 237.786 137.554 238.017 141.529 234.492C145.503 230.968 142.462 228.179 132.416 227.905" stroke="#231F20" stroke-width="1.01012" stroke-miterlimit="10" stroke-linecap="round"/>
<path d="M60.1487 227.839C62.685 225.467 67.0439 223.162 66.7364 221.163C66.1765 217.804 51.1015 198.82 47.1927 186.029C43.284 173.237 50.5415 168.154 35.4665 164.805C20.3915 161.456 19.2716 148.61 15.9228 151.959C12.574 155.308 23.1803 179.88 29.3179 189.937C35.4555 199.995 57.8649 225.072 73.445 226.236C89.0251 227.4 125.939 222.942 126.498 227.334C127.058 231.726 118.121 229.014 118.121 222.305C118.121 215.597 133.196 215.048 139.905 210.579C146.613 206.11 142.693 198.293 143.813 186.567C144.933 174.84 161.677 170.372 169.506 166.463C175.369 163.531 178.289 159.03 176.895 154.759L174.293 155.362L173.195 155.648" stroke="#231F20" stroke-width="1.01012" stroke-miterlimit="10" stroke-linecap="round"/>
<path d="M123.413 124.07C127.255 124.334 131.098 124.652 134.897 125.07C146.975 126.354 158.35 126.914 170.175 129.549C176.312 130.911 188.62 133.744 191.245 140.738C194.604 149.675 185.601 176.685 173.875 194C162.149 211.314 132.943 232.626 129.034 229.277" stroke="#231F20" stroke-width="1.01012" stroke-miterlimit="10" stroke-linecap="round"/>
<path d="M173.205 155.615C156.582 160.007 120.712 164.475 91.8354 163.081C57.2167 161.401 22.0271 152.464 16.4494 144.086C10.8718 135.709 29.2846 129.011 61.1255 125.663C80.6417 123.66 100.28 123.113 119.877 124.027" stroke="#231F20" stroke-width="1.01012" stroke-miterlimit="10" stroke-linecap="round"/>
<path d="M119.877 124.027C121.035 123.135 121.915 121.931 122.413 120.557C124.214 113.53 113.3 109.5 109.139 106.931C107.475 105.8 105.684 104.867 103.803 104.153L103.221 103.879C99.4877 98.9271 96.5342 94.8537 95.8534 93.8655C89.2657 84.2913 69.0083 66.0543 74.5749 61.5965C84.4566 53.6802 111.192 37.65 121.721 30.3814L164.355 1C178.759 28.7664 195.066 55.5033 213.16 81.0194C188.081 90.032 163.925 101.43 141.024 115.056L139.805 115.627L137.038 115.133C134.842 114.738 132.558 114.299 130.889 112.838C130.219 112.052 129.403 111.403 128.485 110.928C127.321 110.716 126.121 110.842 125.026 111.29C121.999 111.833 118.884 111.622 115.957 110.675" stroke="#231F20" stroke-width="1.01012" stroke-miterlimit="10"/>
<path d="M137.038 115.155C134.184 114.759 131.284 115.427 128.891 117.033C126.951 118.583 125.314 120.477 124.06 122.621C122.71 124.74 121.447 127.112 121.678 129.615C122.007 133.282 125.334 135.83 128.266 137.993C128.804 138.334 129.27 138.778 129.638 139.299C130.736 141.089 129.177 143.252 127.881 144.877C126.103 147.073 122.732 152.036 124.587 155.033C124.882 155.464 125.254 155.837 125.685 156.131C126.811 157.011 128.11 157.642 129.497 157.983C130.885 158.323 132.328 158.366 133.733 158.107C137.708 157.35 141.869 156.933 145.394 154.956C148.918 152.98 151.619 148.709 150.236 144.899C149.292 142.275 146.645 140.573 143.933 139.936C141.184 139.464 138.382 139.386 135.611 139.705C128.658 140.12 121.683 139.996 114.75 139.332C112.554 139.113 109.798 138.421 109.26 136.225C108.843 134.38 110.358 132.712 111.752 131.416L119.734 123.983" stroke="#231F20" stroke-width="1.01012" stroke-miterlimit="10"/>
<path d="M74.2241 60.257C87.0593 49.4091 99.9384 38.5283 114.025 29.3604C124.401 22.6189 135.359 16.8437 146.305 11.0794C150.897 8.55486 155.613 6.26451 160.436 4.21716C162.522 11.9688 167.221 18.7102 171.624 25.4297C182.815 42.4899 192.593 60.4353 200.863 79.0871C192.241 86.1783 183.02 92.508 173.304 98.0049" stroke="#231F20" stroke-width="1.01012" stroke-miterlimit="10"/>
<path d="M45.8171 272.28L45.6478 272.216C44.4416 273.93 43.2353 275.517 41.6905 275.581L37.0771 275.729V268.492H39.7436C40.5477 268.492 41.2037 269.74 41.7751 270.375H41.9444V266.058H41.7751C41.2037 266.799 40.5266 268.068 39.7436 268.068H37.0771V260.916L41.5212 261.064C42.3253 261.127 43.4046 262.778 44.4839 264.026L44.6532 263.963L43.8279 260.577H34.4953V260.619C35.0456 261.677 35.3207 262.376 35.3207 263.54V273.105C35.3207 274.269 35.0244 274.988 34.4953 276.025V276.068H44.886L45.8171 272.28ZM49.8478 276.025C49.4246 275.115 49.3823 274.269 49.3823 272.83V268.005C49.996 267.222 50.8636 266.714 51.9006 266.714C53.3184 266.714 53.6359 267.687 53.6359 268.872V272.851C53.6359 274.227 53.5724 275.115 53.1703 276.025V276.068H55.6674V276.025C55.223 275.115 55.1807 274.311 55.1807 272.83V268.026C55.8367 267.243 56.6832 266.714 57.7201 266.714C59.138 266.714 59.4554 267.687 59.4554 268.872V272.851C59.4554 274.227 59.392 275.115 58.9899 276.025V276.068H61.4659V276.025C61.0214 275.136 61.0003 274.29 61.0003 272.83V268.534C61.0003 266.756 60.3231 265.677 58.5243 265.677C57.1064 265.677 56.006 266.397 55.1807 267.582L55.1172 267.56C54.8844 266.375 54.1649 265.677 52.7047 265.677C51.2869 265.677 50.1653 266.375 49.3823 267.56L49.2976 267.539V265.55L46.8851 266.672V266.714C47.393 267.158 47.8374 267.772 47.8374 268.872V272.851C47.8374 274.311 47.7528 275.115 47.3507 276.025V276.068H49.8478V276.025ZM68.3558 276.004C67.2342 276.004 66.1761 275.412 65.6047 274.036V267.92C66.0914 267.306 67.0649 266.693 68.3346 266.693C70.2815 266.693 71.7629 268.153 71.7629 271.137C71.7629 274.121 70.3874 276.004 68.3558 276.004ZM66.0703 280.829V280.787C65.647 279.856 65.6047 279.009 65.6047 277.57V275.75C66.2184 276.11 67.0437 276.385 68.2077 276.385C71.7417 276.385 73.4559 273.761 73.4559 270.819C73.4559 267.772 71.6994 265.677 69.1811 265.677C67.6574 265.677 66.4089 266.397 65.6682 267.476L65.5201 267.455V265.571L63.1287 266.693V266.735C63.6155 267.158 64.0599 267.772 64.0599 268.851V277.591C64.0599 279.03 63.9964 279.877 63.5943 280.787V280.829H66.0703ZM77.8988 276.385C79.0838 276.385 79.9515 275.793 80.3747 275.221L80.3324 275.136C80.0996 275.285 79.4859 275.539 78.7241 275.539C77.6448 275.539 77.2004 274.988 77.2004 273.951V266.375H80.1631V265.994H77.2004V264.069H77.0946L74.5128 266.291V266.375H75.6556V273.951C75.6556 275.856 76.7772 276.385 77.8988 276.385ZM81.563 280.829C83.0231 280.66 84.1024 279.919 85.0547 277.464L88.5465 268.428C88.9909 267.18 89.3083 266.65 89.9855 266.037V265.994H87.7635V266.037C88.2925 266.46 88.483 267.349 88.0386 268.555L85.9858 274.015L83.912 268.47C83.4252 267.201 83.5734 266.439 83.9331 266.037V265.994H80.9493V266.037C81.4783 266.502 81.7111 267.053 82.219 268.343L85.1817 276.131L84.8854 276.914C84.1024 278.946 82.2825 279.263 81.5206 279.263L81.563 280.829ZM102.532 273.655C101.834 274.65 100.543 275.031 99.358 275.031C96.9667 275.031 95.6335 273.274 95.6335 270.544C95.6335 267.73 96.9879 266.058 99.0406 266.058C100.395 266.058 101.453 267.18 102.236 268.513L102.405 268.47L102.194 266.312C101.707 266.079 100.797 265.677 99.3792 265.677C96.5858 265.677 94.0463 267.899 94.0463 271.264C94.0463 274.396 95.9297 276.385 98.702 276.385C100.734 276.385 102.088 275.327 102.659 273.719L102.532 273.655ZM109.07 276.385C111.969 276.385 114.381 273.973 114.381 271.052C114.381 268.132 111.969 265.677 109.07 265.677C106.213 265.677 103.758 268.132 103.758 271.052C103.758 273.973 106.17 276.385 109.07 276.385ZM109.07 275.983C106.678 275.983 105.536 273.676 105.536 271.052C105.536 268.407 106.699 266.079 109.07 266.079C111.44 266.079 112.604 268.407 112.604 271.052C112.604 273.676 111.461 275.983 109.07 275.983ZM118.604 276.025C118.18 275.094 118.138 274.248 118.138 272.787V267.963C118.963 267.116 120.022 266.714 121.016 266.714C122.624 266.714 123.196 267.814 123.196 269.105V272.809C123.196 274.227 123.132 275.094 122.73 276.025V276.068H125.206V276.025C124.762 275.115 124.741 274.29 124.741 272.787V268.767C124.741 266.841 123.704 265.677 121.757 265.677C120.339 265.677 119.133 266.375 118.138 267.56L118.053 267.539V265.571L115.662 266.693V266.735C116.149 267.158 116.593 267.772 116.593 268.851V272.809C116.593 274.269 116.53 275.115 116.128 276.025V276.068H118.604V276.025ZM130.04 276.385C131.225 276.385 132.092 275.793 132.515 275.221L132.473 275.136C132.24 275.285 131.627 275.539 130.865 275.539C129.786 275.539 129.341 274.988 129.341 273.951V266.375H132.304V265.994H129.341V264.069H129.235L126.654 266.291V266.375H127.796V273.951C127.796 275.856 128.918 276.385 130.04 276.385ZM141.946 273.444C141.205 274.523 139.978 275.031 138.687 275.031C136.295 275.031 134.941 273.338 134.941 270.481V270.121C134.941 269.994 134.941 269.867 134.962 269.761H142.009C142.178 267.793 140.591 265.677 138.137 265.677C135.682 265.677 133.333 267.836 133.333 271.2C133.333 274.248 135.195 276.385 137.988 276.385C140.083 276.385 141.522 275.179 142.052 273.507L141.946 273.444ZM138.052 266.058C139.512 266.058 140.295 267.031 140.295 269.148V269.317L135.005 269.423C135.28 267.391 136.359 266.058 138.052 266.058ZM146.296 276.025C145.873 275.094 145.831 274.248 145.831 272.787V267.963C146.656 267.116 147.714 266.714 148.709 266.714C150.317 266.714 150.889 267.814 150.889 269.105V272.809C150.889 274.227 150.825 275.094 150.423 276.025V276.068H152.899V276.025C152.455 275.115 152.433 274.29 152.433 272.787V268.767C152.433 266.841 151.396 265.677 149.45 265.677C148.032 265.677 146.825 266.375 145.831 267.56L145.746 267.539V265.571L143.355 266.693V266.735C143.842 267.158 144.286 267.772 144.286 268.851V272.809C144.286 274.269 144.222 275.115 143.82 276.025V276.068H146.296V276.025ZM157.732 276.385C158.917 276.385 159.785 275.793 160.208 275.221L160.166 275.136C159.933 275.285 159.319 275.539 158.557 275.539C157.478 275.539 157.034 274.988 157.034 273.951V266.375H159.997V265.994H157.034V264.069H156.928L154.346 266.291V266.375H155.489V273.951C155.489 275.856 156.611 276.385 157.732 276.385ZM167.494 266.079C166.922 265.846 165.97 265.677 165.039 265.677C163.261 265.677 161.462 266.375 161.462 268.428C161.462 270.396 163.134 271.095 164.531 271.645C165.949 272.216 167.007 272.724 167.007 273.994C167.007 275.031 166.287 276.004 164.742 276.004C163.303 276.004 162.309 275.2 161.441 273.338L161.293 273.38L161.505 275.793C162.245 276.11 163.198 276.385 164.446 276.385C166.795 276.385 168.277 275.369 168.277 273.422C168.277 271.37 166.732 270.714 165.272 270.1C163.811 269.55 162.563 269.042 162.563 267.793C162.563 266.777 163.346 266.058 164.594 266.058C165.61 266.058 166.626 266.523 167.557 268.195L167.705 268.153L167.494 266.079Z" fill="black"/>
<path d="M226.02 387.371H220.815L223.439 380.239L226.02 387.371ZM220.01 393.593C219.545 393.021 219.079 392.048 219.778 390.165L220.645 387.794H226.169L227.227 390.694C227.756 392.133 227.629 393.106 227.311 393.593V393.635H230.676V393.593C229.957 392.979 229.66 392.471 229.047 390.778L224.306 377.954H223.798L219.122 390.567C218.55 392.048 218.339 392.683 217.429 393.593V393.635H220.01V393.593ZM236.472 392.916C234.419 392.916 233.15 391.201 233.15 388.472C233.15 385.657 234.61 383.625 236.705 383.625C237.805 383.625 239.033 384.176 239.308 386.123V391.392C238.652 392.302 237.678 392.916 236.472 392.916ZM239.414 391.815V393.889L241.805 393.233V393.191C241.107 392.725 240.853 392.408 240.853 390.334V377.15L238.377 378.166V378.208C238.863 378.61 239.308 379.16 239.308 380.176V383.71C238.652 383.393 237.89 383.245 237.001 383.245C233.531 383.245 231.457 385.974 231.457 389.001C231.457 391.963 233.107 393.953 235.626 393.953C237.488 393.953 238.736 392.916 239.35 391.815H239.414ZM248.087 392.916C246.034 392.916 244.764 391.201 244.764 388.472C244.764 385.657 246.224 383.625 248.319 383.625C249.42 383.625 250.647 384.176 250.922 386.123V391.392C250.266 392.302 249.293 392.916 248.087 392.916ZM251.028 391.815V393.889L253.419 393.233V393.191C252.721 392.725 252.467 392.408 252.467 390.334V377.15L249.991 378.166V378.208C250.478 378.61 250.922 379.16 250.922 380.176V383.71C250.266 383.393 249.504 383.245 248.616 383.245C245.145 383.245 243.071 385.974 243.071 389.001C243.071 391.963 244.722 393.953 247.24 393.953C249.102 393.953 250.351 392.916 250.965 391.815H251.028ZM260.993 393.635V393.593C260.549 392.662 260.506 391.815 260.506 390.376V385.53C261.332 384.684 262.39 384.281 263.406 384.281C264.993 384.281 265.564 385.382 265.564 386.673V390.376C265.564 391.794 265.501 392.662 265.099 393.593V393.635H267.575V393.593C267.13 392.704 267.109 391.858 267.109 390.376V386.334C267.109 384.408 266.093 383.245 264.146 383.245C262.707 383.245 261.522 383.943 260.506 385.128V377.15L258.03 378.144V378.187C258.517 378.61 258.962 379.224 258.962 380.303V390.376C258.962 391.836 258.898 392.683 258.496 393.593V393.635H260.993ZM274.564 393.953C277.464 393.953 279.876 391.54 279.876 388.62C279.876 385.699 277.464 383.245 274.564 383.245C271.707 383.245 269.253 385.699 269.253 388.62C269.253 391.54 271.665 393.953 274.564 393.953ZM274.564 393.55C272.173 393.55 271.03 391.244 271.03 388.62C271.03 385.974 272.194 383.647 274.564 383.647C276.935 383.647 278.098 385.974 278.098 388.62C278.098 391.244 276.956 393.55 274.564 393.55ZM284.312 393.953C285.498 393.953 286.365 393.36 286.788 392.789L286.746 392.704C286.513 392.852 285.9 393.106 285.138 393.106C284.059 393.106 283.614 392.556 283.614 391.519V383.943H286.577V383.562H283.614V381.636H283.508L280.927 383.858V383.943H282.069V391.519C282.069 393.424 283.191 393.953 284.312 393.953ZM294.543 393.804H294.776L297.421 386.503L299.94 393.804H300.172L302.839 385.996C303.304 384.726 303.537 384.26 304.257 383.604V383.562H302.098V383.604C302.585 384.028 302.818 384.874 302.331 386.228L300.638 391.201L298.903 385.911C298.501 384.662 298.628 383.922 298.86 383.604V383.562H295.982V383.604C296.469 384.006 296.786 384.684 297.21 385.89L297.231 385.953L295.305 391.223L293.633 385.763C293.316 384.747 293.464 383.922 293.697 383.604V383.562H290.755V383.604C291.2 384.006 291.538 384.599 291.961 385.89L294.543 393.804ZM308.121 393.021C306.936 393.021 306.386 392.387 306.386 391.477C306.386 389.784 308.481 388.958 310.449 388.62V392.133C309.962 392.619 309.073 393.021 308.121 393.021ZM312.015 393.889C313.136 393.889 313.687 393.085 313.898 392.535L313.835 392.492C313.517 392.746 313.221 392.937 312.819 392.937C312.226 392.937 311.994 392.556 311.994 392.027V385.805C311.994 384.472 311.465 383.245 309.179 383.245C307.486 383.245 306.111 383.964 305.264 384.98L305.37 385.107C306.195 384.493 307.274 384.176 308.269 384.176C309.962 384.176 310.449 385.064 310.449 386.186V388.302C308.121 388.577 304.883 389.635 304.883 391.963C304.883 393.254 305.878 393.953 307.253 393.953C308.608 393.953 309.75 393.275 310.449 392.492C310.533 393.275 311.02 393.889 312.015 393.889ZM317.771 393.953C318.956 393.953 319.824 393.36 320.247 392.789L320.205 392.704C319.972 392.852 319.358 393.106 318.596 393.106C317.517 393.106 317.073 392.556 317.073 391.519V383.943H320.035V383.562H317.073V381.636H316.967L314.385 383.858V383.943H315.528V391.519C315.528 393.424 316.649 393.953 317.771 393.953ZM329.677 391.011C328.937 392.09 327.709 392.598 326.418 392.598C324.027 392.598 322.673 390.905 322.673 388.048V387.689C322.673 387.562 322.673 387.435 322.694 387.329H329.741C329.91 385.361 328.323 383.245 325.868 383.245C323.413 383.245 321.064 385.403 321.064 388.768C321.064 391.815 322.926 393.953 325.72 393.953C327.815 393.953 329.254 392.746 329.783 391.075L329.677 391.011ZM325.783 383.625C327.244 383.625 328.027 384.599 328.027 386.715V386.884L322.736 386.99C323.011 384.959 324.09 383.625 325.783 383.625ZM331.552 393.635H334.028V393.593C333.605 392.662 333.562 391.815 333.562 390.355V386.186C334.134 385.445 334.832 384.874 335.192 384.874C335.679 384.874 336.546 385.107 336.885 385.34H336.948L336.969 383.245C335.53 383.245 334.493 384.705 333.583 385.72L333.478 385.699V383.139L331.086 384.26V384.303C331.573 384.726 332.017 385.34 332.017 386.419V390.376C332.017 391.836 331.954 392.683 331.552 393.593V393.635ZM353.608 393.953C355.407 393.953 356.38 392.725 356.803 391.096L356.719 391.053C356.317 392.006 355.534 392.535 354.454 392.535C353.269 392.535 352.359 391.9 351.449 390.905C352.465 389.551 352.973 388.048 353.481 386.779C353.756 386.08 354.031 385.509 354.391 385.107C354.708 384.705 355.132 384.472 355.872 384.281V384.197H351.746V384.281C352.761 384.514 352.994 384.916 352.994 385.657C352.994 386.779 352.423 388.874 351.217 390.651C350.307 389.572 349.439 388.218 348.423 386.863L346.857 384.832C348.889 384.006 350.116 382.631 350.116 380.853C350.116 379.245 349.079 377.827 347.09 377.827C345.122 377.827 343.619 379.287 343.619 381.467C343.619 382.8 344.17 383.837 345.164 385.276C343.069 386.101 341.757 387.689 341.757 389.826C341.757 392.006 343.154 393.953 346.265 393.953C348.021 393.953 349.27 393.297 350.307 392.26C351.238 393.275 352.253 393.953 353.608 393.953ZM347.048 393.148C344.55 393.148 343.302 391.434 343.302 389.17C343.302 387.371 344.148 386.186 345.333 385.488C345.82 386.144 346.307 386.842 346.963 387.667C348.042 389.106 348.952 390.736 350.053 392.006C349.27 392.704 348.317 393.148 347.048 393.148ZM344.847 380.726C344.847 379.054 345.841 378.229 347.005 378.229C348.508 378.229 349.185 379.583 349.185 381.001C349.185 382.694 348.169 383.964 346.73 384.662C345.439 383.054 344.847 382.017 344.847 380.726ZM367.17 383.647C366.599 383.414 365.646 383.245 364.715 383.245C362.938 383.245 361.139 383.943 361.139 385.996C361.139 387.964 362.811 388.662 364.207 389.212C365.625 389.784 366.683 390.292 366.683 391.561C366.683 392.598 365.964 393.572 364.419 393.572C362.98 393.572 361.985 392.767 361.118 390.905L360.97 390.948L361.181 393.36C361.922 393.677 362.874 393.953 364.123 393.953C366.472 393.953 367.953 392.937 367.953 390.99C367.953 388.937 366.408 388.281 364.948 387.667C363.488 387.117 362.239 386.609 362.239 385.361C362.239 384.345 363.022 383.625 364.271 383.625C365.287 383.625 366.302 384.091 367.234 385.763L367.382 385.72L367.17 383.647ZM372.392 393.953C373.577 393.953 374.444 393.36 374.868 392.789L374.825 392.704C374.593 392.852 373.979 393.106 373.217 393.106C372.138 393.106 371.693 392.556 371.693 391.519V383.943H374.656V383.562H371.693V381.636H371.588L369.006 383.858V383.943H370.149V391.519C370.149 393.424 371.27 393.953 372.392 393.953ZM378.619 379.689C378.619 379.118 378.153 378.631 377.582 378.631C377.011 378.631 376.524 379.118 376.524 379.689C376.524 380.282 377.011 380.747 377.582 380.747C378.153 380.747 378.619 380.282 378.619 379.689ZM376.418 393.635H378.894V393.593C378.471 392.662 378.429 391.815 378.429 390.355V383.139L375.953 384.26V384.345C376.439 384.768 376.884 385.403 376.884 386.44V390.376C376.884 391.836 376.757 392.662 376.418 393.593V393.635ZM381.027 393.635H383.503V393.593C383.079 392.662 383.037 391.815 383.037 390.355V386.186C383.608 385.445 384.307 384.874 384.667 384.874C385.153 384.874 386.021 385.107 386.36 385.34H386.423L386.444 383.245C385.005 383.245 383.968 384.705 383.058 385.72L382.952 385.699V383.139L380.561 384.26V384.303C381.048 384.726 381.492 385.34 381.492 386.419V390.376C381.492 391.836 381.429 392.683 381.027 393.593V393.635Z" fill="black"/>
<path d="M514.796 507.415L514.626 507.351C513.42 509.065 512.214 510.652 510.669 510.716L506.056 510.864V503.627H508.722C509.526 503.627 510.182 504.875 510.754 505.51H510.923V501.193H510.754C510.182 501.934 509.505 503.203 508.722 503.203H506.056V496.051L510.5 496.199C511.304 496.262 512.383 497.913 513.462 499.161L513.632 499.098L512.806 495.712H503.474V495.754C504.024 496.812 504.299 497.511 504.299 498.675V508.24C504.299 509.404 504.003 510.123 503.474 511.16V511.203H513.865L514.796 507.415ZM518.805 511.16C518.382 510.229 518.34 509.383 518.34 507.923V503.098C519.165 502.251 520.223 501.849 521.218 501.849C522.826 501.849 523.397 502.949 523.397 504.24V507.944C523.397 509.362 523.334 510.229 522.932 511.16V511.203H525.408V511.16C524.963 510.25 524.942 509.425 524.942 507.923V503.902C524.942 501.976 523.905 500.812 521.958 500.812C520.541 500.812 519.334 501.51 518.34 502.695L518.255 502.674V500.706L515.864 501.828V501.87C516.35 502.293 516.795 502.907 516.795 503.986V507.944C516.795 509.404 516.731 510.25 516.329 511.16V511.203H518.805V511.16ZM529.752 497.257C529.752 496.685 529.286 496.199 528.715 496.199C528.144 496.199 527.657 496.685 527.657 497.257C527.657 497.849 528.144 498.315 528.715 498.315C529.286 498.315 529.752 497.849 529.752 497.257ZM526.683 515.753C528.398 515.52 529.519 514.377 529.519 511.816L529.561 500.706L527.085 501.828V501.912C527.572 502.336 528.017 502.971 528.017 504.008V512.663C528.017 514.356 527.572 515.118 526.641 515.647L526.683 515.753ZM536.613 511.52C539.512 511.52 541.924 509.108 541.924 506.187C541.924 503.267 539.512 500.812 536.613 500.812C533.756 500.812 531.301 503.267 531.301 506.187C531.301 509.108 533.713 511.52 536.613 511.52ZM536.613 511.118C534.221 511.118 533.078 508.811 533.078 506.187C533.078 503.542 534.242 501.214 536.613 501.214C538.983 501.214 540.147 503.542 540.147 506.187C540.147 508.811 539.004 511.118 536.613 511.118ZM542.895 515.964C544.355 515.795 545.435 515.054 546.387 512.599L549.879 503.563C550.323 502.315 550.64 501.785 551.318 501.172V501.129H549.096V501.172C549.625 501.595 549.815 502.484 549.371 503.69L547.318 509.15L545.244 503.605C544.757 502.336 544.905 501.574 545.265 501.172V501.129H542.281V501.172C542.81 501.637 543.043 502.188 543.551 503.478L546.514 511.266L546.218 512.049C545.435 514.081 543.615 514.398 542.853 514.398L542.895 515.964ZM554.218 495.712H552.525V495.754L553.202 506.801H553.52L554.218 495.754V495.712ZM553.372 511.287C554.028 511.287 554.557 510.758 554.557 510.102C554.557 509.425 554.028 508.896 553.372 508.896C552.716 508.896 552.165 509.425 552.165 510.102C552.165 510.758 552.716 511.287 553.372 511.287Z" fill="black"/>
</svg>
